<?xml version="1.0" encoding="UTF-8"?>
<svg id="Capa_2" data-name="Capa 2" xmlns="http://www.w3.org/2000/svg" viewBox="0 0 833.95 620.92">
  <defs>
    <style>
      .cls-1 {
        fill: #c19864;
      }
    </style>
  </defs>
  <g id="Capa_1-2" data-name="Capa 1">
    <g>
      <rect class="cls-1" x="316.97" y="254.02" width="29.82" height="112.86"/>
      <polygon class="cls-1" points="445.03 279.69 445.03 254.02 367.51 254.02 364.14 254.03 364.14 366.89 446.03 366.89 446.03 341.08 393.97 341.08 393.97 322.72 440.15 322.72 440.15 296.91 393.97 296.91 393.97 279.69 445.03 279.69"/>
      <path class="cls-1" d="M526.43,309.8h0c-5.79-5.44-13.65-9.76-23.36-12.87l-7.57-2.43c-3.75-1.25-6.55-2.44-8.33-3.54-1.95-1.21-2.52-2.08-2.68-2.39-.4-.83-.6-1.91-.6-3.2,0-1.93.72-3.48,2.27-4.9,1.57-1.44,4.48-2.2,8.41-2.2s7.78.72,10.96,2.14c3.38,1.52,6.81,3.64,10.2,6.32l2.96,2.34,13.33-21.46-2-1.89c-3.73-3.53-8.91-6.63-15.41-9.22-6.49-2.58-13.13-3.89-19.74-3.89-8.02,0-15.21,1.46-21.36,4.33-6.3,2.94-11.28,7.18-14.81,12.61-3.55,5.45-5.35,11.89-5.35,19.12,0,9.56,2.81,16.96,8.34,22,5.15,4.7,12.15,8.52,20.86,11.35l7.42,2.28c4.58,1.47,8.06,2.83,10.33,4.06,2.42,1.31,3.46,2.42,3.9,3.12.61.98.92,2.35.92,4.09,0,1.1-.26,2.79-2.5,4.64-1.84,1.51-5.31,2.31-10.05,2.31s-9.09-.82-12.86-2.45c-3.89-1.68-7.56-3.97-10.93-6.8l-3.13-2.63-11.81,21.26,1.75,1.79c3.18,3.27,7.67,6.33,13.39,9.11v.05l1.97.9c6.71,3.06,14.32,4.61,22.62,4.61,8.81,0,16.47-1.62,22.75-4.81,6.36-3.23,11.23-7.56,14.47-12.87,3.23-5.29,4.87-10.95,4.87-16.82,0-10.19-3.11-18.28-9.24-24.04Z"/>
      <polygon class="cls-1" points="535.67 279.69 567.51 279.69 567.51 366.89 597.19 366.89 597.19 279.69 629.03 279.69 629.03 254.02 535.67 254.02 535.67 279.69"/>
      <polygon class="cls-1" points="666.32 322.72 712.51 322.72 712.51 296.91 666.32 296.91 666.32 279.69 717.38 279.69 717.38 254.02 639.86 254.02 636.49 254.03 636.49 366.89 718.38 366.89 718.38 341.08 666.32 341.08 666.32 322.72"/>
      <path class="cls-1" d="M813.39,324.31l-2.13,3.43c-3.12,5.02-6.9,8.78-11.24,11.16-4.29,2.35-9.78,3.6-15.87,3.6s-11.17-1.34-15.74-3.99c-4.6-2.66-8.07-6.3-10.62-11.14-2.59-4.89-3.84-10.38-3.84-16.78s1.27-12.28,3.79-17.18c2.46-4.8,5.96-8.56,10.4-11.18,4.48-2.64,9.81-3.98,15.86-3.98,5.22,0,10.07,1.03,14.42,3.05l.62.29c4.03,1.99,7.38,4.7,9.95,8.09l2.36,3.1,19.29-19.67-2.13-2.35c-10.94-12.06-26.02-18.17-44.8-18.17-11.68,0-22.2,2.42-31.26,7.2-9.13,4.81-16.33,11.66-21.42,20.35-5.07,8.66-7.63,18.71-7.63,29.85-.11,11.05,2.38,21.15,7.39,30.01,5.02,8.88,12.17,15.9,21.25,20.87,9.01,4.94,19.42,7.44,30.94,7.44,10.58,0,20.12-1.91,28.37-5.69,8.35-3.82,15.37-9.62,20.84-17.23l1.76-2.44-20.56-18.64Z"/>
      <path class="cls-1" d="M255.13,264.37c0-110.21,89.66-199.87,199.87-199.87,94.33,0,173.6,65.68,194.49,153.72l44.95-66.04c-13.02-27.78-30.65-52.88-52.51-74.74-24.27-24.27-52.54-43.33-84.02-56.64C525.3,6.99,490.68,0,455,0s-70.3,6.99-102.92,20.79c-31.48,13.32-59.75,32.37-84.02,56.64-24.27,24.27-43.33,52.54-56.64,84.02-9.13,21.58-15.27,44.04-18.39,67.1v-118.6c0-13.04-7.86-24.8-19.91-29.79-12.05-4.99-25.92-2.23-35.14,6.99L9.45,215.68c-12.59,12.59-12.59,33.01,0,45.61,12.59,12.59,33.01,12.59,45.61,0l73.48-73.48v400.86c0,17.81,14.44,32.25,32.25,32.25s32.25-14.44,32.25-32.25v-288.49c3.12,23.06,9.26,45.52,18.39,67.1,13.32,31.48,32.37,59.75,56.64,84.02,24.27,24.27,52.54,43.33,84.02,56.64,27.55,11.65,56.53,18.45,86.37,20.28l44.93-66c-9.27,1.32-18.75,2.01-28.38,2.01-110.21,0-199.87-89.66-199.87-199.87Z"/>
    </g>
  </g>
</svg>