<?xml version="1.0" encoding="UTF-8"?>
<svg id="Capa_2" data-name="Capa 2" xmlns="http://www.w3.org/2000/svg" viewBox="0 0 902.29 599.93">
  <defs>
    <style>
      .cls-1 {
        fill: #fff;
      }
    </style>
  </defs>
  <g id="Capa_1-2" data-name="Capa 1">
    <g>
      <g>
        <rect class="cls-1" x="318.65" y="236.26" width="33.67" height="127.42"/>
        <polygon class="cls-1" points="463.22 265.24 463.22 236.26 375.71 236.26 371.91 236.27 371.91 363.68 464.35 363.68 464.35 334.55 405.58 334.55 405.58 313.82 457.72 313.82 457.72 284.68 405.58 284.68 405.58 265.24 463.22 265.24"/>
        <path class="cls-1" d="M555.13,299.23h0c-6.54-6.14-15.41-11.02-26.37-14.53l-8.54-2.74c-4.23-1.41-7.39-2.75-9.4-4-2.21-1.36-2.85-2.35-3.02-2.7-.45-.94-.68-2.16-.68-3.62,0-2.17.82-3.93,2.56-5.53,1.78-1.62,5.06-2.48,9.5-2.48s8.79.81,12.37,2.41c3.82,1.71,7.69,4.11,11.51,7.13l3.34,2.64,15.05-24.22-2.25-2.13c-4.21-3.98-10.06-7.48-17.39-10.41-7.33-2.92-14.82-4.39-22.29-4.39-9.05,0-17.17,1.65-24.11,4.89-7.11,3.32-12.74,8.11-16.72,14.24-4.01,6.16-6.04,13.42-6.04,21.59,0,10.8,3.17,19.15,9.41,24.83,5.82,5.31,13.72,9.61,23.55,12.81l8.38,2.57c5.17,1.66,9.1,3.2,11.66,4.58,2.74,1.47,3.91,2.74,4.41,3.52.69,1.1,1.04,2.66,1.04,4.62,0,1.25-.29,3.15-2.83,5.24-2.07,1.71-6,2.61-11.35,2.61s-10.27-.93-14.52-2.77c-4.39-1.9-8.54-4.48-12.34-7.68l-3.53-2.97-13.33,24,1.97,2.03c3.59,3.69,8.66,7.14,15.11,10.28v.05l2.23,1.01c7.58,3.45,16.17,5.2,25.54,5.2,9.95,0,18.59-1.83,25.68-5.43,7.18-3.65,12.68-8.54,16.34-14.52,3.65-5.97,5.5-12.36,5.5-18.99,0-11.51-3.51-20.64-10.43-27.14Z"/>
        <polygon class="cls-1" points="565.55 265.24 601.5 265.24 601.5 363.68 635.01 363.68 635.01 265.24 670.95 265.24 670.95 236.26 565.55 236.26 565.55 265.24"/>
        <polygon class="cls-1" points="713.05 313.82 765.19 313.82 765.19 284.68 713.05 284.68 713.05 265.24 770.69 265.24 770.69 236.26 683.18 236.26 679.38 236.27 679.38 363.68 771.82 363.68 771.82 334.55 713.05 334.55 713.05 313.82"/>
        <path class="cls-1" d="M879.08,315.62l-2.41,3.88c-3.52,5.67-7.79,9.91-12.69,12.6-4.84,2.66-11.04,4.06-17.92,4.06s-12.61-1.52-17.77-4.51c-5.19-3.01-9.11-7.12-11.98-12.57-2.92-5.52-4.34-11.71-4.34-18.94s1.44-13.86,4.28-19.39c2.78-5.42,6.73-9.66,11.74-12.62,5.05-2.98,11.08-4.49,17.91-4.49,5.89,0,11.37,1.16,16.28,3.45l.71.32c4.55,2.24,8.33,5.31,11.24,9.13l2.66,3.5,21.78-22.21-2.41-2.66c-12.35-13.61-29.37-20.51-50.58-20.51-13.19,0-25.06,2.74-35.29,8.13-10.31,5.44-18.44,13.16-24.18,22.97-5.72,9.78-8.62,21.13-8.62,33.7-.12,12.48,2.69,23.88,8.34,33.88,5.67,10.02,13.74,17.95,23.99,23.56,10.17,5.58,21.93,8.4,34.93,8.4,11.94,0,22.72-2.16,32.03-6.42,9.43-4.32,17.35-10.86,23.53-19.45l1.98-2.76-23.21-21.05Z"/>
      </g>
      <path class="cls-1" d="M246.5,255.43c0-106.49,86.63-193.12,193.12-193.12,91.14,0,167.73,63.46,187.92,148.52l43.43-63.81c-12.58-26.84-29.61-51.1-50.73-72.22-23.45-23.45-50.76-41.86-81.18-54.73C507.54,6.76,474.09,0,439.62,0s-67.93,6.76-99.44,20.09c-30.42,12.87-57.73,31.28-81.18,54.73-23.45,23.45-41.86,50.76-54.73,81.18-8.82,20.85-14.76,42.55-17.77,64.83v-114.59c0-12.6-7.59-23.96-19.23-28.79-11.64-4.82-25.04-2.16-33.96,6.75L9.13,208.39c-12.17,12.17-12.17,31.9,0,44.06,12.17,12.17,31.9,12.17,44.07,0l70.99-70.99v387.31c0,17.21,13.95,31.16,31.16,31.16s31.16-13.95,31.16-31.16v-278.73c3.01,22.28,8.95,43.98,17.77,64.83,12.87,30.42,31.28,57.73,54.73,81.18s50.76,41.86,81.18,54.73c26.62,11.26,54.62,17.83,83.45,19.6l43.41-63.77c-8.96,1.28-18.11,1.94-27.42,1.94-106.49,0-193.12-86.63-193.12-193.12Z"/>
    </g>
  </g>
</svg>