<?xml version="1.0" encoding="UTF-8"?>
<svg id="Capa_2" data-name="Capa 2" xmlns="http://www.w3.org/2000/svg" viewBox="0 0 944.42 316.3">
  <defs>
    <style>
      .cls-1 {
        fill: #fff;
      }
    </style>
  </defs>
  <g id="Capa_1-2" data-name="Capa 1">
    <path class="cls-1" d="M197.46,21.99h-4.89V0h3.42l10.44,13.37V0h4.89v21.99h-3.58l-10.28-13.17v13.17ZM222.78,0h-4.89v21.99h4.89V0ZM240.41,21.99L248.97,0h-5.17l-5.46,14.84-5.38-14.84h-5.23l8.47,21.99h4.2ZM258.78,21.99h10.9v-4.24h-10.9v-4.95h9.81v-4.08h-9.81v-4.52h10.74V0h-15.63v21.99h4.89ZM280.27,21.99h-4.89V0h8.97c1.45,0,2.73.28,3.83.83,1.1.55,1.96,1.31,2.59,2.29.62.98.93,2.1.93,3.36s-.31,2.41-.93,3.38c-.62.97-1.5,1.72-2.62,2.26-.63.3-1.33.5-2.08.63l7.06,9.24h-5.79l-6.56-9.06h-.51v9.06ZM280.27,9.31h3.49c.98,0,1.73-.25,2.26-.75s.79-1.17.79-2.03c0-.79-.26-1.44-.78-1.96-.52-.52-1.27-.78-2.24-.78h-3.52v5.51ZM306.39,17.94c-.57.37-1.38.56-2.41.56-1.14,0-2.14-.22-3.01-.67s-1.65-1.07-2.35-1.88l-3.18,3.15c1.08,1.2,2.27,2.1,3.57,2.69,1.3.59,2.85.89,4.66.89,2.64,0,4.7-.6,6.2-1.79,1.5-1.19,2.24-2.84,2.24-4.94,0-1.14-.19-2.1-.56-2.88-.37-.78-.87-1.42-1.48-1.93-.61-.51-1.28-.93-2.01-1.26-.73-.33-1.46-.62-2.2-.87s-1.41-.5-2.03-.75-1.11-.54-1.48-.89c-.38-.34-.56-.79-.56-1.35,0-.6.25-1.06.75-1.39.5-.32,1.17-.48,2.03-.48s1.61.17,2.29.5c.67.33,1.34.84,2.01,1.53l3.18-3.14c-.83-.93-1.88-1.67-3.16-2.21-1.28-.54-2.68-.81-4.22-.81s-2.86.26-4.02.76c-1.16.51-2.07,1.25-2.72,2.23-.66.98-.98,2.14-.98,3.49,0,1.12.19,2.05.56,2.79.37.74.87,1.35,1.48,1.84.61.49,1.28.89,2.01,1.22.73.32,1.46.61,2.19.86.74.25,1.41.51,2.03.78.61.27,1.11.59,1.48.97.37.37.56.86.56,1.46,0,.67-.29,1.18-.86,1.56ZM348.13,21.99h-4.89V0h8.97c1.45,0,2.73.28,3.83.83,1.1.55,1.96,1.31,2.59,2.29.62.98.93,2.1.93,3.36s-.31,2.41-.93,3.38c-.62.97-1.5,1.72-2.62,2.26-.63.3-1.33.5-2.08.63l7.06,9.24h-5.79l-6.56-9.06h-.51v9.06ZM348.13,9.31h3.49c.98,0,1.73-.25,2.26-.75.53-.5.79-1.17.79-2.03,0-.79-.26-1.44-.78-1.96-.52-.52-1.27-.78-2.24-.78h-3.52v5.51ZM370.34,0h-4.89v21.99h4.89V0ZM376.66,15.81c-.58-1.38-.87-2.87-.87-4.47s.29-3.12.87-4.49c.58-1.37,1.39-2.57,2.43-3.6,1.04-1.03,2.26-1.83,3.66-2.4,1.4-.57,2.93-.86,4.59-.86s3.16.29,4.56.86c1.4.57,2.63,1.37,3.68,2.4,1.05,1.03,1.86,2.23,2.45,3.61.58,1.38.87,2.88.87,4.5s-.29,3.09-.87,4.47c-.58,1.38-1.39,2.59-2.43,3.61-1.04,1.03-2.26,1.83-3.66,2.41-1.4.58-2.91.87-4.53.87s-3.19-.29-4.6-.87c-1.4-.58-2.63-1.39-3.69-2.43-1.06-1.04-1.88-2.25-2.46-3.63ZM380.8,11.34c0,1.04.15,1.98.47,2.83.31.85.75,1.58,1.32,2.2.57.61,1.26,1.08,2.07,1.42.81.33,1.7.5,2.68.5,1.31,0,2.46-.29,3.44-.87.99-.58,1.75-1.4,2.29-2.45.54-1.05.81-2.26.81-3.63,0-1.04-.16-1.98-.47-2.82-.31-.84-.76-1.57-1.34-2.18-.58-.61-1.27-1.08-2.07-1.4-.8-.32-1.69-.48-2.66-.48-1.31,0-2.46.29-3.44.86-.99.57-1.75,1.37-2.29,2.4-.54,1.03-.81,2.24-.81,3.63ZM167.66,21.99h-5L173.94,0h4.04l11.28,21.99h-5l-2.05-3.99h-12.52l-2.04,3.99ZM171.75,14.02h8.43l-4.22-8.22-4.22,8.22ZM318.61,21.99h-5l11.28-21.99h4.04l11.28,21.99h-5l-2.04-3.99h-12.52l-2.04,3.99ZM322.7,14.02h8.43l-4.22-8.22-4.22,8.22ZM114.62.01c-1.63,0-3.12.92-3.85,2.38L5.8,211.57c-1.44,2.87.65,6.24,3.85,6.24,1.63,0,3.12-.92,3.85-2.38L118.47,6.26c1.44-2.87-.65-6.24-3.85-6.24ZM8.16,191.37L101.05,6.26c1.44-2.87-.65-6.24-3.85-6.24-1.63,0-3.12.92-3.85,2.38L.46,187.51c-.3.6-.46,1.26-.46,1.93,0,4.54,6.12,6,8.16,1.93ZM224.55,213.51v-29.15c0-10.66-8.64-19.31-19.31-19.31h-7.72c-2.38,0-4.31-1.93-4.31-4.31v-44.44c0-5.29-4.28-9.57-9.57-9.57h-41.96c-5.29,0-9.57,4.28-9.57,9.57v44.44c0,2.38-1.93,4.31-4.31,4.31h-45.7c-3.23,0-5.31-3.41-3.83-6.28L156.65,6.3c1.47-2.87-.61-6.28-3.83-6.28h-.86c-1.63,0-3.12.92-3.85,2.38L43.14,211.57c-1.44,2.87.65,6.24,3.85,6.24h80.81c2.38,0,4.31,1.93,4.31,4.31v89.86c0,2.38,1.93,4.31,4.31,4.31h23.05c18.63,0,33.74-15.11,33.74-33.74v-60.43c0-2.38,1.93-4.31,4.31-4.31h22.72c2.38,0,4.31-1.93,4.31-4.31ZM134.53.01c-1.63,0-3.12.92-3.85,2.38L25.72,211.57c-1.44,2.87.65,6.24,3.85,6.24,1.63,0,3.12-.92,3.85-2.38L138.39,6.26c1.44-2.87-.65-6.24-3.85-6.24ZM410.73,194.72h0c-1.03-3.84-6.24-4.36-8.02-.82l-54.38,108.37c-1.77,3.52,1.72,7.38,5.4,5.97h.01c1-.39,1.81-1.14,2.29-2.1l54.38-108.37c.47-.94.6-2.03.32-3.05ZM401.32,172.13c-7.07-12.03-16.91-21.81-29.52-29.36-13.94-8.34-31.07-12.51-51.4-12.51-8.86,0-16.55.78-23.06,2.34-1.05.25-2.09.52-3.11.81-2.92.83-5.73-1.65-5.39-4.67l4.16-36.87c.25-2.18,2.09-3.83,4.28-3.83h68.44c18.35,0,33.23-14.88,33.23-33.23v-14.44c0-2.38-1.93-4.31-4.31-4.31h-135.67c-8.62,0-15.84,6.52-16.72,15.09l-11.06,107.71c-.42,4.13,1.12,8.22,4.17,11.05l11.94,11.06c5.4,5,13.35,6.08,19.87,2.67,3.64-1.9,7.45-3.48,11.42-4.74,7.82-2.47,16.41-3.71,25.79-3.71s17.78,1.76,25.21,5.27c7.43,3.52,13.22,8.54,17.39,15.05,4.17,6.52,6.25,14.33,6.25,23.45s-2.09,16.61-6.25,23.26c-4.17,6.64-9.91,11.72-17.2,15.24-7.3,3.52-15.89,5.28-25.79,5.28-11.21,0-21.56-2.28-31.07-6.84-6.34-3.04-11.67-6.69-15.98-10.94-3.47-3.42-8.96-3.62-12.43-.19l-28.76,28.48c-2.49,2.47-2.53,6.5-.06,8.99,10.17,10.26,22.47,18.28,36.91,24.08,16.54,6.65,34.33,9.97,53.35,9.97,9.48,0,18.41-.77,26.81-2.29,1.34-.24,2.47-1.11,3.08-2.33l65.8-131.13c1.34-2.67,1.2-5.84-.31-8.42ZM416.17,224.23c-1.03-3.82-6.24-4.35-8.02-.81l-31.55,62.66c-2.11,4.21,3.08,8.27,6.66,5.21.44-.38.8-.84,1.06-1.36l31.54-62.63c.47-.94.6-2.03.32-3.05h0ZM645.07,49.31h-35.31v130.55c0,11.86-2.57,21.03-7.7,27.5-5.13,6.47-12.22,9.7-21.25,9.7s-16.23-3.28-21.37-9.84c-5.13-6.56-7.7-15.68-7.7-27.35V49.31h-54.21l-14.96,42.56,16.84.62v84.33c0,10.5,1.62,22.56,4.86,36.18,2.01,8.46,5.73,16.68,11.17,24.66,5.44,7.97,11.44,14.13,18.01,18.45,6.56,4.33,14.73,7.22,24.49,8.68,9.76,1.46,18.78,2.19,27.04,2.19,14.28,0,26.52-2.38,36.71-7.15,7.33-3.4,14.34-9.31,21.02-17.72,6.68-8.41,11.58-18.24,14.71-29.47,3.13-11.23,4.69-23.17,4.69-35.81v-65.06l-40.26.21,23.22-62.66ZM944.42,115.01c0,21.61-5.15,38.49-15.46,50.66-10.31,12.17-26.04,18.25-47.19,18.25h-28.72v79.42h-52.67V90.93h-34.68s-8.17,0-8.17,0v172.4h-52.46V90.94h-53.5l14.64-41.62h221.34c18.99,0,33.22,5.69,42.67,17.08,9.46,11.39,14.19,27.59,14.19,48.61ZM893.35,116.91c0-6.72-1.78-12.41-5.33-17.08-3.55-4.67-10.23-7.01-20.03-7.01h-16.05v47.74h13.97c10.11,0,17.21-2.21,21.31-6.64,4.09-4.43,6.14-10.09,6.14-17.01Z"/>
  </g>
</svg>