<?xml version="1.0" encoding="UTF-8"?>
<svg id="Capa_2" data-name="Capa 2" xmlns="http://www.w3.org/2000/svg" viewBox="0 0 898.56 502.04">
  <defs>
    <style>
      .cls-1 {
        fill: #fff;
      }
    </style>
  </defs>
  <g id="Capa_1-2" data-name="Capa 1">
    <g>
      <g>
        <g>
          <path class="cls-1" d="M165.68.03c3.29.31,6.59.61,9.88.92,34.92,3.23,65.49,16.55,91.87,39.59,11.35,9.92,20.95,21.3,29.25,33.86,1.46,2.22,1.65,3.95.34,6.32-6.59,11.92-11.39,24.56-14.76,37.75-.13.54-.36,1.05-.68,2.01-.45-.96-.75-1.51-.97-2.08-11.35-30.47-31.2-53.59-59.8-69.14-21.56-11.73-44.79-16.77-69.08-14.59-45.97,4.12-80.3,26.85-102.8,67.09-8.89,15.89-13.55,33.15-14.59,51.37-1.92,33.56,7.73,63.41,29.22,89.2,21.25,25.5,48.61,40.59,81.55,44.7,32.51,4.07,62.43-3.45,89.32-22.34,16.99-11.94,30.16-27.28,39.68-45.68,7.49-14.47,12.1-29.87,13.34-46.16.68-8.94.71-17.93,1.45-26.86,1.71-20.63,7.59-40.1,17.1-58.47,7.08-13.67,15.94-26.04,26.57-37.2,18.25-19.15,39.89-32.97,64.89-41.53,12.4-4.24,25.14-6.84,38.25-7.85,25.91-1.99,50.93,1.59,74.95,11.56,18.31,7.61,34.65,18.25,49.08,31.88,9.54,9.02,17.76,19.08,25.01,29.98,1.45,2.18,1.64,3.91.32,6.34-6.41,11.81-11.19,24.29-14.6,37.29-.16.63-.38,1.25-.74,2.43-1.46-3.57-2.64-6.7-4.02-9.75-14.92-33.1-39.37-56.13-73.38-68.89-12.86-4.82-26.23-7.17-40.02-7.45-32.71-.68-61.46,9.63-86.16,30.92-23.45,20.22-37.57,45.82-42.5,76.36-1.06,6.53-1.59,13.22-1.63,19.84-.2,38.87-12.7,73.32-37.63,102.98-25.57,30.44-58.19,49.4-97.55,55.57-48.38,7.57-91.91-4.4-129.48-35.78C26.05,258.07,7.56,224.31,1.47,183.9c-.59-3.93-.99-7.89-1.47-11.84v-21.95c.14-.72.32-1.45.44-2.18,1.32-8.27,2.07-16.68,4.06-24.79,8.38-34.24,26.2-62.78,53.25-85.41C83.33,16.32,112.82,4.07,146.07.92c3.38-.32,6.75-.61,10.13-.92h9.48v.03Z"/>
          <path class="cls-1" d="M742.08.03c3.47.31,6.94.58,10.39.92,33.08,3.2,62.46,15.39,87.93,36.71,29.25,24.5,47.74,55.57,55.03,92.97,6.6,33.96,2.87,66.96-12.1,98.26-21.79,45.56-57.42,74.91-106.13,88.23-14.59,4-29.59,5.6-44.7,4.99-38.16-1.53-71.89-14.54-100.83-39.59-11.96-10.35-22.18-22.22-30.66-35.58-.87-1.37-1.21-2.5-.33-4.1,6.63-11.99,11.54-24.67,15.05-37.91.19-.72.43-1.42.68-2.14.04-.11.25-.16.52-.32,1.68,3.97,3.24,7.95,5.02,11.84,7.45,16.25,17.98,30.21,31.39,42.04,14.92,13.16,31.95,22.41,51.19,27.45,28.95,7.58,57.18,5.26,84.57-6.8,14.56-6.41,27.41-15.39,38.5-26.71,19.83-20.25,32.19-44.44,35.5-72.6,5.18-44-8.85-81.35-41.55-111.22-20.32-18.56-44.61-29.03-72.09-31.54-35.56-3.24-67.24,6.66-94.46,29.65-24.35,20.56-38.8,46.99-43.45,78.51-1.28,8.67-1.25,17.54-1.64,26.34-.86,19.49-5.34,38.13-13.1,55.99-8.1,18.66-19.39,35.24-33.87,49.51-26.15,25.77-57.42,41.31-93.94,45.85-30.26,3.76-59.32-.73-87.07-13.43-15.4-7.05-29.23-16.4-41.73-27.82-10.45-9.54-19.32-20.35-27.02-32.18-.98-1.49-1.47-2.78-.51-4.57,6.67-12.43,11.89-25.44,15.33-39.14.08-.31.26-.59.54-1.19.4.65.74,1.06.92,1.53,6.42,17.51,16.08,33.01,29.16,46.28,11.61,11.79,25.09,20.99,40.32,27.55,13.81,5.94,28.19,9.34,43.23,10.1,33.52,1.68,63.18-8.29,88.8-29.79,24.14-20.26,38.63-46.2,43.67-77.3,1.06-6.53,1.63-13.22,1.66-19.83.18-39.23,12.86-73.95,38.2-103.76,26.53-31.23,60.43-49.69,101.05-55.58,4.76-.69,9.6-.8,14.4-1.21.89-.08,1.79-.27,2.68-.42h9.48,0Z"/>
        </g>
        <g>
          <path class="cls-1" d="M767.51,75.6c0-15.01-12.17-27.18-27.18-27.18s-27.18,12.17-27.18,27.18c0,12.5,8.44,23.02,19.93,26.2v161.15h14.51V101.79c11.48-3.18,19.92-13.7,19.92-26.19ZM740.33,89.15c-7.48,0-13.56-6.07-13.56-13.56s6.07-13.56,13.56-13.56,13.56,6.07,13.56,13.56-6.07,13.56-13.56,13.56Z"/>
          <path class="cls-1" d="M816.55,136.24c0-15.01-12.17-27.18-27.18-27.18s-27.18,12.17-27.18,27.18c0,12.49,8.44,23.02,19.92,26.19v32.46l-19.62,11.33.11.18v56.55h14.51v-48.42l19.46-11.23-.18-.31h.24v-40.57c11.49-3.17,19.93-13.7,19.93-26.2ZM789.36,149.79c-7.48,0-13.56-6.07-13.56-13.56s6.07-13.56,13.56-13.56,13.56,6.07,13.56,13.56-6.07,13.56-13.56,13.56Z"/>
          <path class="cls-1" d="M716.62,195.01l-33.54-39.98v-14.69c11.48-3.18,19.92-13.7,19.92-26.19,0-15.01-12.17-27.18-27.18-27.18-15.01,0-27.18,12.17-27.18,27.18,0,12.5,8.44,23.02,19.93,26.2v19.43h.15l-.35.29,33.75,40.22v62.66h14.51v-67.94h-.01.01ZM662.26,114.14c0-7.48,6.07-13.56,13.56-13.56s13.56,6.07,13.56,13.56-6.07,13.56-13.56,13.56-13.56-6.07-13.56-13.56Z"/>
        </g>
        <g>
          <path class="cls-1" d="M545.56,184.12l-33.76-40.23v-54.11h10.9c.42,0,.76-.34.76-.76v-16.79c0-.42-.34-.76-.76-.76h-101.35c-.42,0-.76.34-.76.76v16.79c0,.42.34.76.76.76h12.34v54.12l-19.32,23.03v-43.58h.76c3.38,0,6.12-2.74,6.12-6.12v-2.27c0-3.38-2.74-6.12-6.12-6.12h-55.7c-3.38,0-6.12,2.74-6.12,6.12v2.27c0,3.38,2.74,6.12,6.12,6.12h.75v108.84h-.01s0,.08.01.12v.12h.01c.96,14.13,12.69,25.31,27.08,25.31s26.12-11.18,27.08-25.31h.01v-.12s0-.08.01-.12h-.01v-17.6h.28v-25.42l33.55-39.98h-.01s.02-.01.02-.01v-59.39h49.09v59.39h.03l-.02.02,33.54,39.97v25.42h14.51v-30.16h-.14l.35-.3ZM387.28,244.11c-6.85,0-12.5-5.09-13.41-11.69h.83v-109.09h25.16v109.09h.83c-.91,6.6-6.56,11.69-13.41,11.69Z"/>
          <circle class="cls-1" cx="459.04" cy="187.39" r="27.18" transform="translate(1.95 379.48) rotate(-45)"/>
          <circle class="cls-1" cx="476.32" cy="140.01" r="13.56" transform="translate(-16.28 78.11) rotate(-9.22)"/>
        </g>
        <path class="cls-1" d="M174.17,66.07c3.28.83,6.57,1.67,9.86,2.49,2.38.59,4.76,1.23,7.16,1.71,1.55.31,2.3,1.16,2.36,2.63.22,5.72.49,11.42.58,17.14.04,2.23.74,3.73,2.76,4.86,6.06,3.41,4.78,2.72,9.86-.02,4.27-2.29,8.49-4.7,12.73-7.05,1.36-.75,2.54-.61,3.66.55,4.02,4.15,8.06,8.26,12.1,12.39,1.06,1.09,1.13,2.28.38,3.56-2.91,4.9-5.78,9.83-8.74,14.7-1.07,1.75-1.34,3.36-.11,5.13.68.98,1.23,2.06,1.72,3.15.75,1.7,2.12,2.27,3.83,2.37,5.81.35,11.6.72,17.41,1.09,1.82.11,2.54.65,2.94,2.41,1.27,5.65,2.5,11.32,3.73,16.98.33,1.52-.54,2.34-1.76,2.94-5.07,2.53-10.12,5.12-15.22,7.58-1.73.83-2.64,2.01-2.72,3.92-.06,1.6-.18,3.2-.31,4.8-.13,1.64.45,2.88,1.81,3.86,4.62,3.35,9.18,6.78,13.8,10.15,2.08,1.53,2.35,2.13,1.49,4.51-1.78,4.98-3.59,9.97-5.4,14.94-.61,1.68-1.35,2.13-3.25,1.92-5.58-.58-11.17-1.12-16.74-1.83-2.06-.26-3.46.35-4.58,2.04-1.07,1.63-2.27,3.18-3.47,4.72-1.03,1.31-1.18,2.63-.56,4.21,2.17,5.53,4.27,11.08,6.37,16.65.53,1.39.36,2.59-.97,3.58-4.18,3.1-8.32,6.27-12.48,9.4-1.74,1.3-2.4,1.29-4.1-.07-4.44-3.58-8.9-7.15-13.31-10.77-1.21-.99-2.42-1.28-3.88-.7-2.36.95-4.73,1.9-7.13,2.73-1.73.59-2.57,1.73-2.92,3.45-1.18,5.79-2.42,11.56-3.62,17.34-.26,1.28-1.01,2.11-2.3,2.22-5.15.44-10.28.86-15.43,1.18-2.15.13-2.8-.55-3.45-2.55-1.79-5.51-3.64-11-5.48-16.49-.43-1.29-1.37-2.04-2.69-2.34-2.93-.66-5.87-1.31-8.79-1.99-1.61-.38-2.79.25-3.88,1.39-3.94,4.08-7.92,8.12-11.89,12.16-1.54,1.57-2.34,1.66-4.25.58-4.02-2.26-8.02-4.52-12.05-6.75-2.38-1.32-2.66-1.94-1.99-4.58,1.39-5.47,2.75-10.95,4.19-16.4.41-1.54.09-2.72-1.01-3.82-1.94-1.96-3.84-3.97-5.7-5.99-1.22-1.32-2.5-1.89-4.39-1.42-5.63,1.37-11.32,2.56-16.98,3.84-1.42.33-2.47-.09-3.14-1.38-2.42-4.67-4.83-9.34-7.22-14.02-.66-1.29-.28-2.39.75-3.35,4.34-4.03,8.63-8.09,13.01-12.08,1.31-1.19,1.62-2.51,1.27-4.17-.52-2.55-.98-5.12-1.41-7.68-.25-1.49-1.1-2.45-2.48-2.95-5.58-2.03-11.16-4.11-16.78-6.06-1.49-.52-2-1.2-1.81-2.82.67-5.36,1.2-10.74,1.75-16.12.15-1.51,1.07-2.2,2.42-2.44,5.82-1.04,11.63-2.06,17.45-3.09,1.58-.27,2.79-.97,3.41-2.57.85-2.24,1.83-4.42,2.72-6.65.54-1.36.32-2.58-.61-3.78-3.58-4.64-7.09-9.33-10.64-13.99-.87-1.15-.91-2.24.03-3.4,3.52-4.31,7.01-8.63,10.49-12.97.93-1.15,2.05-1.34,3.35-.8,5.49,2.28,10.99,4.54,16.45,6.89,1.73.74,3.15.55,4.61-.56,1.39-1.07,2.84-2.06,4.29-3.03,1.36-.92,1.76-2.12,1.63-3.73-.5-5.79-.85-11.59-1.34-17.38-.14-1.72.6-2.58,2.16-3.09,5.27-1.75,10.5-3.57,15.75-5.35,1.69-.57,2.53-.27,3.58,1.22,3.41,4.89,6.82,9.77,10.19,14.69.87,1.28,1.95,1.93,3.52,1.84,1.85-.1,3.72.02,5.54-.23.75-.1,1.69-.76,2.06-1.44,2.89-5.16,5.62-10.38,8.48-15.55.51-.92,1.39-1.62,2.09-2.41h1.23ZM160.67,218.91c31.2-.24,57.08-26.15,55.9-58.71-1.09-30.04-25.82-54.61-56.79-54.33-31.81.29-56.71,25.83-56.14,57.7.56,31.03,26.02,55.61,57.02,55.34h.01Z"/>
      </g>
      <g>
        <rect class="cls-1" x="137.74" y="363.96" width="36.02" height="136.32"/>
        <polygon class="cls-1" points="230.75 446.94 286.53 446.94 286.53 415.76 230.75 415.76 230.75 394.97 292.42 394.97 292.42 363.96 198.79 363.96 194.72 363.97 194.72 500.29 293.63 500.29 293.63 469.12 230.75 469.12 230.75 446.94"/>
        <path class="cls-1" d="M390.75,431.34h0c-7-6.57-16.49-11.79-28.21-15.54l-9.14-2.94c-4.52-1.51-7.91-2.95-10.06-4.28-2.36-1.46-3.05-2.51-3.23-2.89-.48-1-.73-2.31-.73-3.87,0-2.33.87-4.21,2.74-5.92,1.9-1.74,5.42-2.66,10.16-2.66s9.4.87,13.23,2.58c4.08,1.83,8.23,4.4,12.31,7.63l3.57,2.82,16.1-25.92-2.41-2.28c-4.5-4.26-10.76-8.01-18.61-11.14-7.84-3.12-15.86-4.7-23.85-4.7-9.69,0-18.37,1.76-25.8,5.23-7.61,3.55-13.63,8.67-17.89,15.24-4.29,6.59-6.47,14.36-6.47,23.1,0,11.55,3.39,20.49,10.07,26.57,6.22,5.68,14.68,10.29,25.19,13.71l8.96,2.75c5.53,1.77,9.73,3.42,12.48,4.9,2.93,1.58,4.18,2.93,4.71,3.77.74,1.18,1.11,2.84,1.11,4.94,0,1.33-.31,3.37-3.02,5.61-2.22,1.83-6.41,2.79-12.14,2.79s-10.98-1-15.53-2.96c-4.69-2.03-9.14-4.79-13.2-8.21l-3.78-3.18-14.26,25.67,2.11,2.17c3.84,3.94,9.27,7.64,16.17,11v.06l2.38,1.08c8.11,3.69,17.3,5.56,27.32,5.56,10.64,0,19.89-1.96,27.48-5.81,7.69-3.9,13.57-9.13,17.48-15.54,3.91-6.39,5.89-13.23,5.89-20.31,0-12.31-3.75-22.08-11.16-29.04Z"/>
        <polygon class="cls-1" points="401.9 394.97 440.36 394.97 440.36 500.29 476.21 500.29 476.21 394.97 514.66 394.97 514.66 363.96 401.9 363.96 401.9 394.97"/>
        <polygon class="cls-1" points="559.71 446.94 615.49 446.94 615.49 415.76 559.71 415.76 559.71 394.97 621.38 394.97 621.38 363.96 527.75 363.96 523.68 363.97 523.68 500.29 622.59 500.29 622.59 469.12 559.71 469.12 559.71 446.94"/>
        <path class="cls-1" d="M737.34,448.87l-2.57,4.15c-3.76,6.06-8.33,10.6-13.57,13.48-5.18,2.84-11.81,4.35-19.17,4.35s-13.49-1.62-19.01-4.82c-5.55-3.22-9.75-7.61-12.82-13.45-3.12-5.9-4.64-12.53-4.64-20.27s1.54-14.83,4.57-20.75c2.97-5.79,7.2-10.34,12.56-13.51,5.41-3.19,11.85-4.81,19.16-4.81,6.3,0,12.16,1.24,17.42,3.69l.75.35c4.87,2.4,8.91,5.68,12.02,9.77l2.85,3.74,23.3-23.76-2.58-2.84c-13.22-14.56-31.42-21.95-54.11-21.95-14.11,0-26.81,2.93-37.76,8.7-11.03,5.82-19.73,14.08-25.87,24.58-6.12,10.46-9.22,22.6-9.22,36.05-.13,13.35,2.88,25.55,8.93,36.25,6.06,10.73,14.7,19.21,25.67,25.21,10.88,5.97,23.46,8.99,37.38,8.99,12.78,0,24.31-2.31,34.26-6.87,10.09-4.62,18.56-11.62,25.17-20.81l2.12-2.95-24.83-22.52Z"/>
      </g>
    </g>
  </g>
</svg>