<?xml version="1.0" encoding="UTF-8"?>
<svg id="Layer_2" data-name="Layer 2" xmlns="http://www.w3.org/2000/svg" viewBox="0 0 1294.53 324.56">
  <defs>
    <style>
      .cls-1 {
        fill: #fff;
      }
    </style>
  </defs>
  <g id="Capa_1" data-name="Capa 1">
    <g>
      <g>
        <g>
          <path class="cls-1" d="M667.08,194.97V64.31c0-.08,1.04-1.12,1.12-1.12h20.24c.08,0,1.12,1.04,1.12,1.12v181.56c-2.55-.33-6.62.8-8.67-.69-32.76-37.65-65.15-75.66-98.14-113.12-4.71-5.35-9.39-10.87-14.63-15.71v129.53h-23.24V64.31c0-1.7,7.33-1.62,8.63.36,37.41,41.77,72.51,85.79,110.17,127.31.95,1.05,2.13,2.33,3.38,2.98Z"/>
          <path class="cls-1" d="M526.9,63.19v22.46h-83.96v50.91h83.21v22.46h-83.21v65.14h83.21v21.34c0,.08-1.04,1.12-1.12,1.12h-104.57V63.19h106.45Z"/>
          <path class="cls-1" d="M876.98,246.63h-22.86l-29.96-59.2-72.38.42-28.85,58.78h-23.24c-.09,0-1.46-1.06-.8-1.53l86.2-181.22c1.61-1.16,6.71-1.34,7.87.5l84.02,182.25ZM762.29,165.77h52.47l-25.87-55.41-26.6,55.41Z"/>
          <path class="cls-1" d="M290.02,209.2l19.04-10.44c8.43,14.04,20.19,31.49,38.97,29.8,16.97-1.53,30.15-15.39,27.12-32.89-4.27-24.63-53.65-45.9-66.99-69.36-28.13-49.47,38.35-94.99,81.2-45.91,1.36,1.56,7.04,8.45,7.51,9.78.38,1.08.36.98-.35,1.87-3.25,4.06-13.17,8.61-16.92,13.04-7.12-8.15-15.31-20.83-27.05-22.37-27.57-3.62-35.63,22.69-17.55,40.74,15.84,15.81,37.89,25.11,52.46,44.19,30.32,39.73-.24,87.2-48.24,82.62-22.66-2.16-40.42-21.41-49.2-41.07Z"/>
          <g>
            <path class="cls-1" d="M1026.26,112.51c-.31-.18-3.26-4.88-4.21-5.9-40.42-43.51-118.53-28.37-131.2,31.45-17.07,80.58,78.52,121.47,134.23,63.66.88-.91.81-2.55,2.15-2.28,1.23.12,17.4,12.03,17.49,13.12-23.61,33.31-68.42,43.97-107.16,35.34-76.33-17.01-97.44-117.31-38.44-166.71,38.94-32.61,105.12-29.06,139.05,9.32.95,1.07,6.57,7.84,6.67,8.36.18.97-.55,1.21-1.07,1.76-1.61,1.72-12.3,9.76-14.49,10.98-.86.48-1.97,1.52-3.02.91Z"/>
            <g>
              <path class="cls-1" d="M1072.26,63.19c15.14,21.72,27.44,45.99,42.34,67.78.42.62,2.4,3.76,3,3.35l41.96-69.83c.32-.46,1.53-1.3,1.9-1.3h24.36l-.59,2.78-57.13,94.18v85.35c0,.08-1.04,1.12-1.12,1.12h-20.24c-.08,0-1.12-1.04-1.12-1.12v-86.85c-17.82-29.24-36.72-57.9-54.29-87.29-1.52-2.55-3.55-5.26-4.19-8.17h25.11Z"/>
              <path class="cls-1" d="M1294.53,85.65h-39.73v160.23h-23.24V85.65h-39.73v-21.34c0-.08,1.04-1.12,1.12-1.12h100.45c.08,0,1.12,1.04,1.12,1.12v21.34Z"/>
            </g>
          </g>
        </g>
        <g>
          <path class="cls-1" d="M215.05,81.16c-27.6-10.9-57.55-8.15-83.46,5.83-25.26-14.25-55.55-16.6-82.57-5.81-.76-34.38,24.44-66.85,56.95-77.14,53.42-16.91,108.05,21.4,109.08,77.13Z"/>
          <g>
            <path class="cls-1" d="M38.88,99.88c4.62,27.77,22.41,51.41,46.16,65.9-1.17,30.19,12.64,58.98,36.29,77.48.02,1.51-14.36,6.07-16.61,6.61-66.74,16.09-123.66-49.28-97.46-113.06,5.87-14.29,17.77-29.85,31.61-36.93Z"/>
            <path class="cls-1" d="M143.09,244.37c-1-1.37,7.98-8.23,9.38-9.72,17.89-19.04,26.75-43.54,26.97-69.65,23.58-13.76,41.12-37.93,45.37-65.13.98-.93,7.76,4.56,9,5.61,39.6,33.63,38.63,96.01-1.9,128.39-25.62,20.46-58.96,23.65-88.81,10.49Z"/>
            <path class="cls-1" d="M96.66,158.96c2.92-23.26,15.69-44.86,34.94-58.21,13.79,8.58,25.44,23.88,30.99,39.17,1.37,3.77,4.77,14.5,4.51,18-.05.75-.2,1.02-.78,1.49-1.19.96-10.07,3.75-12.17,4.31-19.18,5.18-39.49,3.52-57.49-4.76Z"/>
            <path class="cls-1" d="M167.82,171.01c-.72,18.44-7.19,36.18-18.76,50.51-2.69,3.33-12.3,13.49-15.76,15.01-2.25.99-5.7-2.28-7.46-3.74-7.22-6.01-15.46-16.02-19.87-24.33-6.23-11.73-9.08-24.24-10.1-37.45,23.4,8.98,48.56,9.08,71.96,0Z"/>
            <path class="cls-1" d="M121.35,93.9c-12.64,11.15-23.61,24.33-29.81,40.22-2.4,6.17-3.48,12.72-5.8,18.9-13.89-9.81-25.51-23.47-31.68-39.47-1.54-4-4.88-14.64-4.74-18.55.03-.95.02-1.57.82-2.24,1.03-.86,9.68-3.6,11.61-4.13,20.43-5.53,40.48-3.42,59.61,5.26Z"/>
            <path class="cls-1" d="M177.58,153.04c-2.99-16.93-10.5-33.05-21.77-46.02-3.92-4.52-8.97-8.24-12.72-12.74,18.41-9.82,42.55-11.4,62.37-4.66,1.38.47,7.47,2.62,8.09,3.15,2.08,1.74-1.06,12.66-1.87,15.36-5.36,18-18.39,34.79-34.11,44.91Z"/>
          </g>
        </g>
      </g>
      <g>
        <path class="cls-1" d="M265.28,301.28v-20.22h6.75v33.69l-6.6-.16-13.64-20.81v20.96h-6.75v-33.69c1.92.26,5.12-.6,6.74.38,3.07,1.85,9.27,17.03,13.5,19.84Z"/>
        <path class="cls-1" d="M940.7,315.88c-1.97,11.08-23.46,11.91-25.48.38,6.43-1.55,17.59,7.25,18.73-3.75-20.37,12.03-27.19-25.67-5.6-23.23,1.93.22,5.33,2.43,5.57,2.25.15-.12.04-1.73,1.24-2.13,1.52-.52,3.87.11,5.54-.1-.99,7.92,1.34,19.08,0,26.58ZM934.68,301.99c0-3.68-2.99-6.67-6.68-6.67s-6.68,2.99-6.68,6.67,2.99,6.67,6.68,6.67,6.68-2.99,6.68-6.67Z"/>
        <path class="cls-1" d="M487.17,280.32v34.44c-2.22,1.26-7.11-1.45-7.72-1.36-3,.42-3.55,3.31-9.39,1.6-16.46-4.82-7.04-35.23,10.37-23.45v-11.23h6.75ZM472.72,295.44c-6.81,1.48-5.54,14.25,1.96,13.86,9.47-.49,8.06-16.04-1.96-13.86Z"/>
        <path class="cls-1" d="M539.91,310.75c-9.09-9.09-4.99-27.36,7.94-30.1,5.73-1.21,15.29.05,18.83,5.26,1.38,2.03-3,5.51-3.41,5.51s-4.82-3.76-6.92-4.2c-18.79-3.91-19.42,24.44-.63,21.49,5.73-.9,6.38-8.11,11.61-.22-5.29,8.91-20.43,9.24-27.41,2.25Z"/>
        <path class="cls-1" d="M982.68,314.76c-2.87-.49-7.7,1.66-6.75-2.25-12.07,9.22-24.34-5.87-17.39-17.75,3.85-6.57,11.33-7.06,17.39-3.21-.94-3.94,4.05-1.74,6.75-2.25v25.46ZM967.47,295.45c-8,2.41-3.53,17.98,5.4,12.88,6.4-3.66,3.01-15.41-5.4-12.88Z"/>
        <path class="cls-1" d="M303.51,314.76c-2.87-.49-7.7,1.66-6.75-2.25-5.64,5.18-13.74,3.26-17.39-3.21-6.86-12.13,4.97-25.82,17.39-17.75-.94-3.94,4.05-1.74,6.75-2.25v25.46ZM289.06,295.44c-9.04,1.99-4.39,18.05,4.64,12.89,6-3.43,3.54-14.69-4.64-12.89Z"/>
        <path class="cls-1" d="M225.55,314.76c-2.87-.49-7.7,1.66-6.75-2.25-5.58,5.03-13.19,3.41-17.11-2.74-7.58-11.89,4.5-26.63,17.11-18.22-.94-3.94,4.05-1.74,6.75-2.25v25.46ZM210.34,295.45c-8,2.41-3.53,17.98,5.4,12.88,6.4-3.66,3.01-15.41-5.4-12.88Z"/>
        <path class="cls-1" d="M706.81,314.76c-2.87-.49-7.7,1.66-6.75-2.25-12.21,9.27-24.8-6.18-17.11-18.22,3.95-6.18,11.33-6.45,17.11-2.73-1.61-3.84,6.75-2.36,6.75-1.13v24.33ZM689.06,297.03c-5.1,5.58,1.29,16.11,8.4,11.01,7.94-5.71-1.85-18.16-8.4-11.01Z"/>
        <path class="cls-1" d="M432.45,314.76c-2.22,1.26-7.11-1.45-7.72-1.36-.91.13-2.58,1.81-4.73,2.06-16.99,2.03-18.81-29.44,1.54-26.11,1.68.27,3.96,2.35,4.15,2.2.11-.08,0-1.73,1.22-2.15,1.51-.51,3.87.11,5.54-.1v25.46ZM418,295.44c-7.01,1.53-5.55,14.25,1.96,13.86,9.26-.49,7.99-16.03-1.96-13.86Z"/>
        <path class="cls-1" d="M168.58,314.76c-1.88-.28-4.56.43-6.25,0-.6-.15-.45-1.53-.87-1.52-1.03.01-3.11,1.97-5.32,2.23-16.9,1.94-18.83-29.44,1.54-26.11,1.68.27,3.96,2.35,4.15,2.2.11-.08,0-1.73,1.22-2.15,1.51-.51,3.87.11,5.54-.1v25.46ZM154.13,295.44c-6.82,1.49-5.54,14.25,1.96,13.86,9.47-.49,7.91-16.01-1.96-13.86Z"/>
        <path class="cls-1" d="M1006.67,304.28c1.62,3.76,4.14,5.84,8.44,5.08,3.56-.63,3.98-3.71,8.32-.48,2.82,2.1-1.28,4.36-3.49,5.28-12.61,5.22-24.01-5.79-18.33-18.31,4.09-9.03,19.51-9.09,23.61.01.58,1.28,2.88,8.42.57,8.42h-19.12ZM1019.41,299.04c-1.37-5.84-10.63-5.83-11.99,0h11.99Z"/>
        <path class="cls-1" d="M105.61,304.28c1.62,3.76,4.14,5.84,8.44,5.08,3.56-.63,3.98-3.71,8.32-.48,2.98,2.22-1.83,4.67-4.03,5.48-22.05,8.12-27.42-27.14-4.06-25.1,4.8.42,8.51,3.29,10.23,7.75.48,1.25,2.44,7.26.22,7.26h-19.12ZM118.35,299.04c-1.37-5.84-10.63-5.83-11.99,0h11.99Z"/>
        <path class="cls-1" d="M608.61,304.28h-19.49c-.36,2.62,2.17,4.42,4.46,4.94,5.24,1.18,8.45-4.64,13.52.68-6.67,9.17-23.45,6.78-24.72-5.24-2.23-21.04,27.93-20.53,26.23-.38ZM601.87,299.04c-2.34-5.91-10.41-5.91-12.74,0h12.74Z"/>
        <path class="cls-1" d="M783.28,304.28h-19.49c-.36,2.62,2.17,4.42,4.46,4.94,5.22,1.18,8.24-4.49,13.52.68-6.67,9.17-23.45,6.78-24.72-5.24-2.23-21.04,27.93-20.53,26.23-.38ZM776.53,299.04c-2.34-5.91-10.41-5.91-12.74,0h12.74Z"/>
        <path class="cls-1" d="M518.66,304.28h-20.24c1.62,3.76,4.14,5.84,8.44,5.08,3.56-.63,3.99-3.71,8.32-.48,2.22,1.66.79,2.58-1.07,3.96-7.73,5.74-20.75,2.02-21.72-8.15-2.02-21.1,27.58-20.61,26.27-.41ZM511.16,299.04c-1.7-6.17-10.14-5.78-11.99,0h11.99Z"/>
        <path class="cls-1" d="M50.88,304.28h-19.49c.23,2.57,2.65,4.65,5.06,5.08,5.28.93,8.04-4.8,12.92.53-7.33,10.73-25.32,5.24-24.74-8.19.79-18.28,29.23-15.94,26.26,2.58ZM44.14,299.04c-1.37-5.84-10.63-5.83-11.99,0h11.99Z"/>
        <path class="cls-1" d="M8.15,287.06c-2.41,2.4,8.91,10.19,10.49,12.35,8.85,12.07-8.05,21.92-16.48,12.71-1.3-1.42-3.35-3.75-1.29-5.03,7.07-4.39,4.14.1,7.99,1.36,1.18.39,4.64.32,5.19-.53,2.49-3.93-9.24-10.55-11.3-14.35-6.65-12.27,10.55-18.5,17.34-8.28.15.87-3.58,4.61-4.17,4.71-1.09.19-4.61-4.78-7.77-2.94Z"/>
        <path class="cls-1" d="M911.46,302.2c0,7.32-5.94,13.25-13.27,13.25s-13.27-5.93-13.27-13.25,5.94-13.25,13.27-13.25,13.27,5.93,13.27,13.25ZM896.27,295.44c-7.11,1.55-6,16.56,4.75,13,6.24-2.07,4.34-14.98-4.75-13Z"/>
        <path class="cls-1" d="M375.41,302.25c0,7.31-5.94,13.24-13.26,13.24s-13.26-5.93-13.26-13.24,5.94-13.24,13.26-13.24,13.26,5.93,13.26,13.24ZM360.28,295.44c-7.11,1.55-6,16.56,4.75,13,6.17-2.05,4.24-14.96-4.75-13Z"/>
        <path class="cls-1" d="M870.47,302.24c0,7.3-5.92,13.22-13.23,13.22s-13.23-5.92-13.23-13.22,5.92-13.22,13.23-13.22,13.23,5.92,13.23,13.22ZM855.78,295.44c-6.08,1.34-6.8,11.28-1.33,12.99,12.01,3.77,12.07-15.35,1.33-12.99Z"/>
        <path class="cls-1" d="M613.11,289.3c2.87.49,7.7-1.66,6.75,2.25,3.85-4.73,15.74-1.92,15.74,4.11v19.09h-6.75v-16.1c0-1.66-2.84-3.68-4.83-3.39-1.34.19-4.17,3.18-4.17,4.14v15.35h-6.75v-25.46Z"/>
        <path class="cls-1" d="M379.97,289.3c1.67.21,4.03-.42,5.54.1,1.22.42,1.12,2.07,1.22,2.15.16.13,2.52-1.86,3.51-2.09,4.97-1.14,12.21,1.14,12.21,6.95v18.34h-6.75v-16.1c0-1.66-2.84-3.68-4.83-3.39-1.34.19-4.17,3.18-4.17,4.14v15.35h-6.75v-25.46Z"/>
        <path class="cls-1" d="M817.76,289.3c2.69.4,6.36-1.55,6.38,2.25,3.72-2.64,9.47-3.69,13.14-.42.5.45,2.22,2.67,2.22,3.03v20.59h-6v-13.85c0-.57-1.24-4.48-1.79-4.94-1.89-1.58-5.67-.46-6.65,1.75-.21.47-1.3,5.82-1.3,6.19v10.86h-6v-25.46Z"/>
        <path class="cls-1" d="M812.51,295.29c-1.89-.15-3.39,2.15-4.92,2.28-1.9.17-2.93-1.73-4.6-2.12-11.4-2.7-13.44,14.12-2.21,13.82,4.63-.12,5.77-4.86,9.86-.49,3.38,3.61-5.95,6.57-9.02,6.75-11.8.67-19.54-10.98-12.67-20.93,5.25-7.59,18.86-7.5,23.56.69Z"/>
        <path class="cls-1" d="M665.58,295.28c-5.36,3.84-5.46,1.05-9.54.18-12.07-2.58-12.43,14.86-1.5,13.89,2.12-.19,5.22-2.83,6.03-2.71,1.33.2,4.97,2.77,3.56,4.78-5.03,7.18-20.52,4.7-23.46-4.35-5.39-16.57,16.59-24.7,24.91-11.8Z"/>
        <path class="cls-1" d="M64.17,289.47c4.1-.85,9.24-.42,12.75,1.9,2,1.31,4.43,2.71,1.96,4.56-4.43,3.31-4.51.24-7.54-.48-12.17-2.92-13.58,14.5-2.3,13.89,4.74-.25,5.25-5.31,10.71.17-4.42,9.04-19.51,7.31-23.78-.97-3.71-7.18.04-17.39,8.19-19.07Z"/>
        <path class="cls-1" d="M318.31,289.48c4.05-.68,8.72-.62,12.14,1.74,1.94,1.35,4.13,2.98,1.82,4.7-4.43,3.31-4.51.24-7.54-.48-12.24-2.93-13.11,14.47-2.29,13.9,2.3-.12,6.39-2.82,6.83-2.74.24.04,3.75,2.69,3.89,2.9,1.21,1.83-3.08,4.12-4.38,4.66-9.57,3.95-21.09-1.31-20.82-12.5.13-5.46,4.99-11.27,10.36-12.17Z"/>
        <path class="cls-1" d="M754.79,281.07c-.2,1.19.28,6.47,0,6.74s-4.89-.19-6,0v26.95h-6.75v-26.95c-1.11-.19-5.74.27-6,0s.2-5.55,0-6.74h18.74Z"/>
        <path class="cls-1" d="M131.09,295.29c-.48-.46-5.93,1.94-3.65-4.77.63-1.84,3.27-.92,3.62-1.25.38-.36-.22-7.51.02-8.96,10.64-2.65,5.27,7.61,6.74,8.99.28.26,2.74-.27,3.01,0,.22.21.22,5.79,0,6s-2.3-.13-3.01,0v18.34c0,1.56-5.5,1.12-6.75,1.12-.53-2.53.7-18.79,0-19.47Z"/>
        <rect class="cls-1" x="437.7" y="280.32" width="6.75" height="34.44"/>
        <path class="cls-1" d="M880.73,280.32v34.44c-1.25,0-6.75.44-6.75-1.12v-33.32h6.75Z"/>
        <path class="cls-1" d="M83.87,290.43c.47-1.52,7.09-2.41,6.37,1.12,1.79-2.69,4.18-2.41,7.13-2.24.54.53-1.11,5.55-1.63,5.85-1.07.62-5.12-.6-5.12,3.5v16.1h-6.75v-24.33Z"/>
        <path class="cls-1" d="M173.07,290.43c.63-2.03,6.23-1.6,6.37,1.12,1.79-2.69,4.18-2.41,7.13-2.24.54.53-1.11,5.55-1.63,5.85-1.07.62-5.12-.6-5.12,3.5v16.1h-6.75v-24.33Z"/>
        <rect class="cls-1" x="188.82" y="289.3" width="6.75" height="25.46"/>
        <path class="cls-1" d="M676.83,314.76h-6.75v-25.46c1.25,0,6.75-.44,6.75,1.12v24.33Z"/>
        <path class="cls-1" d="M952.69,314.76h-6.75v-25.46c1.25,0,6.75-.44,6.75,1.12v24.33Z"/>
        <path class="cls-1" d="M577.88,289.3v25.46c-1.66-.19-5.49.62-6.42-.7-.68-.97-.71-22.04-.22-23.53.68-2.08,4.81-1.01,6.64-1.23Z"/>
        <path class="cls-1" d="M344.74,289.3v25.46c-1.66-.19-5.49.62-6.42-.7-.68-.97-.71-22.04-.22-23.53.68-2.08,4.81-1.01,6.64-1.23Z"/>
        <path class="cls-1" d="M200.06,276.58c.78.69-6.72,8.24-7.51,8.59-1.66.75-3.51.33-5.23.38,1.18-1.39,4.31-8.05,5.24-8.61,1.64-1.01,5.48-.05,7.5-.36Z"/>
        <path class="cls-1" d="M957.19,276.58c-2.82,4.31-6.82,10.29-12.74,8.97,1.18-1.39,4.31-8.05,5.24-8.61,1.64-1.01,5.49-.06,7.51-.36Z"/>
        <ellipse class="cls-1" cx="574.88" cy="283.69" rx="4.31" ry="4.31"/>
        <ellipse class="cls-1" cx="341.71" cy="283.7" rx="4.3" ry="4.29"/>
        <g>
          <path class="cls-1" d="M1193.33,314.76c-1.88-.28-4.56.43-6.25,0-.6-.15-.45-1.53-.87-1.52-1.12.02-3.33,2.16-6.02,2.3-17.29.94-17.26-31.01,3.28-25.74.97.25,2.96,1.87,3.1,1.75.11-.08,0-1.73,1.22-2.15,1.51-.51,3.87.11,5.54-.1v25.46ZM1176.3,307.8c7.44,6.34,15.86-7.34,7.56-11.66s-12.74,7.26-7.56,11.66Z"/>
          <path class="cls-1" d="M1265.35,302.24c0,7.31-5.93,13.24-13.25,13.24s-13.25-5.93-13.25-13.24,5.93-13.24,13.25-13.24,13.25,5.93,13.25,13.24ZM1258.89,302.17c0-3.72-3.02-6.74-6.75-6.74s-6.75,3.02-6.75,6.74,3.02,6.74,6.75,6.74,6.75-3.02,6.75-6.74Z"/>
          <path class="cls-1" d="M1138.04,302.22c0,7.3-5.92,13.21-13.23,13.21s-13.23-5.91-13.23-13.21,5.92-13.21,13.23-13.21,13.23,5.91,13.23,13.21ZM1123.4,295.44c-5.92,1.3-7.12,11.18-1.33,12.99,12.01,3.76,12.07-15.35,1.33-12.99Z"/>
          <path class="cls-1" d="M1056.89,290.43c.46-1.5,7.87-2.48,7.12,1.12,3.21-2.85,9.91-3.29,13.08-.33.45.42,2.29,3.49,2.29,3.7v19.84h-6.75v-16.85c0-4.44-9-2.98-9,2.25v14.6h-6.75v-24.33Z"/>
          <path class="cls-1" d="M1269.79,289.3c2.7.51,7.69-1.69,6.75,2.25,4.15-4.34,15.74-2.14,15.74,4.11v19.09h-6.75v-16.85c0-4.22-9-2.66-9,1.5v15.35h-6.75v-25.46Z"/>
          <path class="cls-1" d="M1084.63,290.43c.42-1.35,5.14-1.49,6.34-1.17,1.01.27-.41,2.95,1.52,2.29.69-.24,1.55-1.71,3.17-2.08,2.78-.64,6.56-.47,8.85,1.32.61.48,2.61,2.91,2.61,3.38v20.59h-6v-12.35c0-.29-.99-5.36-1.12-5.62-1.12-2.4-5.64-2.08-7.05.47-.37.66-1.58,5.37-1.58,5.91v11.61c-1.25,0-6.75.44-6.75-1.12,0-4.49-.9-20.32,0-23.21Z"/>
          <path class="cls-1" d="M1224.06,295.29c-1.89-.15-3.39,2.15-4.92,2.28-1.9.17-2.93-1.73-4.6-2.12-11.4-2.7-13.44,14.12-2.21,13.82,4.63-.12,5.77-4.86,9.86-.49,2.13,2.28-.24,3.7-2.58,4.91-7.1,3.66-17.06,1.84-20.43-5.89-6.92-15.9,16.09-26.01,24.88-12.5Z"/>
          <path class="cls-1" d="M1146.73,289.43c.86.53,4.49,12.52,5.38,13.35,1.33,1.24,1.25-.48,1.55-1.06.98-1.9,4.37-11.54,5.15-12.07,1.17-.79,6.68-.62,6.76.77-2.15,2.61-9.68,24.04-10.98,24.37-.77.19-2.75.11-3.5-.16-1.95-.69-8.7-20.48-10.86-23.6l-.13-1.73c1.6.32,5.54-.54,6.62.12Z"/>
          <rect class="cls-1" x="1044.15" y="281.07" width="6.75" height="33.69"/>
          <path class="cls-1" d="M1228.56,314.76v-25.46c1.66.19,5.49-.62,6.42.7.68.97.71,22.04.22,23.53-.68,2.08-4.81,1.01-6.64,1.23Z"/>
          <path class="cls-1" d="M1260.04,276.58c.78.69-6.72,8.24-7.51,8.59-1.66.75-3.51.33-5.23.38,3.59-6.11,4.19-10.65,12.74-8.97Z"/>
          <ellipse class="cls-1" cx="1231.65" cy="283.68" rx="4.26" ry="4.26"/>
        </g>
        <ellipse class="cls-1" cx="673.35" cy="283.7" rx="4.23" ry="4.23"/>
        <path class="cls-1" d="M711.34,319.22l3.73-11.2,4.92,2.23c-1.89,3.43-3.77,11.89-8.65,8.97Z"/>
      </g>
    </g>
  </g>
</svg>