<?xml version="1.0" encoding="UTF-8"?>
<svg id="Layer_2" data-name="Layer 2" xmlns="http://www.w3.org/2000/svg" viewBox="0 0 583.16 182.11">
  <defs>
    <style>
      .cls-1 {
        fill-rule: evenodd;
      }

      .cls-1, .cls-2 {
        fill: #fff;
      }
    </style>
  </defs>
  <g id="Capa_1" data-name="Capa 1">
    <g>
      <g>
        <path class="cls-2" d="M250.63,37.56c.38,0,1.74-.06,4.1-.18.05.14.07.31.07.5,0,.36-.05.53-.14.53-.24,0-.66.08-1.27.25-.61.17-.94.33-.99.5-.21.83-.32,1.93-.32,3.3v7.92c0,2.68.57,4.81,1.7,6.4,1.13,1.59,2.73,2.38,4.8,2.38,4.03,0,6.04-2.67,6.04-8v-8.88c0-1.44-.08-2.49-.25-3.13-.07-.19-.48-.37-1.22-.55-.74-.18-1.27-.27-1.57-.27-.09,0-.14-.14-.14-.41s.05-.46.14-.55c.31.02.92.07,1.84.12.92.06,1.7.09,2.33.09s1.38-.04,2.31-.11c.93-.07,1.48-.11,1.64-.11.05.14.07.32.07.53,0,.28-.05.43-.14.43-.24,0-.75.09-1.54.28-.79.19-1.21.37-1.25.53-.19.73-.28,1.84-.28,3.3v8.63c0,3.67-.77,6.22-2.3,7.66s-3.71,2.15-6.54,2.15-4.96-.83-6.46-2.49-2.26-4.33-2.26-8.03v-8.07c0-1.47-.08-2.52-.25-3.16-.07-.19-.41-.36-1.01-.51s-1.05-.23-1.36-.23c-.09,0-.14-.15-.14-.46,0-.28.05-.47.14-.57,2.71.12,4.12.18,4.24.18Z"/>
        <path class="cls-2" d="M300.08,42.29c0-1.44-.08-2.49-.25-3.13-.07-.19-.48-.37-1.22-.55-.74-.18-1.27-.27-1.57-.27-.09,0-.14-.14-.14-.41s.05-.46.14-.55c.31.02.92.07,1.84.12.92.06,1.7.09,2.33.09s1.38-.04,2.31-.11c.93-.07,1.48-.11,1.64-.11.05.14.07.32.07.53,0,.28-.05.43-.14.43-.24,0-.75.09-1.54.28-.79.19-1.21.37-1.25.53-.19.73-.28,1.84-.28,3.3v13.5c0,1.47.04,3.13.11,4.97-.09.09-.32.14-.67.14-.4,0-.79-.27-1.17-.82l-13.71-19.54v15.17c0,1.56.08,2.67.25,3.3.05.17.44.34,1.18.51.74.18,1.23.27,1.47.27.07,0,.11.14.12.43s0,.49-.05.6c-2.36-.12-3.71-.18-4.06-.18l-4.06.18c-.07-.07-.11-.25-.11-.53,0-.33.04-.5.11-.5.33,0,.87-.09,1.61-.27.74-.18,1.15-.37,1.22-.59.23-.62.35-1.73.35-3.34v-13.96c0-1.16-.08-2.05-.25-2.67-.07-.19-.47-.36-1.2-.51-.73-.15-1.26-.23-1.59-.23-.09,0-.14-.15-.14-.44s.05-.49.14-.59c1.84.05,3.04.07,3.6.07,1.22,0,2.17-.02,2.83-.07.87,1.61,4.86,7.41,11.98,17.41.07-.4.11-.89.11-1.46v-11.05Z"/>
        <path class="cls-2" d="M320.31,42.32c0-1.47-.08-2.52-.25-3.16-.07-.19-.41-.36-1.01-.51s-1.05-.23-1.36-.23c-.09,0-.14-.15-.14-.46,0-.28.05-.47.14-.57,2.71.12,4.12.18,4.24.18.38,0,1.74-.06,4.1-.18.05.14.07.32.07.53,0,.33-.05.5-.14.5-.24,0-.66.08-1.27.25-.61.17-.94.33-.99.5-.21.83-.32,1.93-.32,3.3v13.5c0,1.38.11,2.48.32,3.3.05.17.38.33.99.48.61.16,1.04.23,1.27.23.09,0,.14.18.14.53,0,.19-.02.36-.07.5-2.36-.12-3.72-.18-4.1-.18-.12,0-1.53.06-4.24.18-.09-.09-.14-.27-.14-.53,0-.33.05-.5.14-.5.31,0,.76-.07,1.36-.21.6-.14.94-.31,1.01-.5.16-.64.25-1.69.25-3.16v-13.79Z"/>
        <path class="cls-2" d="M342.38,37.56c.57,0,2.03-.06,4.38-.18.05.09.07.29.05.59-.01.3-.05.44-.12.44-.17,0-.39.02-.67.07-.28.05-.59.17-.92.36s-.49.44-.49.75c0,.69,1.48,4.68,4.45,11.97.64,1.61,1.14,2.87,1.52,3.77.07.12.17.15.3.09.13-.06.22-.15.26-.27l5.3-12.86c.45-1.16.67-1.99.67-2.49,0-.33-.19-.62-.56-.85-.38-.24-.74-.38-1.08-.44-.34-.06-.62-.09-.83-.09-.09,0-.14-.15-.14-.44s.05-.49.14-.59c2.19.12,3.45.18,3.78.18.02,0,1.21-.06,3.57-.18.05.14.07.32.07.53,0,.33-.05.5-.14.5-1.06,0-1.77.33-2.12,1-.54,1-1.12,2.21-1.73,3.66l-7.07,16.98c-.31.78-.72,1.17-1.24,1.17-.17,0-.28-.07-.35-.21l-7.24-18.37c-.59-1.56-1.12-2.7-1.59-3.41-.17-.26-.51-.46-1.02-.6-.52-.14-.93-.21-1.24-.21-.09,0-.14-.15-.14-.46,0-.28.05-.47.14-.57.38.02.82.05,1.34.07.52.02.98.05,1.39.07.41.02.85.04,1.33.04Z"/>
        <path class="cls-2" d="M378.12,37.6c1.06,0,2.9-.05,5.51-.14s4.58-.14,5.9-.14c.09.69.28,1.59.55,2.72.27,1.12.43,1.83.48,2.11-.12.12-.33.18-.64.18s-.47-.08-.5-.25c-.35-1.3-.85-2.14-1.48-2.5s-1.51-.55-2.61-.55h-2.37c-2.03,0-3.06.15-3.11.46-.12.57-.18,1.56-.18,2.98v5.69c0,.14.51.21,1.52.21h3.3c.29,0,.61-.05.94-.14.33-.09.54-.15.64-.18.09-.02.22-.18.37-.46.15-.28.24-.49.26-.62s.11-.47.25-1.01c.02-.17.2-.25.53-.25.28,0,.48.06.6.18v6.72c-.09.09-.28.14-.57.14-.31,0-.49-.09-.57-.28-.17-.64-.31-1.12-.42-1.44-.12-.32-.21-.51-.26-.57-.06-.06-.16-.14-.3-.23-.31-.19-1.55-.28-3.74-.28-1.7,0-2.54.11-2.54.32v5.51c0,1.54.11,2.62.32,3.23.07.24.87.36,2.4.36h1.7c2.19,0,3.67-.2,4.45-.6.35-.19.75-.61,1.18-1.26.44-.65.78-1.43,1.04-2.33.05-.14.21-.21.49-.21.45,0,.74.07.88.21-.12.31-.3.8-.55,1.47-.25.67-.44,1.22-.58,1.63-.14.42-.29.89-.46,1.44-.17.54-.27,1-.32,1.35-1.2,0-3.1-.02-5.69-.07-2.59-.05-4.71-.07-6.36-.07l-4.27.11c-.07-.07-.11-.26-.11-.57s.04-.46.11-.46c.31,0,.76-.08,1.36-.25.6-.17.96-.36,1.08-.57.16-.28.25-1.4.25-3.34v-13.43c0-1.4-.08-2.42-.25-3.06-.07-.19-.42-.37-1.04-.53-.62-.17-1.09-.25-1.4-.25-.09,0-.14-.14-.14-.43,0-.31.05-.51.14-.6,1.22.05,2.63.07,4.2.07Z"/>
        <path class="cls-2" d="M413.75,37.46c.8,0,1.61.12,2.44.35.82.24,1.64.59,2.44,1.07.8.47,1.46,1.15,1.98,2.03.52.88.78,1.9.78,3.06,0,1-.37,2.04-1.11,3.13-.74,1.09-1.75,1.93-3.02,2.52-.24.1-.31.21-.21.36,1.18,2.49,2.53,4.57,4.06,6.25,2.26,2.49,4.1,3.73,5.51,3.73.07.14.11.31.11.5,0,.21-.04.39-.11.53-.26.07-.58.11-.95.11-3.3,0-6.16-1.71-8.58-5.12-.38-.52-.81-1.14-1.29-1.87-.48-.72-.84-1.24-1.06-1.56-.22-.32-.48-.67-.78-1.05-.29-.38-.55-.66-.78-.85s-.46-.34-.72-.46c-.26-.09-.7-.14-1.31-.14-.19,0-.33,0-.42.02-.09.01-.19.07-.28.16-.09.09-.14.24-.14.43v5.22c0,1.59.09,2.62.28,3.09.12.31.54.56,1.25.75.72.19,1.23.28,1.54.28.09,0,.14.17.14.5,0,.21-.02.39-.07.53-2.35-.12-3.89-.18-4.59-.18l-4.31.18c-.07-.07-.11-.28-.11-.64,0-.31.04-.46.11-.46.33,0,.79-.07,1.38-.21.59-.14.94-.32,1.06-.53.16-.28.25-1.4.25-3.34v-13.43c0-1.4-.08-2.42-.25-3.06-.07-.19-.42-.37-1.04-.53-.62-.17-1.09-.25-1.39-.25-.09,0-.14-.14-.14-.43,0-.31.05-.51.14-.6l4.24.07c.71,0,1.54-.02,2.51-.07.96-.05,1.79-.07,2.47-.07ZM413.19,39.02c-1.06,0-1.88.08-2.47.25-.09.02-.17.11-.23.27-.06.15-.11.51-.14,1.07s-.05,1.42-.05,2.58v4.3c0,.69,1.02,1.03,3.07,1.03h.88c.82,0,1.68-.41,2.56-1.24s1.33-1.93,1.33-3.3c0-3.29-1.65-4.94-4.95-4.94Z"/>
        <path class="cls-2" d="M438.65,43.5c0-1.82.69-3.32,2.08-4.5,1.39-1.17,3-1.76,4.84-1.76.52,0,1.01.03,1.47.09.46.06.83.12,1.13.2.29.07.72.18,1.27.34.55.15,1.04.28,1.47.37.28,1.26.42,2.95.42,5.08,0,.17-.12.25-.35.25-.57,0-.87-.12-.92-.36-.12-1.04-.62-2.05-1.5-3.04-.88-.98-1.96-1.47-3.23-1.47-1.41,0-2.41.36-2.98,1.07-.58.71-.87,1.59-.87,2.63,0,.45.08.88.25,1.3.16.42.33.76.49,1.03.16.27.46.59.9.94s.75.6.95.75c.2.14.6.4,1.2.78.6.38.98.62,1.15.71.12.07.53.33,1.24.76.71.44,1.19.75,1.45.92.26.18.67.5,1.22.96.55.46.95.87,1.2,1.23s.48.8.71,1.33c.22.53.34,1.08.34,1.65,0,1.9-.74,3.45-2.21,4.67-1.47,1.22-3.2,1.83-5.17,1.83-.57,0-1.17-.04-1.8-.12-.64-.08-1.17-.17-1.59-.25s-.96-.2-1.61-.36c-.65-.15-1.1-.25-1.36-.3-.59-2.91-.88-4.8-.88-5.65,0-.14.19-.21.57-.21.42,0,.72.11.88.32.8,3.41,2.76,5.12,5.86,5.12,1.18,0,2.18-.36,3-1.07.82-.71,1.24-1.72,1.24-3.02,0-.47-.07-.91-.21-1.32-.14-.4-.29-.73-.44-.99-.15-.26-.42-.54-.81-.83-.39-.3-.69-.52-.9-.66-.21-.14-.6-.37-1.17-.67-.56-.31-.95-.52-1.17-.64-.68-.4-1.16-.69-1.43-.85-.27-.17-.72-.46-1.34-.87-.62-.42-1.08-.78-1.36-1.1-.28-.32-.61-.71-.99-1.17s-.64-.95-.79-1.47c-.15-.52-.23-1.07-.23-1.63Z"/>
        <path class="cls-2" d="M468.06,42.32c0-1.47-.08-2.52-.25-3.16-.07-.19-.41-.36-1.01-.51s-1.05-.23-1.36-.23c-.09,0-.14-.15-.14-.46,0-.28.05-.47.14-.57,2.71.12,4.12.18,4.24.18.38,0,1.74-.06,4.1-.18.05.14.07.32.07.53,0,.33-.05.5-.14.5-.24,0-.66.08-1.27.25s-.94.33-.99.5c-.21.83-.32,1.93-.32,3.3v13.5c0,1.38.11,2.48.32,3.3.05.17.38.33.99.48.61.16,1.04.23,1.27.23.09,0,.14.18.14.53,0,.19-.02.36-.07.5-2.36-.12-3.72-.18-4.1-.18-.12,0-1.53.06-4.24.18-.09-.09-.14-.27-.14-.53,0-.33.05-.5.14-.5.31,0,.76-.07,1.36-.21.6-.14.94-.31,1.01-.5.17-.64.25-1.69.25-3.16v-13.79Z"/>
        <path class="cls-2" d="M490.88,37.6c.89,0,2.03-.01,3.41-.04,1.38-.02,2.29-.04,2.74-.04,3.84,0,6.83,1.14,8.97,3.41,2.14,2.27,3.21,4.95,3.21,8.03,0,3.43-1.08,6.3-3.25,8.6-2.17,2.3-5.16,3.45-8.97,3.45-.28,0-1.12-.02-2.53-.07-1.4-.05-2.57-.06-3.51-.04l-4.27.11c-.07-.07-.11-.25-.11-.53,0-.33.04-.5.11-.5.31,0,.76-.08,1.36-.25.6-.17.96-.36,1.08-.57.16-.28.25-1.4.25-3.34v-13.43c0-1.4-.08-2.42-.25-3.06-.07-.19-.42-.37-1.04-.53-.62-.17-1.09-.25-1.4-.25-.09,0-.14-.14-.14-.43,0-.31.05-.51.14-.6,1.22.05,2.63.07,4.2.07ZM492.43,41.9v14.07c0,1,.18,1.9.53,2.7.09.24.72.41,1.89.53,1.17.12,2.07.18,2.7.18,5.42,0,8.12-3.52,8.12-10.55,0-2.7-.71-5-2.14-6.89-1.42-1.89-3.5-2.84-6.24-2.84h-.18c-2.54,0-3.96.19-4.24.57-.31.43-.46,1.17-.46,2.24Z"/>
        <path class="cls-2" d="M533.86,37.46l7.06,18.76c.42,1.11.77,1.97,1.02,2.56.14.36.51.65,1.1.87.59.23,1.02.34,1.31.34.09,0,.14.23.14.67,0,.1-.02.21-.07.36-2.36-.12-3.65-.18-3.89-.18-.02,0-1.39.06-4.1.18-.09-.09-.14-.29-.12-.59.01-.3.06-.44.16-.44.28,0,.64-.06,1.06-.18.42-.12.67-.27.74-.46.05-.19.07-.38.07-.57,0-.31-.04-.67-.12-1.08-.08-.41-.16-.74-.23-.98l-.14-.39-1.45-4.01c-.07-.09-.14-.14-.21-.14-.92-.07-1.81-.11-2.68-.11-1.22,0-2.72.06-4.49.18l-.18.11-1.52,3.91c-.4,1.18-.6,2-.6,2.45,0,.33.09.57.28.71.21.17.55.3,1.02.41.47.11.81.16,1.02.16.07,0,.11.14.12.43s0,.49-.05.6c-2.36-.12-3.57-.18-3.64-.18-.47,0-.88.01-1.24.04s-.75.05-1.18.07-.85.05-1.25.07c-.09-.09-.14-.27-.14-.53,0-.33.05-.5.14-.5.28,0,.65-.06,1.1-.18.45-.12.75-.28.92-.5.5-.64,1.05-1.75,1.66-3.34l6.15-15.88c.05-.12.11-.31.19-.57.08-.26.15-.46.19-.59.05-.13.12-.3.21-.5.09-.2.18-.35.25-.44.07-.09.16-.2.26-.32.11-.12.22-.2.35-.25.13-.05.28-.07.44-.07l.32.11ZM529.76,50.28c1.22.05,2.06.07,2.51.07,1.04,0,2.11-.04,3.21-.11l.11-.18-2.86-7.85-3.04,7.92c0,.09.02.14.07.14Z"/>
        <path class="cls-2" d="M560.8,37.6c.9,0,2.03-.01,3.41-.04s2.29-.04,2.74-.04c3.84,0,6.83,1.14,8.97,3.41,2.14,2.27,3.21,4.95,3.21,8.03,0,3.43-1.08,6.3-3.25,8.6-2.17,2.3-5.16,3.45-8.97,3.45-.28,0-1.12-.02-2.53-.07-1.4-.05-2.57-.06-3.51-.04l-4.27.11c-.07-.07-.11-.25-.11-.53,0-.33.04-.5.11-.5.31,0,.76-.08,1.36-.25.6-.17.96-.36,1.08-.57.16-.28.25-1.4.25-3.34v-13.43c0-1.4-.08-2.42-.25-3.06-.07-.19-.42-.37-1.04-.53-.62-.17-1.09-.25-1.39-.25-.09,0-.14-.14-.14-.43,0-.31.05-.51.14-.6,1.22.05,2.62.07,4.2.07ZM562.36,41.9v14.07c0,1,.18,1.9.53,2.7.09.24.72.41,1.89.53,1.17.12,2.07.18,2.7.18,5.42,0,8.12-3.52,8.12-10.55,0-2.7-.71-5-2.14-6.89-1.43-1.89-3.5-2.84-6.24-2.84h-.18c-2.54,0-3.96.19-4.24.57-.31.43-.46,1.17-.46,2.24Z"/>
        <path class="cls-2" d="M256.28,73.92c2.3.07,4.18.1,5.66.1s3.37-.03,5.69-.1c2.31-.07,4.11-.1,5.38-.1.84,0,2-.19,3.47-.56l.96,7.24c-.23.24-.64.35-1.21.35-.3,0-.47-.08-.5-.25-.47-1.89-1.05-3.11-1.74-3.67s-1.99-.83-3.9-.83c-3.56,0-5.4.25-5.53.76-.3,1.08-.45,2.77-.45,5.06v18.27c0,1.96.15,3.53.45,4.71.07.24.54.46,1.41.68.87.22,1.48.33,1.81.33.13,0,.2.25.2.76,0,.27-.03.51-.1.71-3.35-.17-5.3-.25-5.84-.25-.17,0-2.18.08-6.04.25-.13-.13-.2-.39-.2-.76,0-.47.07-.71.2-.71.44,0,1.08-.1,1.94-.3.86-.2,1.33-.44,1.43-.71.23-.91.35-2.41.35-4.5v-18.32c0-2.94-.15-4.67-.45-5.21-.27-.51-2.08-.76-5.43-.76-1.91,0-3.21.28-3.9.83s-1.27,1.78-1.74,3.67c-.03.17-.2.25-.5.25-.57,0-.97-.12-1.21-.35l.96-7.24c1.48.37,2.63.56,3.47.56,1.27,0,3.06.03,5.36.1Z"/>
        <path class="cls-2" d="M285,74.02c1.51,0,4.13-.07,7.85-.2,3.72-.13,6.52-.2,8.4-.2.13.98.39,2.27.78,3.87.38,1.6.61,2.61.68,3.01-.17.17-.47.25-.91.25s-.67-.12-.71-.35c-.5-1.86-1.21-3.04-2.11-3.57-.91-.52-2.15-.78-3.72-.78h-3.37c-2.88,0-4.36.22-4.43.66-.17.81-.25,2.23-.25,4.25v8.1c0,.2.72.3,2.16.3h4.7c.42,0,.86-.07,1.33-.2.47-.13.77-.22.91-.25.13-.03.31-.25.53-.66.22-.41.34-.7.38-.89.03-.18.15-.67.35-1.44.03-.24.28-.35.75-.35.4,0,.69.08.86.25v9.57c-.13.13-.4.2-.81.2-.44,0-.7-.13-.8-.41-.24-.91-.44-1.59-.6-2.05-.17-.46-.29-.73-.38-.81s-.23-.19-.43-.33c-.44-.27-2.21-.41-5.33-.41-2.42,0-3.62.15-3.62.46v7.84c0,2.19.15,3.73.45,4.61.1.34,1.24.51,3.42.51h2.42c3.12,0,5.23-.29,6.34-.86.5-.27,1.06-.87,1.69-1.8.62-.93,1.12-2.03,1.48-3.31.07-.2.3-.3.71-.3.64,0,1.06.1,1.26.3-.17.44-.43,1.14-.78,2.1-.35.96-.63,1.74-.83,2.33-.2.59-.42,1.27-.65,2.05-.24.78-.39,1.42-.45,1.92-1.71,0-4.41-.03-8.1-.1-3.69-.07-6.71-.1-9.06-.1l-6.09.15c-.1-.1-.15-.37-.15-.81s.05-.66.15-.66c.44,0,1.08-.12,1.94-.35.86-.24,1.37-.51,1.54-.81.23-.41.35-1.99.35-4.76v-19.13c0-1.99-.12-3.44-.35-4.35-.1-.27-.6-.52-1.48-.76-.89-.24-1.55-.35-1.99-.35-.13,0-.2-.2-.2-.61,0-.44.07-.72.2-.86,1.74.07,3.74.1,5.99.1Z"/>
        <path class="cls-2" d="M336.59,97.96c0,.37-.23,1.66-.7,3.87-.47,2.21-.8,3.37-1.01,3.47-2.45,1.48-6.46,2.23-12.03,2.23-4.43,0-8.19-1.64-11.29-4.91-3.1-3.27-4.65-7.17-4.65-11.69,0-4.79,1.59-8.9,4.78-12.32,3.19-3.42,7.09-5.14,11.72-5.14,3.96,0,8.03.42,12.23,1.27-.07,4.52-.1,6.95-.1,7.29,0,.51-.35.76-1.06.76-.33,0-.55-.08-.65-.25-.1-.44-.23-.89-.38-1.34-.15-.46-.47-1.05-.96-1.77-.49-.72-1.07-1.35-1.76-1.87s-1.66-.98-2.92-1.37c-1.26-.39-2.68-.58-4.25-.58-3.29,0-6.09,1.46-8.4,4.38-2.31,2.92-3.47,6.22-3.47,9.89,0,2.73.47,5.25,1.41,7.54.94,2.29,2.42,4.19,4.45,5.69,2.03,1.5,4.44,2.25,7.22,2.25,3.32,0,5.89-.98,7.7-2.94.47-.51.88-1.17,1.23-2,.35-.83.62-1.52.8-2.08s.33-.83.43-.83c.2,0,.44.03.73.1.29.07.51.13.68.2l.25.15Z"/>
        <path class="cls-2" d="M364.03,80.7c0-2.06-.12-3.54-.35-4.45-.1-.27-.68-.53-1.74-.78s-1.8-.38-2.24-.38c-.13,0-.2-.19-.2-.58s.07-.65.2-.78c.44.03,1.31.09,2.62.18,1.31.08,2.42.13,3.32.13s1.97-.05,3.29-.15c1.33-.1,2.1-.15,2.34-.15.07.2.1.46.1.76,0,.41-.07.61-.2.61-.34,0-1.07.14-2.19.41-1.12.27-1.72.52-1.79.76-.27,1.05-.4,2.62-.4,4.71v19.23c0,2.09.05,4.45.15,7.08-.13.13-.45.2-.96.2-.57,0-1.12-.39-1.66-1.16l-19.52-27.83v21.61c0,2.23.12,3.8.35,4.71.07.24.63.48,1.69.73s1.75.38,2.09.38c.1,0,.16.2.18.61.02.41,0,.69-.08.86-3.35-.17-5.28-.25-5.79-.25l-5.79.25c-.1-.1-.15-.35-.15-.76,0-.47.05-.71.15-.71.47,0,1.23-.13,2.29-.38s1.64-.53,1.74-.83c.33-.88.5-2.46.5-4.76v-19.89c0-1.65-.12-2.92-.35-3.8-.1-.27-.67-.51-1.71-.73-1.04-.22-1.79-.33-2.26-.33-.13,0-.2-.21-.2-.63s.07-.7.2-.83c2.62.07,4.33.1,5.13.1,1.74,0,3.09-.03,4.03-.1,1.24,2.29,6.93,10.56,17.06,24.8.1-.57.15-1.27.15-2.08v-15.74Z"/>
        <path class="cls-2" d="M378.11,102.71c-3.14-3.34-4.7-7.37-4.7-12.09s1.57-8.76,4.7-12.12c3.14-3.36,6.92-5.04,11.35-5.04s8.22,1.68,11.37,5.04c3.15,3.36,4.73,7.4,4.73,12.12s-1.58,8.75-4.73,12.09c-3.15,3.34-6.94,5.01-11.37,5.01s-8.21-1.67-11.35-5.01ZM388.7,75.59c-3.19,0-5.7,1.4-7.55,4.2s-2.77,6.04-2.77,9.72c0,2.7.44,5.25,1.31,7.64s2.23,4.39,4.08,6c1.84,1.6,4.01,2.4,6.49,2.4,2.15,0,4.02-.7,5.63-2.1,1.61-1.4,2.79-3.14,3.55-5.21.75-2.08,1.13-4.29,1.13-6.66,0-2.7-.44-5.24-1.31-7.62-.87-2.38-2.23-4.37-4.08-5.97-1.85-1.6-4.01-2.4-6.49-2.4Z"/>
        <path class="cls-2" d="M414.53,74.02c.67,0,1.32-.02,1.96-.05.64-.03,1.32-.08,2.06-.13.74-.05,1.34-.09,1.81-.13.07.2.1.46.1.76,0,.47-.07.71-.2.71-.34,0-.94.12-1.81.35s-1.34.47-1.41.71c-.3,1.18-.45,2.75-.45,4.71v19.08c0,1.79.15,3.27.45,4.45.1.34,1.24.51,3.42.51h2.42c3.12,0,5.23-.29,6.34-.86.5-.27,1.06-.87,1.68-1.8.62-.93,1.12-2.03,1.48-3.31.07-.2.3-.3.71-.3.64,0,1.06.1,1.26.3-.17.44-.43,1.14-.78,2.1-.35.96-.63,1.74-.83,2.33-.2.59-.42,1.27-.65,2.05-.23.78-.39,1.42-.45,1.92-1.75,0-4.47-.05-8.18-.15-3.71-.1-6.7-.15-8.98-.15l-6.09.15c-.1-.1-.15-.37-.15-.81s.05-.66.15-.66c.47,0,1.12-.1,1.96-.3.84-.2,1.34-.46,1.51-.76.23-.41.35-1.99.35-4.76v-19.13c0-2.16-.12-3.69-.35-4.61-.1-.27-.58-.51-1.43-.73-.86-.22-1.5-.33-1.94-.33-.13,0-.2-.22-.2-.66,0-.4.07-.67.2-.81.44.03,1.33.09,2.67.18,1.34.08,2.46.13,3.37.13Z"/>
        <path class="cls-2" d="M440.53,102.71c-3.14-3.34-4.7-7.37-4.7-12.09s1.57-8.76,4.7-12.12c3.14-3.36,6.92-5.04,11.35-5.04s8.22,1.68,11.37,5.04c3.15,3.36,4.73,7.4,4.73,12.12s-1.58,8.75-4.73,12.09c-3.15,3.34-6.94,5.01-11.37,5.01s-8.21-1.67-11.35-5.01ZM451.12,75.59c-3.19,0-5.7,1.4-7.55,4.2-1.85,2.8-2.77,6.04-2.77,9.72,0,2.7.44,5.25,1.31,7.64.87,2.4,2.23,4.39,4.08,6,1.84,1.6,4.01,2.4,6.49,2.4,2.15,0,4.03-.7,5.63-2.1,1.61-1.4,2.79-3.14,3.55-5.21.75-2.08,1.13-4.29,1.13-6.66,0-2.7-.44-5.24-1.31-7.62s-2.23-4.37-4.08-5.97c-1.84-1.6-4.01-2.4-6.49-2.4ZM449.01,69.72c0-.24.77-1.11,2.31-2.63,1.54-1.52,2.77-2.61,3.67-3.29.2-.1.5-.15.91-.15.87,0,1.53.16,1.96.48.44.32.65.67.65,1.04,0,.78-1.34,1.84-4.02,3.19-2.68,1.35-4.34,2.02-4.98,2.02-.34,0-.5-.22-.5-.66Z"/>
        <path class="cls-2" d="M471.06,90.92c0-4.79,1.59-8.9,4.78-12.32,3.19-3.42,7.09-5.14,11.72-5.14,2.38,0,6.36.76,11.92,2.28.13,3.85.2,5.94.2,6.28,0,.51-.35.76-1.06.76-.33,0-.55-.08-.65-.25-.91-4.62-4.33-6.93-10.26-6.93-3.35,0-6.16,1.43-8.4,4.3-2.25,2.87-3.37,6.33-3.37,10.38,0,3.75,1.23,7.19,3.7,10.35,2.47,3.16,5.56,4.73,9.28,4.73,2.95,0,5.13-.37,6.54-1.11.23-.1.35-.35.35-.76l-.05-4.15v-.35c0-2.19-.13-3.64-.4-4.35-.13-.34-.68-.61-1.64-.81-.96-.2-1.7-.3-2.24-.3-.13,0-.2-.21-.2-.63s.07-.7.2-.83c4.29.17,6.49.25,6.59.25.27,0,2.08-.08,5.43-.25.07.2.1.44.1.71,0,.51-.07.76-.2.76-.2,0-.66.11-1.38.33-.72.22-1.23.41-1.53.58-.34.24-.5,1.37-.5,3.39,0,.71.03,1.48.08,2.3.05.83.08,1.27.08,1.34,0,.61.12,1.2.35,1.77.23.57.35.91.35,1.01,0,.27-.42.57-1.26.91-.07.03-.39.16-.98.38-.59.22-.96.36-1.13.43-.17.07-.54.2-1.13.38-.59.19-1.06.31-1.41.38-.35.07-.86.17-1.51.3s-1.28.23-1.86.28c-.59.05-1.28.1-2.06.15s-1.62.08-2.49.08c-4.43,0-8.19-1.64-11.29-4.91-3.1-3.27-4.65-7.17-4.65-11.69Z"/>
        <path class="cls-2" d="M509.27,80.75c0-2.09-.12-3.59-.35-4.5-.1-.27-.58-.51-1.43-.73s-1.5-.33-1.94-.33c-.13,0-.2-.22-.2-.66,0-.4.07-.67.2-.81,3.86.17,5.87.25,6.04.25.54,0,2.48-.08,5.84-.25.07.2.1.46.1.76,0,.47-.07.71-.2.71-.34,0-.94.12-1.81.35s-1.34.47-1.41.71c-.3,1.18-.45,2.75-.45,4.71v19.23c0,1.96.15,3.53.45,4.71.07.24.54.46,1.41.68.87.22,1.48.33,1.81.33.13,0,.2.25.2.76,0,.27-.03.51-.1.71-3.35-.17-5.3-.25-5.84-.25-.17,0-2.18.08-6.04.25-.13-.13-.2-.39-.2-.76,0-.47.07-.71.2-.71.44,0,1.08-.1,1.94-.3.86-.2,1.33-.44,1.43-.71.23-.91.35-2.41.35-4.5v-19.64Z"/>
        <path class="cls-2" d="M549.94,97.96c0,.37-.24,1.66-.71,3.87-.47,2.21-.8,3.37-1.01,3.47-2.45,1.48-6.46,2.23-12.03,2.23-4.43,0-8.19-1.64-11.29-4.91-3.1-3.27-4.65-7.17-4.65-11.69,0-4.79,1.59-8.9,4.78-12.32,3.19-3.42,7.1-5.14,11.72-5.14,3.96,0,8.03.42,12.22,1.27-.07,4.52-.1,6.95-.1,7.29,0,.51-.35.76-1.06.76-.34,0-.55-.08-.65-.25-.1-.44-.23-.89-.38-1.34-.15-.46-.47-1.05-.96-1.77-.49-.72-1.07-1.35-1.76-1.87-.69-.52-1.66-.98-2.92-1.37-1.26-.39-2.68-.58-4.25-.58-3.29,0-6.09,1.46-8.4,4.38-2.31,2.92-3.47,6.22-3.47,9.89,0,2.73.47,5.25,1.41,7.54.94,2.29,2.42,4.19,4.45,5.69s4.44,2.25,7.22,2.25c3.32,0,5.89-.98,7.7-2.94.47-.51.88-1.17,1.23-2,.35-.83.62-1.52.8-2.08.18-.56.33-.83.43-.83.2,0,.44.03.73.1.29.07.51.13.68.2l.25.15Z"/>
        <path class="cls-2" d="M568.02,73.82l10.06,26.72c.6,1.59,1.09,2.8,1.46,3.64.2.51.72.92,1.56,1.24.84.32,1.46.48,1.86.48.13,0,.2.32.2.96,0,.14-.03.3-.1.51-3.35-.17-5.2-.25-5.54-.25-.03,0-1.98.08-5.84.25-.13-.13-.19-.41-.18-.83.02-.42.09-.63.23-.63.4,0,.91-.08,1.51-.25s.96-.39,1.06-.66c.07-.27.1-.54.1-.81,0-.44-.06-.95-.18-1.54-.12-.59-.23-1.05-.33-1.39l-.2-.56-2.06-5.72c-.1-.13-.2-.2-.3-.2-1.31-.1-2.58-.15-3.82-.15-1.75,0-3.87.08-6.39.25l-.25.15-2.16,5.57c-.57,1.69-.86,2.85-.86,3.49,0,.47.13.81.4,1.01.3.24.79.43,1.46.58.67.15,1.16.23,1.46.23.1,0,.16.2.18.61.02.41,0,.69-.08.86-3.35-.17-5.08-.25-5.18-.25-.67,0-1.26.02-1.76.05-.5.03-1.06.07-1.69.1-.62.03-1.22.07-1.79.1-.13-.13-.2-.39-.2-.76,0-.47.07-.71.2-.71.4,0,.92-.08,1.56-.25.64-.17,1.07-.41,1.31-.71.7-.91,1.49-2.5,2.37-4.76l8.75-22.62c.07-.17.16-.44.28-.81.12-.37.21-.65.28-.83.07-.18.17-.42.3-.71.13-.29.25-.5.35-.63.1-.13.23-.29.38-.46.15-.17.32-.29.5-.35.18-.07.39-.1.63-.1l.45.15ZM562.18,92.08c1.74.07,2.93.1,3.57.1,1.48,0,3-.05,4.58-.15l.15-.25-4.08-11.18-4.33,11.29c0,.14.03.2.1.2Z"/>
        <path class="cls-2" d="M250.46,117.69c.87,0,1.97-.01,3.31-.03,1.34-.02,2.22-.03,2.66-.03,3.72,0,6.62,1.1,8.7,3.31s3.12,4.8,3.12,7.79c0,3.33-1.05,6.11-3.15,8.34-2.1,2.23-5,3.34-8.7,3.34-.27,0-1.09-.02-2.45-.07s-2.5-.06-3.41-.03l-4.14.1c-.07-.07-.1-.24-.1-.52,0-.32.04-.48.1-.48.3,0,.74-.08,1.32-.24.58-.16.93-.34,1.04-.55.16-.28.24-1.35.24-3.24v-13.02c0-1.36-.08-2.34-.24-2.96-.07-.18-.41-.36-1.01-.52-.61-.16-1.06-.24-1.35-.24-.09,0-.14-.14-.14-.41,0-.3.05-.49.14-.59,1.19.05,2.55.07,4.08.07ZM251.97,121.86v13.64c0,.96.17,1.84.51,2.62.09.23.7.4,1.83.52,1.13.12,2,.17,2.62.17,5.25,0,7.88-3.41,7.88-10.23,0-2.62-.69-4.85-2.07-6.68s-3.4-2.76-6.05-2.76h-.17c-2.47,0-3.84.18-4.11.55-.3.41-.45,1.14-.45,2.17Z"/>
        <path class="cls-2" d="M275.02,117.69c1.03,0,2.81-.04,5.34-.14,2.53-.09,4.44-.14,5.72-.14.09.67.27,1.54.53,2.64.26,1.09.42,1.77.46,2.05-.11.12-.32.17-.62.17s-.46-.08-.48-.24c-.34-1.26-.82-2.07-1.44-2.43-.62-.36-1.46-.53-2.54-.53h-2.29c-1.96,0-2.97.15-3.01.45-.11.55-.17,1.52-.17,2.89v5.51c0,.14.49.21,1.47.21h3.2c.29,0,.59-.05.91-.14.32-.09.52-.15.62-.17.09-.02.21-.17.36-.45s.23-.48.26-.6c.02-.13.1-.45.24-.98.02-.16.19-.24.51-.24.27,0,.47.06.58.17v6.51c-.09.09-.27.14-.55.14-.3,0-.48-.09-.55-.28-.16-.62-.3-1.09-.41-1.4-.11-.31-.2-.49-.26-.55-.06-.06-.15-.13-.29-.22-.3-.18-1.51-.28-3.63-.28-1.64,0-2.47.1-2.47.31v5.34c0,1.49.1,2.54.31,3.14.07.23.84.34,2.33.34h1.64c2.12,0,3.56-.2,4.32-.59.34-.18.72-.59,1.15-1.22.42-.63.76-1.38,1.01-2.26.05-.14.21-.21.48-.21.43,0,.72.07.86.21-.11.3-.29.78-.53,1.43-.24.66-.43,1.18-.57,1.58-.14.4-.29.87-.45,1.4-.16.53-.26.96-.31,1.31-1.16,0-3-.02-5.51-.07-2.51-.05-4.57-.07-6.17-.07l-4.15.1c-.07-.07-.1-.25-.1-.55s.03-.45.1-.45c.3,0,.74-.08,1.32-.24.58-.16.93-.34,1.04-.55.16-.28.24-1.35.24-3.24v-13.02c0-1.36-.08-2.34-.24-2.96-.07-.18-.41-.36-1.01-.52-.61-.16-1.06-.24-1.35-.24-.09,0-.14-.14-.14-.41,0-.3.05-.49.14-.59,1.19.05,2.55.07,4.08.07Z"/>
        <path class="cls-2" d="M302.84,117.69c.69,0,1.5-.02,2.43-.07.94-.05,1.73-.07,2.4-.07.75,0,1.51.12,2.28.34.76.23,1.51.57,2.23,1.03.72.46,1.31,1.11,1.76,1.96s.69,1.84.69,2.96c0,.67-.14,1.38-.43,2.15-.29.77-.7,1.52-1.25,2.24s-1.28,1.32-2.21,1.79c-.92.47-1.96.71-3.1.71-1.28,0-2.16-.32-2.64-.96-.14-.16-.17-.42-.1-.79.02-.09.06-.13.1-.1.68.25,1.45.38,2.29.38,1.14,0,2.12-.48,2.95-1.45s1.23-2.11,1.23-3.45c0-1.63-.35-2.92-1.06-3.88s-1.8-1.43-3.29-1.43c-1.03,0-1.83.08-2.4.24-.11.02-.19.11-.24.26-.05.15-.09.5-.12,1.05-.03.55-.05,1.38-.05,2.48v12.3c0,1.54.09,2.54.27,3,.11.3.52.54,1.22.72.7.18,1.19.28,1.49.28.09,0,.14.16.14.48,0,.21-.02.38-.07.52-2.28-.12-3.77-.17-4.45-.17l-4.18.17c-.07-.07-.1-.28-.1-.62,0-.3.04-.45.1-.45.32,0,.76-.07,1.34-.21.57-.14.91-.31,1.03-.52.16-.28.24-1.35.24-3.24v-13.02c0-1.36-.08-2.34-.24-2.96-.07-.18-.41-.36-1.01-.52-.61-.16-1.06-.24-1.35-.24-.09,0-.14-.14-.14-.41,0-.3.05-.49.14-.59l4.11.07Z"/>
        <path class="cls-2" d="M328.39,117.55l6.85,18.19c.41,1.08.74,1.91.99,2.48.14.34.49.63,1.06.84.57.22.99.33,1.27.33.09,0,.14.22.14.65,0,.09-.02.21-.07.34-2.28-.12-3.54-.17-3.77-.17-.02,0-1.35.06-3.97.17-.09-.09-.13-.28-.12-.57s.06-.43.15-.43c.27,0,.62-.06,1.03-.17.41-.11.65-.26.72-.45.04-.18.07-.37.07-.55,0-.3-.04-.65-.12-1.05-.08-.4-.15-.72-.22-.95l-.14-.38-1.4-3.89c-.07-.09-.14-.14-.21-.14-.89-.07-1.76-.1-2.6-.1-1.19,0-2.64.06-4.35.17l-.17.1-1.47,3.79c-.39,1.15-.58,1.94-.58,2.38,0,.32.09.55.27.69.21.16.54.29.99.4s.79.16.99.16c.07,0,.11.14.12.41s0,.47-.05.59c-2.28-.12-3.46-.17-3.53-.17-.46,0-.86.01-1.2.04s-.73.05-1.15.07c-.42.02-.83.05-1.22.07-.09-.09-.14-.26-.14-.52,0-.32.05-.48.14-.48.27,0,.63-.06,1.06-.17.43-.11.73-.28.89-.48.48-.62,1.02-1.7,1.61-3.24l5.96-15.4c.05-.11.11-.3.19-.55s.14-.44.19-.57.11-.29.21-.48c.09-.2.17-.34.24-.43s.15-.2.26-.31c.1-.11.22-.2.34-.24.12-.05.27-.07.43-.07l.31.1ZM324.42,129.99c1.19.05,2,.07,2.43.07,1,0,2.04-.03,3.12-.1l.1-.17-2.77-7.62-2.95,7.68c0,.09.02.14.07.14Z"/>
        <path class="cls-2" d="M358.2,122.24c0-1.4-.08-2.41-.24-3.03-.07-.18-.46-.36-1.18-.53s-1.23-.26-1.52-.26c-.09,0-.14-.13-.14-.4s.04-.44.14-.53c.3.02.89.06,1.78.12.89.06,1.64.09,2.26.09s1.34-.03,2.24-.1c.9-.07,1.43-.1,1.59-.1.04.14.07.31.07.52,0,.28-.05.41-.14.41-.23,0-.73.09-1.49.28-.77.18-1.17.36-1.22.52-.18.71-.27,1.78-.27,3.2v13.09c0,1.42.03,3.03.1,4.82-.09.09-.31.14-.65.14-.39,0-.77-.26-1.13-.79l-13.29-18.95v14.71c0,1.52.08,2.58.24,3.2.05.16.43.33,1.15.5.72.17,1.19.26,1.42.26.07,0,.11.14.12.41s0,.47-.05.59c-2.28-.12-3.6-.17-3.94-.17l-3.94.17c-.07-.07-.1-.24-.1-.52,0-.32.03-.48.1-.48.32,0,.84-.09,1.56-.26.72-.17,1.11-.36,1.18-.57.23-.6.34-1.68.34-3.24v-13.54c0-1.12-.08-1.99-.24-2.58-.07-.18-.46-.35-1.17-.5-.71-.15-1.22-.22-1.54-.22-.09,0-.14-.14-.14-.43s.04-.48.14-.57c1.78.05,2.95.07,3.49.07,1.19,0,2.1-.02,2.74-.07.84,1.56,4.72,7.19,11.61,16.88.07-.39.1-.86.1-1.41v-10.72Z"/>
        <path class="cls-2" d="M376.52,117.55l6.85,18.19c.41,1.08.74,1.91.99,2.48.14.34.49.63,1.06.84.57.22.99.33,1.27.33.09,0,.14.22.14.65,0,.09-.02.21-.07.34-2.28-.12-3.54-.17-3.77-.17-.02,0-1.35.06-3.97.17-.09-.09-.13-.28-.12-.57s.06-.43.15-.43c.27,0,.62-.06,1.03-.17.41-.11.65-.26.72-.45.04-.18.07-.37.07-.55,0-.3-.04-.65-.12-1.05-.08-.4-.15-.72-.22-.95l-.14-.38-1.4-3.89c-.07-.09-.14-.14-.21-.14-.89-.07-1.76-.1-2.6-.1-1.19,0-2.64.06-4.35.17l-.17.1-1.47,3.79c-.39,1.15-.58,1.94-.58,2.38,0,.32.09.55.27.69.21.16.54.29.99.4s.79.16.99.16c.07,0,.11.14.12.41s0,.47-.05.59c-2.28-.12-3.46-.17-3.53-.17-.46,0-.86.01-1.2.04s-.73.05-1.15.07c-.42.02-.83.05-1.22.07-.09-.09-.14-.26-.14-.52,0-.32.05-.48.14-.48.27,0,.63-.06,1.06-.17.43-.11.73-.28.89-.48.48-.62,1.02-1.7,1.61-3.24l5.96-15.4c.05-.11.11-.3.19-.55s.14-.44.19-.57.11-.29.21-.48c.09-.2.17-.34.24-.43s.15-.2.26-.31c.1-.11.22-.2.34-.24.12-.05.27-.07.43-.07l.31.1ZM372.55,129.99c1.19.05,2,.07,2.43.07,1,0,2.04-.03,3.12-.1l.1-.17-2.77-7.62-2.95,7.68c0,.09.02.14.07.14Z"/>
        <path class="cls-2" d="M393.17,117.66c.84,0,1.9-.06,3.15-.17.16.53,2.42,6.28,6.78,17.26.02.05.07.07.14.07.09,0,.15-.05.17-.14,2.24-5.28,4.02-9.64,5.34-13.06l1.37-4.13c1.46.09,2.41.14,2.84.14,1.42,0,2.69-.05,3.84-.14.07.21.1.38.1.52,0,.32-.06.48-.17.48h-.07c-.25,0-.58.08-.99.22-.41.15-.72.3-.92.47-.27.21-.41.98-.41,2.31,0,.37.1,5.03.31,13.99.02,1.31.19,2.37.51,3.17.09.21.43.39,1.03.53.59.15,1.02.22,1.27.22.09,0,.14.16.14.48,0,.21-.02.38-.07.52-2.28-.12-3.64-.17-4.08-.17-.11,0-1.48.06-4.11.17-.09-.09-.14-.28-.14-.55,0-.3.04-.45.14-.45.23,0,.58-.06,1.04-.17.47-.11.8-.23,1.01-.34.27-.16.41-.65.41-1.48v-1.83l-.41-12.13c-.02-.37-.09-.8-.19-1.29-.1-.49-.21-.74-.33-.74-.05,0-.1.08-.17.24l-7.16,17.23c-.43.99-.86,1.48-1.27,1.48-.07,0-.17-.02-.31-.07l-7.84-20.05c-.05,2.21-.11,4.73-.21,7.58-.09,2.85-.17,5.2-.24,7.05-.07,1.85-.1,2.8-.1,2.84,0,.41.07.71.21.9.14.18.55.36,1.25.53.7.17,1.16.26,1.39.26.09,0,.14.17.14.52,0,.18-.02.34-.07.48-2.28-.12-3.61-.17-3.97-.17-.05,0-1.38.06-4.01.17-.12-.12-.17-.29-.17-.52,0-.32.06-.48.17-.48.32,0,.79-.07,1.42-.22.63-.15,1.04-.33,1.25-.53.37-.41.57-1.41.62-3,.05-2.39.1-4.74.15-7.06.06-2.32.11-4.14.15-5.46.04-1.32.07-2.17.07-2.53,0-.57-.05-1.03-.14-1.38-.07-.18-.46-.35-1.17-.5-.71-.15-1.22-.22-1.54-.22-.09,0-.14-.16-.14-.48,0-.25.05-.42.14-.52.39.02.82.05,1.28.07.47.02.9.05,1.28.07.39.02.81.03,1.27.03Z"/>
        <path class="cls-2" d="M431.13,117.55l6.85,18.19c.41,1.08.74,1.91.99,2.48.14.34.49.63,1.06.84.57.22.99.33,1.27.33.09,0,.14.22.14.65,0,.09-.02.21-.07.34-2.28-.12-3.54-.17-3.77-.17-.02,0-1.35.06-3.97.17-.09-.09-.13-.28-.12-.57s.06-.43.15-.43c.27,0,.62-.06,1.03-.17.41-.11.65-.26.72-.45.04-.18.07-.37.07-.55,0-.3-.04-.65-.12-1.05-.08-.4-.15-.72-.22-.95l-.14-.38-1.4-3.89c-.07-.09-.14-.14-.21-.14-.89-.07-1.76-.1-2.6-.1-1.19,0-2.64.06-4.35.17l-.17.1-1.47,3.79c-.39,1.15-.58,1.94-.58,2.38,0,.32.09.55.27.69.21.16.54.29.99.4s.79.16.99.16c.07,0,.11.14.12.41s0,.47-.05.59c-2.28-.12-3.46-.17-3.53-.17-.46,0-.86.01-1.2.04s-.73.05-1.15.07c-.42.02-.83.05-1.22.07-.09-.09-.14-.26-.14-.52,0-.32.05-.48.14-.48.27,0,.63-.06,1.06-.17.43-.11.73-.28.89-.48.48-.62,1.02-1.7,1.61-3.24l5.96-15.4c.05-.11.11-.3.19-.55s.14-.44.19-.57.11-.29.21-.48c.09-.2.17-.34.24-.43s.15-.2.26-.31c.1-.11.22-.2.34-.24.12-.05.27-.07.43-.07l.31.1ZM427.15,129.99c1.19.05,2,.07,2.43.07,1,0,2.04-.03,3.12-.1l.1-.17-2.77-7.62-2.95,7.68c0,.09.02.14.07.14ZM428.93,114.76c0-.16.53-.76,1.58-1.79,1.05-1.03,1.88-1.78,2.5-2.24.14-.07.34-.1.62-.1.59,0,1.04.11,1.34.33s.45.45.45.71c0,.53-.91,1.25-2.74,2.17-1.83.92-2.96,1.38-3.39,1.38-.23,0-.34-.15-.34-.45Z"/>
      </g>
      <rect class="cls-2" x="211.18" y="10.4" width=".74" height="161.31"/>
    </g>
    <g>
      <path class="cls-1" d="M10.89,123.15c-1.02.45-2.07.89-3.08,1.37-.19.09-.26.23-.19.38.08.17.27.2.46.11,0,0,.04-.01.04-.03.7-.36,1.43-.73,2.17-1.08,1.4-.66,2.02-.95,2.87-1.28,2.52-1.03,3.74-.54,4.98,1.91.1.2.15.29.24.55l-.38.19-2.74,1.31-2.06.98-1.55.73c-.73.34-1.22.55-1.43.66-.06.02-.18.07-.31.13l1.9,3.75c.51-.24.98-.49,1.49-.74l1.82-.87,1.97-.95c2.98-1.41,2.92-3.07,1.58-5.71-2.17-4.25-4.33-3.01-7.77-1.42Z"/>
      <path class="cls-1" d="M5.94,121.64c.99-.35,1.24-.44,2.91-.97.8-.28,1.41-.48,1.83-.61,1.49-.48,3.02-.9,4.51-1.38h.02c.25-.09.33-.21.27-.37-.07-.21-.24-.23-.43-.17-.06.05-.2.09-.39.14-.63.2-1.24.43-1.85.62l-1.59.53-.33.11c.57-3.19,1.23-6.41,2.03-9.59-1.43.44-2.86.96-4.31,1.42-.53.17-1.22.38-2.09.65l-1.58.45-1.26.4c-.32.1-.38.19-.31.38.07.24.33.16.53.1.07-.04.23-.09.44-.15.86-.27,1.71-.57,2.55-.84.3-.1.67-.2,1.12-.35l-.44,2.19c-.51,2.49-1.06,4.96-1.64,7.42Z"/>
      <path class="cls-1" d="M11.54,107.91l.54-.09-.88-4.08-.34.07-2.17.45-2.12.43-2.34.47-1.98.37-.47.1.88,4.08.36-.08,1.98-.42c2.2-.45,4.38-.88,6.55-1.31Z"/>
      <path class="cls-1" d="M10.94,96.57l-2.1-.92-7.73-3.28c-.18-.09-.27-.14-.33-.17-.31-.14-.43-.17-.51-.17-.17.02-.28.17-.26.32.02.18.11.24.55.39.98.42,2.03.75,3.03,1.18l2.46,1.01-5.32,3.57.45,4.76,2.82-1.94,6.95-4.74Z"/>
      <path class="cls-1" d="M9.76,89.73l.36-7.75v-.21c.02-.49-.01-.55-.22-.55-.19-.01-.26.09-.27.41l-.14,3.93-4.85-.17c-.4-.02-.8-.04-1.21-.07v-.16l.07-1.54c.04-.65.1-1.33.12-1.99.02-.32-.04-.43-.23-.43-.2-.01-.26.06-.28.43l-.1,3.49v.17s-2.21-.12-2.21-.12l.21-3.41v-.02c.01-.25-.06-.33-.24-.34-.18,0-.25.09-.28.33l-.02.37-.33,7.22c1.5.06,2.99.07,4.5.14l5.12.27Z"/>
      <path class="cls-1" d="M2.89,78.29l2.16.37,2.71.51,2.26.4.3.06.77-4.08-2.12-.38c1.03-.92,2.86-2.66,3.11-4.02.04-.17-.04-.32-.18-.34-.12-.02-.2.04-.25.17-.44,1.03-1.03,1.96-1.83,2.78.08-.7.06-.97-.07-1.51-.35-1.43-1.61-2.61-3.03-2.86-1.58-.27-3.17.35-4.06,1.62-.52.77-.84,1.81-1.29,4.23l-.52,2.71.23.03,1.81.31ZM2.89,71.5c.7-1.24,2.23-1.92,3.71-1.66,1.93.35,3.11,2.16,2.73,4.17-.01.09-.03.17-.07.31-.38.37-.48.45-.92.74-.18-.03-.25-.04-.32-.05l-1.25-.22-1.96-.35-2.32-.46-.39-.09c.24-1.11.46-1.78.79-2.41Z"/>
      <path class="cls-1" d="M5.96,66.54c2.48.79,5.91-2.33,7.23-1.92.31.1.38.41.22.91-.57,1.72-2.26,2.21-2.34,2.44-.04.1.05.23.17.28.16.04.38-.04.75-.28.93-.58,1.57-1.43,1.91-2.44.76-2.32.16-4.23-1.46-4.74-2.26-.7-6.01,2.44-7.3,2.04-.32-.11-.43-.46-.3-.9.43-1.26,1.75-1.9,1.79-2.02.04-.14-.02-.24-.13-.28-.15-.04-.47.09-.8.35-.61.48-1.08,1.21-1.38,2.11-.69,2.08,0,3.96,1.64,4.46Z"/>
      <path class="cls-1" d="M9.11,56.85c2.04.86,4.09,1.75,6.12,2.6l.49.22,1.71-3.82-.32-.13-2.04-.84-1.98-.83-2.21-.93-1.83-.8-.44-.19-1.72,3.83.35.14,1.88.75Z"/>
      <path class="cls-1" d="M19,43.27c-1.65-.92-3.94-.79-5.39.42-.61.52-.97.98-1.75,2.29l-1.84,3.11c2.17,1.19,3.18,1.72,4.34,2.36.96.54,2.29,1.29,4.02,2.26l1.78-2.99.58-.99c1.33-2.35.7-5.09-1.74-6.45ZM20.11,49.89c-1.17-.63-1.96-1.05-2.38-1.28-.48-.27-1.23-.68-2.24-1.26l-2.95-1.65c.29-.52.62-1,1.07-1.41,1.38-1.28,3.54-1.53,5.16-.63.98.55,1.71,1.45,2.04,2.5.39,1.33,0,2.58-.7,3.74Z"/>
      <path class="cls-1" d="M23.68,44.63c.1.07.23.04.31-.08.16-.17-.06-.5-.16-.68l-.36-.88,2.96-3.65,1.43.27,3.01-3.73-11.51-1.79c.32.73.63,1.49.92,2.23l1.31,3.26,1.21,3.05c.17.39.65,1.83.9,2.02ZM21.78,38.86l-.13-.36,4.23.75s-1.73,2.13-2.61,3.21l-.13-.25-.62-1.52-.74-1.82Z"/>
      <path class="cls-1" d="M28.74,31.57c.77.79,1.82,1.87,3.18,3.27l2.59-2.38.86-.8c1.97-1.89,2.15-4.69.22-6.67-1.32-1.32-3.55-1.83-5.3-1.06-.72.32-1.2.65-2.33,1.7l-2.69,2.48c1.74,1.73,2.56,2.53,3.47,3.46ZM30.12,24.5c1.7-.86,3.84-.51,5.13.81.8.81,1.23,1.86,1.23,2.95-.04,1.38-.76,2.46-1.75,3.39-.95-.91-1.58-1.54-1.91-1.88-.38-.38-.98-.99-1.79-1.82l-2.34-2.4c.45-.42.89-.79,1.43-1.05Z"/>
      <path class="cls-1" d="M40.52,16.14c.69-.4,1.36-.86,2.05-1.27l.87,1.34,1.03,1.58,1.61,2.56c.43.7.85,1.39,1.28,2.08l3.66-2.17c-.06-.08-.1-.15-.14-.2-.1-.17-.44-.72-1.04-1.62l-1.36-2.17-1.07-1.74-.95-1.51-.18-.32c.69-.41,1.35-.76,2.05-1.17.22-.14.27-.25.18-.37-.11-.17-.22-.17-.47-.03l-.25.13-1.08.64-6.31,3.73-.14.11c-.23.13-.28.24-.18.4.09.14.21.15.43.02Z"/>
      <path class="cls-1" d="M54.94,18.11l7.34-3.16.19-.07c.45-.22.5-.27.41-.46-.06-.17-.2-.18-.5-.05l-3.7,1.64-2.01-4.26c-.18-.36-.33-.72-.48-1.09l.15-.07,1.44-.62c.62-.27,1.27-.52,1.89-.78.32-.13.38-.23.31-.42-.09-.16-.19-.17-.53-.02l-3.28,1.46-.17.07-.87-1.96,3.25-1.33.03-.02c.23-.09.27-.18.2-.34-.07-.17-.19-.18-.42-.1l-.35.15-6.82,2.95c.61,1.32,1.27,2.63,1.9,3.94l2.04,4.55Z"/>
      <path class="cls-1" d="M69.14,13.07c1.17-.35,2.32-1.22,2.94-2.28.38-.66.69-1.56.6-1.82-.04-.09-.15-.14-.3-.1-.08.03-.14.1-.19.32-.36,1.68-1.56,3.01-3.2,3.47-.15.06-.28.06-.57.11l-.09-.31-.59-1.89c-.27-.83-.48-1.5-.63-1.99l-.67-2.24-.55-1.87-.08-.27c.19-.1.25-.14.46-.19,1.36-.39,2.94-.2,4.08.67.2.14.28.17.42.14.09-.02.17-.14.14-.23-.02-.1-.15-.2-.37-.35-1.2-.82-2.86-1.06-4.36-.63-2.66.77-4.21,3.53-3.41,6.12.81,2.63,3.65,4.11,6.39,3.33Z"/>
      <path class="cls-1" d="M74.3,6.41c.23,1.51.43,3.03.66,4.53v.03c.04.25.15.34.33.32.23-.03.27-.19.24-.39-.02-.07-.04-.21-.08-.4-.09-.64-.24-1.24-.33-1.87l-.28-1.61-.06-.33c3.19,1.08,6.35,2.24,9.45,3.53-.23-1.45-.51-2.9-.74-4.35-.08-.52-.19-1.24-.32-2.11l-.2-1.58-.19-1.26c-.06-.33-.14-.4-.34-.37-.26.03-.22.3-.19.49.03.09.05.24.09.45.14.88.29,1.72.43,2.57.05.3.11.67.16,1.13l-2.16-.78c-2.45-.9-4.88-1.83-7.3-2.8.21,1,.24,1.27.51,2.95.17.81.26,1.43.33,1.84Z"/>
      <path class="cls-1" d="M91.12,9.87c2.89-.02,5.16-2.25,5.13-4.98C96.21,2.18,93.9-.03,91.09,0c-2.84.02-5.12,2.23-5.07,4.99.02,2.67,2.36,4.91,5.1,4.88ZM91.01.41c2.64-.01,4.75,1.94,4.77,4.44.04,2.56-2.02,4.58-4.71,4.61-.17,0-.25,0-.44-.03v-.83s-.05-1.41-.05-1.41c-.03-.49-.03-1.14-.03-1.9-.02-1.62-.02-3.23-.02-4.83.21-.02.27-.04.5-.05Z"/>
      <path class="cls-1" d="M106.5,10.67h.19c.28.04.37,0,.38-.19.04-.24-.23-.28-.4-.29-.76-.09-1.51-.16-2.29-.23l-1.58-.2h-.16s.18-1.6.18-1.6l.24-1.88.18-1.61c.19-1.23.38-2.49.54-3.71l-4.27-.51-.09.63-.23,1.99-.32,2.48-.21,1.58c-.12.86-.24,1.71-.36,2.55l.88.1,7.32.88Z"/>
      <path class="cls-1" d="M113.11,12.44c2.79.71,5.59-.84,6.3-3.49.73-2.62-.9-5.33-3.61-6.03-2.76-.71-5.55.84-6.27,3.5-.72,2.59.91,5.34,3.57,6.03ZM112.96,11.05l.35-1.36c.12-.48.29-1.1.5-1.83.42-1.56.86-3.11,1.31-4.65.21.02.27.02.49.09,2.55.65,4.04,3.08,3.39,5.5-.68,2.48-3.21,3.9-5.81,3.24-.19-.05-.25-.06-.43-.15l.22-.82Z"/>
      <path class="cls-1" d="M124.25,16.09c2.65,1.1,5.55-.04,6.74-2.64l-3.49-1.44-.65-.26c-.21-.09-.33-.06-.38.08-.07.15-.02.24.23.33.21.09.43.19.64.28l3.04,1.25c-1.08,2.05-3.71,2.94-5.96,2.02-.22-.09-.29-.12-.46-.25l.14-.32.75-1.8.85-1.92.95-2.15.8-1.77.12-.28c.23.07.32.1.51.17,1.34.56,2.26,1.61,2.64,3.08.04.2.11.27.21.31.12.06.27.03.32-.08.06-.14,0-.35-.13-.75-.5-1.33-1.53-2.4-2.85-2.93-2.56-1.06-5.6.09-6.68,2.53-1.12,2.56.08,5.47,2.66,6.54Z"/>
      <path class="cls-1" d="M130.86,18.79l3.75,2.06.16-.31,1.08-1.87,1.07-1.82,1.18-2.02,1.01-1.69.23-.4-3.75-2.06-.17.31-.98,1.73c-1.1,1.9-2.22,3.75-3.31,5.63l-.28.44Z"/>
      <path class="cls-1" d="M140.34,24.87c.99.69,2.42,1.02,3.67.85.78-.11,1.68-.43,1.85-.65.06-.07.02-.2-.09-.27-.08-.06-.16-.05-.38.05-1.61.75-3.42.65-4.81-.32-.12-.09-.21-.17-.45-.37l.2-.27,1.18-1.6c.51-.72.95-1.3,1.24-1.7l1.41-1.89,1.19-1.57.17-.23c.2.09.25.12.43.24,1.17.8,1.97,2.13,1.97,3.54,0,.24.01.32.13.4.08.06.23.04.28-.03.06-.09.09-.25.06-.5-.06-1.44-.89-2.85-2.16-3.74-2.25-1.56-5.46-1.06-7.09,1.14-1.66,2.22-1.13,5.31,1.19,6.93Z"/>
      <path class="cls-1" d="M144.97,27.63c-.07.08-.06.21.06.3.17.17.53-.02.72-.09l.93-.27,3.46,3.21-.38,1.34,3.52,3.27,2.97-10.91c-.77.22-1.6.44-2.38.66l-3.47.95-3.26.87c-.42.11-1.95.46-2.17.67ZM147.52,27.33l1.63-.44,1.94-.54.38-.09-1.16,3.99s-2.03-1.87-3.08-2.83l.29-.09Z"/>
      <path class="cls-1" d="M160.94,45.14c1.58,2.21,4.41,2.88,6.75,1.38,1.58-1.03,2.48-3.06,2-4.87-.18-.74-.46-1.27-1.32-2.52l-2.06-2.98c-2.07,1.36-3.01,1.98-4.13,2.71-.93.59-2.21,1.41-3.88,2.47l1.98,2.87.66.95ZM163.31,43.04c.46-.3,1.17-.77,2.16-1.39l2.86-1.81c.33.49.64.99.82,1.56.56,1.75-.16,3.74-1.73,4.74-.95.62-2.1.83-3.22.66-1.4-.27-2.37-1.15-3.14-2.27,1.09-.73,1.84-1.23,2.24-1.49Z"/>
      <path class="cls-1" d="M164.63,50.83l3.52,6.97.09.2c.23.42.29.47.48.37.18-.08.18-.21.04-.48l-1.83-3.52,4.36-2.09c.36-.18.72-.35,1.1-.51l.06.14.71,1.38c.3.6.58,1.22.87,1.8.15.3.26.37.44.29.17-.07.19-.17.01-.51l-1.62-3.11-.08-.16,1.99-.91,1.49,3.1.02.02c.1.22.19.26.36.19.15-.07.17-.19.09-.41l-.18-.34-3.26-6.5c-1.34.64-2.67,1.32-4.02,1.95l-4.64,2.14Z"/>
      <path class="cls-1" d="M171.66,65.71l-.41.1,1.02,4.05c.55-.13,1.12-.28,1.67-.41.06.42.1.87.2,1.27.56,2.25,2.61,3.5,4.82,2.98,1.8-.44,3.06-2.13,2.98-3.9-.05-.78-.25-1.83-.58-3.18l-.75-3.02-.28.06-1.54.38-1.96.48-2.44.56-2.72.61ZM176.24,68.88l2.07-.47,2.4-.56.45-.1c.26.99.49,2.15.2,3.15-.29,1.06-1.36,2.09-2.47,2.34-1.95.46-3.81-.62-4.29-2.53-.14-.53-.2-1.03-.19-1.38.62-.16,1.2-.31,1.83-.45Z"/>
      <path class="cls-1" d="M175.98,76.95c-.38-.17-1.79-.89-2.09-.86-.1,0-.18.12-.16.24.02.24.41.34.63.4l.86.4.46,4.63-1.22.75.45,4.72,9.64-6.36c-.74-.32-1.51-.67-2.24-1.01l-3.27-1.48-3.05-1.41ZM179.73,79.18l-3.6,2.27s-.27-2.7-.4-4.08l.28.11,1.53.69,1.83.82.35.18Z"/>
      <path class="cls-1" d="M183.73,97.42c-.08,0-.25,0-.48,0-.9-.04-1.79-.06-2.69-.09-.3-.02-.69-.04-1.18-.08l1.23-1.88c1.39-2.15,2.81-4.27,4.27-6.37-1.06,0-1.33-.02-3.08-.1-.86-.02-1.5-.06-1.95-.07-1.57-.08-3.15-.2-4.71-.26h-.03c-.27-.02-.38.07-.38.23-.02.23.13.3.35.31.06-.01.21,0,.42.01.65.03,1.31.01,1.95.05l1.69.04.34.02c-1.72,2.79-3.53,5.56-5.44,8.25,1.51.07,3.03.09,4.54.16.56.02,1.31.06,2.21.11l1.64.12,1.33.06c.33.02.43-.04.44-.26,0-.24-.27-.26-.48-.27Z"/>
      <path class="cls-1" d="M178.7,102.48l-2.52-2.19c-.32-.27-1.45-1.33-1.75-1.39-.11-.01-.21.07-.23.2-.05.25.29.43.48.56l.73.61-.92,4.54-1.38.41-.93,4.63,11.09-3.48c-.64-.51-1.26-1.05-1.87-1.59l-2.7-2.3ZM175.04,104.66s.53-2.66.8-4.02l.23.18,1.26,1.07,1.51,1.3.28.26-4.09,1.21Z"/>
      <path class="cls-1" d="M180.01,116.26l-1.83-1.3-1.99-1.44-2.18-1.55-1.24-.9c-.18-.14-.39-.36-.61-.43-.12-.05-.24.02-.3.22-.17.44.58.73.88.94,1.09.62,2.15,1.36,3.18,2.09l-4.95,1.32,3.09,4.1-5.14-.43-1.49,3.88.29.02,2.19.14,2.42.15,3.05.2,2.02.15.4.03-3.97-5.24,6.59-1.64-.43-.3Z"/>
      <path class="cls-1" d="M169.91,128.33l-1.66-2.83c-.21-.37-.94-1.72-1.2-1.87-.1-.06-.22,0-.28.11-.12.21.13.49.27.67l.49.81-2.37,4.03-1.46-.06-2.42,4.12,11.66.12c-.42-.67-.83-1.39-1.24-2.08l-1.79-3.03ZM165.71,129.27s1.39-2.36,2.1-3.56l.15.24.84,1.41,1.02,1.71.19.33-4.29-.13Z"/>
      <path class="cls-1" d="M77.48,172.56c-.72.06-.76.06-.8.28-.03.14.05.25.17.26.49.07.99-.12,1.49-.18l-.06.29-.31,1.98-.3,1.85-.35,2.15c-.09.51-.19,1.06-.27,1.58l4.02.57.02-.23.21-1.59c.21-1.4.4-2.8.62-4.2l.28-1.74c.1-.54.18-1.06.28-1.6l-2.52.32c-.83.06-1.68.14-2.5.27Z"/>
      <path class="cls-1" d="M88.01,172.33c-2.38-.11-4.28,1.48-4.38,3.66-.07,1.44,1.02,2.66,2.42,2.72.36.02,1.42-.14,1.45-.55,0-.12-.06-.2-.18-.2-.06,0-.1.02-.33.12-.26.12-.62.19-.91.18-1.12-.05-2.02-1.06-1.95-2.22.1-1.98,1.78-3.37,3.74-3.28.04,0,.14.02.25.03v.34s-.08,1.98-.08,1.98l-.11,2.08-.14,2.34-.11,1.9v.22c-.28.04-.38.05-.59.04-1.97-.09-1.98-1.45-2.37-1.46-.19,0-.35.11-.35.28,0,.09.06.23.13.35.48.71,1.43,1.21,2.5,1.26,2.75.14,5.06-1.96,5.2-4.75.15-2.88-1.54-4.92-4.18-5.03Z"/>
      <path class="cls-1" d="M98.76,175.96c.75-.52,1.04-1,1.01-1.69-.06-1.33-1.38-2.08-3.38-2-2.42.11-4.15,1.51-4.05,3.29.05.95.41,1.62,1.26,2.35-.94.54-1.32,1.11-1.29,1.88.09,1.45,1.76,2.43,4.08,2.32,2.42-.12,4.36-1.72,4.26-3.55-.06-1.28-.82-1.96-1.89-2.59ZM96.23,172.72c1.82-.09,2.95.51,3,1.52.04.69-.22,1.05-.98,1.53-.78-.33-3.82-1.3-3.86-2.18-.03-.44.74-.82,1.83-.87ZM96.37,181.65c-2.03.09-3.49-.69-3.55-1.9-.04-.62.29-1.05,1.15-1.52.93.57,1.91,1.03,2.93,1.46.99.44,1.38.75,1.39,1.1.04.4-.89.82-1.93.87Z"/>
      <path class="cls-1" d="M107.61,178.9c-.21-1.4-.44-2.8-.65-4.19l-.26-1.76c-.07-.54-.14-1.06-.2-1.61l-2.32,1c-.77.29-1.56.62-2.31.96-.67.26-.72.29-.68.51.01.14.12.22.25.21.48-.07.9-.4,1.35-.6l.04.29.28,1.98.26,1.88.31,2.13c.06.52.13,1.06.22,1.58l4.03-.56-.05-.23-.27-1.58Z"/>
      <path class="cls-1" d="M161.81,144.61c-6.54,1.34-6.63,5.11-6.42,6.53-1.41,1.23-2.77,2.39-4.11,3.47l.12-.59s1.25-1.33,1.14-2.44c-.12-1.11-1.27-2.21-1.14-3.1.11-.88.68-1.77.68-1.77,0,0-4.23,1.88-4.23,4.32s2.74,3.32,2.74,3.32v.82c-1.7,1.38-3.34,2.66-4.92,3.83h0s1.26-1.34,1.16-2.45c-.12-1.1-1.27-2.21-1.16-3.1.12-.88.69-1.77.69-1.77,0,0-4.23,1.88-4.23,4.32s2.75,3.31,2.75,3.31v.28c-2.19,1.61-4.27,3.02-6.23,4.28l.05-.23s1.26-1.34,1.14-2.45c-.11-1.1-1.25-2.21-1.14-3.09.11-.89.68-1.79.68-1.79,0,0-4.23,1.89-4.23,4.32s2.74,3.33,2.74,3.33v.39c-2.15,1.35-4.16,2.48-6.05,3.46l.11-.53s1.25-1.33,1.14-2.43c-.12-1.11-1.25-2.21-1.14-3.1.11-.89.69-1.77.69-1.77,0,0-4.24,1.88-4.24,4.32s2.75,3.33,2.75,3.33v.54c-2.59,1.29-4.91,2.27-7,3.02l.13-.69s1.26-1.32,1.14-2.43c-.11-1.11-1.26-2.21-1.14-3.09.11-.9.69-1.79.69-1.79,0,0-4.24,1.89-4.24,4.31s2.74,3.33,2.74,3.33v.59c-6.15,2.13-10.3,2.33-13.27,3.4-1.95.99.57,2.76.57,2.76.88.05,6.23-.92,13.38-3.66l.48.47s-1.3,2.5.47,4.23c1.77,1.73,6.15.18,6.15.18,0,0-1.04-.23-1.79-.78-.72-.56-.71-2.13-1.43-2.98-.73-.86-2.59-.96-2.59-.96l-.63-.42c2.17-.86,4.52-1.88,6.94-3.08l.69.4s-.63,2.74,1.53,3.99c2.15,1.26,6.01-1.29,6.01-1.29,0,0-1.08.02-1.93-.35-.84-.36-1.24-1.87-2.16-2.53-.92-.66-2.75-.3-2.75-.3l-.67-.25c2.06-1.05,4.19-2.24,6.33-3.56l.83.37s-.31,2.79,1.98,3.81c2.28,1.01,5.82-1.91,5.82-1.91,0,0-1.07.14-1.95-.14-.88-.27-1.43-1.74-2.43-2.3-.98-.57-2.76-.02-2.76-.02l-.85-.21c2.3-1.47,4.6-3.09,6.85-4.9l.91.28s.07,2.79,2.48,3.52c2.4.71,5.51-2.65,5.51-2.65,0,0-1.04.27-1.96.11-.9-.15-1.65-1.54-2.71-1.98-1.06-.42-2.75.35-2.75.35l-.89-.1c1.85-1.51,3.65-3.14,5.39-4.91l.81.12s.48,2.76,2.96,3.14c2.48.38,5.07-3.38,5.07-3.38,0,0-.99.41-1.92.37-.92-.02-1.87-1.29-2.99-1.57-1.12-.29-2.66.71-2.66.71l-.7.02c1.11-1.16,2.19-2.39,3.24-3.67,3.23.3,6.19-2.44,5.76-7.16Z"/>
      <path class="cls-1" d="M74.26,174.85c-2.98-1.06-7.13-1.27-13.28-3.4v-.59s2.75-.89,2.75-3.33-4.24-4.31-4.24-4.31c0,0,.58.89.7,1.79.11.88-1.04,1.98-1.15,3.09-.11,1.12,1.15,2.43,1.15,2.43l.12.69c-2.1-.75-4.42-1.72-7-3.02v-.54s2.75-.9,2.75-3.33-4.23-4.32-4.23-4.32c0,0,.56.88.68,1.77.11.89-1.03,2-1.14,3.1-.11,1.1,1.14,2.43,1.14,2.43l.09.53c-1.87-.98-3.89-2.11-6.04-3.46v-.39s2.74-.88,2.74-3.33-4.24-4.32-4.24-4.32c0,0,.57.89.69,1.79.11.88-1.04,1.98-1.14,3.09-.11,1.11,1.14,2.45,1.14,2.45l.04.23c-1.95-1.26-4.01-2.67-6.21-4.28v-.28s2.73-.88,2.73-3.31-4.23-4.32-4.23-4.32c0,0,.57.89.69,1.77.11.89-1.04,2-1.14,3.1-.12,1.11,1.14,2.44,1.14,2.44h0c-1.57-1.16-3.21-2.44-4.91-3.82v-.82s2.74-.89,2.74-3.32-4.24-4.32-4.24-4.32c0,0,.56.89.67,1.77.12.89-1.02,1.99-1.14,3.1-.12,1.11,1.14,2.44,1.14,2.44l.12.59c-1.33-1.08-2.7-2.25-4.11-3.47.22-1.43.12-5.19-6.41-6.53-.44,4.73,2.52,7.46,5.76,7.16,1.04,1.28,2.13,2.51,3.25,3.67l-.72-.02s-1.55-1-2.66-.71c-1.11.27-2.06,1.54-2.98,1.57-.93.03-1.93-.37-1.93-.37,0,0,2.59,3.75,5.08,3.38,2.48-.38,2.95-3.14,2.95-3.14l.81-.12c1.74,1.77,3.54,3.4,5.38,4.91l-.88.1s-1.68-.76-2.74-.35c-1.07.44-1.83,1.83-2.73,1.98-.92.16-1.96-.11-1.96-.11,0,0,3.11,3.36,5.52,2.65,2.41-.73,2.48-3.52,2.48-3.52l.9-.28c2.25,1.81,4.56,3.43,6.86,4.9l-.85.21s-1.78-.56-2.77.02c-.99.56-1.55,2.03-2.43,2.3-.88.28-1.95.14-1.95.14,0,0,3.55,2.93,5.83,1.91,2.29-1.03,1.96-3.81,1.96-3.81l.85-.37c2.13,1.32,4.26,2.51,6.33,3.56l-.68.25s-1.83-.36-2.77.3c-.91.67-1.31,2.18-2.14,2.53-.85.37-1.93.35-1.93.35,0,0,3.84,2.55,6,1.29,2.17-1.25,1.54-3.99,1.54-3.99l.7-.4c2.41,1.2,4.76,2.22,6.93,3.08l-.62.42s-1.86.1-2.59.96c-.73.85-.72,2.42-1.44,2.98-.73.55-1.78.78-1.78.78,0,0,4.37,1.56,6.15-.18,1.77-1.73.47-4.23.47-4.23l.49-.47c7.14,2.73,12.49,3.71,13.36,3.66,0,0,2.52-1.77.58-2.76Z"/>
      <rect class="cls-2" x="31.79" y="51.7" width="18.31" height="13.28"/>
      <rect class="cls-2" x="71.63" y="51.7" width="20.67" height="13.28"/>
      <path class="cls-1" d="M159.52,76.05c0-24.14-22.89-24.35-22.89-24.35h-17.16v13.28h17.4c1.6,0,10.3,0,10.3,11.29,0,7.61-4.06,10.86-7.26,12.18l-11.28-13.51h-5.25l-4.58-2.87-3.89.69v-7.78h2.52v-13.28h-17.85v13.28h2.75v5.81l-5.05-1.17-.91,2-4.8,2.21.75,1.77,2.44-.22-1.83,1.77,1.14.89,2.74-.22,2.07,3.97,3.44-1.26v27.63s0,14.17-17.63,14.17-17.4-14.17-17.4-14.17v-5.71l2.3-.06-.9,3.11,3.88,5.76-.69,3.98,10.3-.67,1.83-3.32,4.11.22,2.29-1.98-6.87-9.31-2.97-.22-1.38-2.88,1.59-1.54h4.13l3.43-2.22,1.6-3.09,3.42-.22,1.15-1.99.23-3.54,2.98-.88-.24-1.56-3.43-2.66-1.75.44-.53-1.33-3.21,1.99-.46-1.77,2.52-2.88-.68-1.11-6.42,3.99-6.87,2-6.63,4.2-2.76-.08v-19.85h2.52v-13.28h-17.85v13.28h3.21v15.33l-1.61-1.39-1.14,1.11,1.83,3.32-2.97-.44-2.53.89-3.21-3.1.7-2-3.45.22v-3.98l-2.98-1.77-3.42.22-4.12-1.77v2.44l-1.38.45-.23,6.2,5.26,2.88-3.65,2.87,1.14,4.87-1.84,2.21-2.98,1.77,2.98,4.87,1.37-.67-.68-3.1,2.28-1.11h10.3l2.06,2.21.47-1.56,6.86,3.33.92.19v8.67c0,1.99,0,25.68,29.75,25.68s29.98-23.91,29.98-25.68v-22.19l2.75-.63.33,3.92h-.78v12.03h4.53l1.65,3.76,9.15,8.85,2.74-4.41v-3.56l2.07,2.22,5.93-4.44-.44-2.43,1.14-1.23c6.83-2.15,15.56-8.03,15.56-24.02Z"/>
      <path class="cls-1" d="M55.15,118.35v17.5h12.11v-3.54c-10.98-5.98-12.11-13.95-12.11-13.95Z"/>
      <path class="cls-1" d="M102.75,135.84h12.13v-17.93s-1.14,8.41-12.13,14.39v3.54Z"/>
      <path class="cls-1" d="M113.25,23.04s-3.75-3.73-9.18-3.74c-2.29,0-4.88.67-7.61,2.56-3.27-2.75-6.54-3.54-9.2-3.53-3.51,0-5.96,1.36-5.96,1.37h-.02s-13.75,17.58-13.75,17.58v.26s.28-.15.4-.19c1.01-.32,3.42-.87,6.17-.87.25,0,.51,0,.77.02l-5.29,1.71s0,0,0,0h0s-2,.65-2,.65v.23s2.04-.59,2.04-.59c1.15-.23,2.6-.51,4.16-.51.2,0,.41,0,.61.01l-6.85,2.27v.25c1.09-.33,3.35-.91,6-.91.21,0,.43,0,.64.01l-6.65,2.35v.23c.69-.24,3.3-1.04,6.44-1.04s6.81.85,9.42,3.99l.07.08.08-.06c3.96-2.76,7.4-3.64,10.22-3.64,2.66,0,4.76.79,6.2,1.59.72.4,1.27.79,1.65,1.09.19.15.33.27.42.36.09.09.14.13.14.13l.11.11,12.85-19.68-1.96.7.59-.91-1.03.34.88-1.34-1.08.35.74-1.16-.06-.06ZM102.28,44.43c-.57-.53-3.61-3.15-8.48-3.15-2.85,0-6.32.9-10.27,3.62-2.67-3.14-6.36-4-9.54-4-1.5,0-2.85.18-3.94.39l4.71-1.66c1.74.13,3.56.55,5.23,1.47.05.03.1.06.15.08.11.06.22.13.32.2.08.05.16.1.24.15.09.06.18.12.27.19.09.07.19.13.28.21.08.06.16.12.24.18.1.08.2.17.3.26.07.06.14.12.2.18.11.1.22.22.34.33.05.05.1.1.16.16.16.17.32.35.47.53l.07.08.09-.06c3.94-2.75,7.38-3.64,10.2-3.64,2.67,0,4.76.8,6.2,1.59.73.4,1.28.8,1.65,1.09.19.15.33.27.43.36.09.09.14.14.14.14l.11.1,11.14-17.11,1.6-.57-12.32,18.86ZM112.84,25.94h0s0,0,0,0l-11.03,16.93c-.57-.54-3.61-3.15-8.48-3.15-2.84,0-6.31.9-10.25,3.62-.13-.16-.27-.31-.41-.46-.06-.07-.13-.13-.19-.19-.1-.1-.2-.2-.31-.3-.08-.07-.16-.14-.24-.21-.09-.08-.18-.16-.28-.24-.09-.07-.18-.14-.26-.21-.09-.07-.17-.13-.26-.19-.1-.07-.19-.14-.29-.2-.08-.05-.16-.1-.24-.16-.11-.07-.21-.13-.32-.2-.06-.04-.13-.07-.19-.11-2.1-1.16-4.43-1.54-6.53-1.54-1.28,0-2.46.13-3.46.3l4.93-1.64c.32.02.65.06.98.11.04,0,.07,0,.11.01.32.05.64.11.97.18.05.01.11.02.16.04.32.07.64.16.95.26.05.02.09.03.14.05.33.11.65.23.98.37,0,0,.01,0,.02,0,.31.14.62.29.93.46.05.03.1.05.15.08.29.17.58.36.86.56.06.04.12.08.17.13.28.21.56.44.82.68.04.04.09.08.13.13.28.27.55.55.82.86l.06.08.09-.07c3.93-2.72,7.37-3.61,10.19-3.61,4.96,0,8,2.75,8.41,3.14l.1.1.08-.12,9.2-14.08,1.2-1.84.67-.23-.4.61ZM113.09,24.33l-11.05,16.9c-.69-.63-3.7-3.11-8.46-3.12h0s0,0,0,0h0c-2.85,0-6.31.9-10.24,3.6-.13-.16-.27-.31-.41-.46-.06-.07-.13-.13-.19-.19-.1-.1-.21-.2-.31-.3-.08-.07-.15-.14-.23-.2-.09-.08-.19-.16-.29-.24-.08-.07-.17-.13-.25-.2-.09-.07-.19-.14-.28-.21-.09-.06-.17-.12-.26-.18-.1-.06-.19-.12-.29-.18-.09-.05-.18-.11-.27-.16-.1-.06-.2-.11-.31-.17-.09-.05-.17-.09-.26-.14-.14-.07-.28-.13-.42-.2-.11-.05-.22-.1-.33-.14-.13-.05-.26-.11-.39-.16-.08-.03-.16-.06-.24-.09-.12-.04-.23-.08-.35-.12-.08-.03-.17-.05-.25-.07-.12-.03-.24-.07-.35-.1-.08-.02-.16-.04-.24-.06-.12-.03-.25-.06-.37-.08-.07-.02-.15-.03-.22-.05-.14-.03-.27-.05-.4-.07-.06-.01-.13-.02-.19-.03-.16-.02-.33-.05-.49-.07-.03,0-.07,0-.1-.01-.2-.02-.39-.04-.59-.05h-.03s0,0,0,0c-.41-.03-.82-.04-1.21-.04h0c-.94,0-1.84.08-2.66.19l4.29-1.39c2.8.24,5.93,1.19,8.01,3.94l.07.09.08-.06.03.04.09-.06c2.95-2.05,5.61-3.07,7.95-3.46.76-.12,1.48-.17,2.16-.17,2.66,0,4.76.8,6.2,1.59.72.4,1.27.8,1.65,1.09.19.15.33.28.42.36.09.09.14.14.14.14l.11.11.05-.08.06.06,9.95-15.56.72-.23ZM112.1,24.41l-9.78,15.3c-.71-.65-3.71-3.09-8.41-3.09-.75,0-1.53.06-2.36.2-2.34.38-5,1.38-7.93,3.39-2.67-3.12-6.34-3.97-9.51-3.97-2.82,0-5.1.55-6.07.84-.03,0-.05.03-.08.04l.06-.12,13.43-17.12c.05-.03.18-.1.4-.19.83-.38,2.84-1.13,5.42-1.13s5.86.78,9.12,3.53l.06.06.08-.05c2.71-1.9,5.28-2.57,7.55-2.57,2.67,0,4.92.92,6.51,1.84.8.46,1.42.92,1.85,1.26.21.17.38.31.48.41.04.04.07.07.1.09l-.79,1.24-.12.04Z"/>
      <polygon class="cls-1" points="95.15 22.43 83.94 39.04 84.04 39.11 95.25 22.5 95.15 22.43"/>
      <path class="cls-1" d="M79.19,25.52c.83-.14,1.99-.28,3.3-.28,2.37,0,5.23.47,7.5,2.26l.09-.11c-2.3-1.82-5.2-2.29-7.59-2.29-2.63,0-4.67.58-4.67.58l.04.14s.5-.14,1.33-.28Z"/>
      <path class="cls-1" d="M78.03,27.21c.83-.14,1.99-.28,3.3-.28,2.37,0,5.23.48,7.5,2.26l.09-.11c-2.3-1.82-5.2-2.29-7.59-2.29-2.63,0-4.67.57-4.67.57l.04.14s.5-.14,1.33-.28Z"/>
      <path class="cls-1" d="M77.07,28.91c.83-.14,1.99-.28,3.3-.28,2.37,0,5.23.47,7.5,2.26l.09-.11c-2.31-1.82-5.2-2.29-7.59-2.29-2.64,0-4.67.57-4.67.57l.04.14s.51-.14,1.33-.28Z"/>
      <path class="cls-1" d="M82.8,20.5c.83-.14,1.99-.28,3.29-.28,2.38,0,5.24.47,7.5,2.26l.09-.11c-2.31-1.82-5.2-2.29-7.6-2.29-2.63,0-4.66.57-4.67.57l.04.14s.5-.14,1.33-.28Z"/>
      <path class="cls-1" d="M81.62,22.19c.84-.14,2-.29,3.31-.29,2.37,0,5.23.48,7.5,2.26l.09-.11c-2.3-1.82-5.19-2.29-7.58-2.29-2.64,0-4.67.57-4.68.57l.04.14s.5-.14,1.33-.28Z"/>
      <path class="cls-1" d="M80.67,23.89c.84-.14,2-.29,3.3-.29,2.38,0,5.23.47,7.49,2.26l.09-.11c-2.3-1.82-5.2-2.29-7.59-2.29-2.63,0-4.67.57-4.67.57l.04.14s.5-.14,1.33-.28Z"/>
      <path class="cls-1" d="M75.9,30.4c.83-.15,1.99-.29,3.3-.29,2.37,0,5.24.47,7.5,2.26l.09-.11c-2.3-1.81-5.2-2.29-7.59-2.29-2.63,0-4.67.57-4.67.57l.04.14s.5-.14,1.33-.28Z"/>
      <path class="cls-1" d="M74.73,32.09c.83-.14,2-.28,3.31-.28,2.37,0,5.23.47,7.49,2.26l.09-.11c-2.3-1.82-5.2-2.29-7.58-2.29-2.64,0-4.68.57-4.68.57l.04.14s.51-.15,1.33-.29Z"/>
      <path class="cls-1" d="M84.66,35.65c-2.3-1.81-5.19-2.29-7.58-2.29-2.64,0-4.68.57-4.68.57l.04.14s.51-.14,1.33-.28c.84-.14,2-.28,3.31-.28,2.37,0,5.23.47,7.5,2.26l.09-.11Z"/>
      <path class="cls-1" d="M94.62,26.7l.04.14s.5-.14,1.34-.28c.82-.15,1.99-.28,3.29-.28,2.37,0,5.23.47,7.5,2.25l.08-.11c-2.29-1.82-5.18-2.29-7.58-2.29-2.63,0-4.66.57-4.67.57Z"/>
      <path class="cls-1" d="M93.46,28.39l.04.14s.5-.14,1.33-.28c.83-.14,1.99-.29,3.3-.29,2.37,0,5.23.47,7.49,2.26l.09-.11c-2.3-1.82-5.19-2.29-7.58-2.29-2.64,0-4.67.57-4.68.57Z"/>
      <path class="cls-1" d="M92.49,30.1l.04.14s.51-.14,1.34-.28c.84-.14,2-.28,3.31-.28,2.37,0,5.23.47,7.49,2.26l.09-.11c-2.3-1.82-5.2-2.29-7.58-2.29-2.64,0-4.68.58-4.68.58Z"/>
      <path class="cls-1" d="M98.21,21.68l.04.14s.51-.14,1.34-.28c.83-.14,1.99-.28,3.3-.28,2.38,0,5.24.47,7.5,2.25l.09-.11c-2.3-1.82-5.19-2.29-7.59-2.29-2.63,0-4.67.57-4.68.57Z"/>
      <path class="cls-1" d="M97.05,23.37l.04.14s.5-.14,1.33-.28c.83-.14,1.99-.28,3.29-.28,2.38,0,5.24.47,7.51,2.26l.09-.11c-2.31-1.82-5.2-2.29-7.6-2.29-2.63,0-4.66.58-4.67.58Z"/>
      <path class="cls-1" d="M96.09,25.08l.04.14s.5-.14,1.34-.28c.83-.14,1.99-.29,3.3-.29,2.37,0,5.23.47,7.49,2.26l.09-.11c-2.3-1.81-5.2-2.28-7.58-2.28-2.64,0-4.67.57-4.68.57Z"/>
      <path class="cls-1" d="M91.32,31.57l.04.14s.51-.14,1.34-.29c.83-.14,1.99-.28,3.3-.28,2.37,0,5.23.47,7.5,2.26l.09-.11c-2.3-1.81-5.2-2.29-7.59-2.29-2.63,0-4.67.57-4.67.57Z"/>
      <path class="cls-1" d="M90.15,33.27l.04.14s.51-.14,1.33-.28c.83-.14,1.99-.29,3.3-.29,2.37,0,5.23.47,7.5,2.26l.09-.11c-2.31-1.82-5.2-2.29-7.59-2.29-2.64,0-4.67.57-4.68.57Z"/>
      <path class="cls-1" d="M89.19,34.97l.04.14s.51-.14,1.33-.29c.83-.14,2-.28,3.31-.28,2.37,0,5.22.47,7.49,2.26l.09-.11c-2.3-1.82-5.19-2.29-7.57-2.29-2.64,0-4.68.58-4.68.58Z"/>
      <path class="cls-1" d="M31.75,137.86c-.71.04-1.28.6-1.28,1.31s.61,1.32,1.37,1.33c.33,0,.63-.12.86-.31.53.35,1.23.52,2.06.52.98,0,2.14-.23,3.4-.66.1.28.2.56.31.82.45,1.09.98,1.97,1.58,2.59.6.61,1.27.98,2.01.98s1.4-.36,2-.98c.74-.77,1.38-1.95,1.88-3.41,1.27.43,2.43.66,3.41.66.46,0,.87-.06,1.24-.17.25.25.6.41.98.41.75,0,1.36-.58,1.36-1.31,0-.45-.23-.84-.58-1.08.01-.11.02-.21.02-.32,0-1.27-.72-2.86-1.99-4.55-.31-.42-.66-.84-1.03-1.26.38-.42.72-.84,1.03-1.26,1.26-1.69,1.99-3.28,1.99-4.55,0-.57-.14-1.08-.47-1.49-.53-.67-1.44-.98-2.57-.98-.98,0-2.14.23-3.41.65-.1-.28-.2-.56-.31-.82-.44-1.08-.97-1.97-1.57-2.59-.29-.3-.6-.54-.93-.71-.1-.63-.66-1.11-1.33-1.11-.75,0-1.35.6-1.35,1.33,0,.05,0,.09.01.14-.14.11-.27.23-.4.36-.74.77-1.38,1.95-1.88,3.41-1.27-.43-2.43-.65-3.41-.65-1.13,0-2.03.3-2.57.98-.32.41-.47.92-.47,1.49,0,1.27.72,2.87,1.99,4.55.31.41.66.84,1.03,1.26-.38.42-.72.85-1.03,1.26-1.15,1.53-1.84,2.98-1.97,4.18ZM45.36,140.75c-.43,1.06-.96,1.92-1.51,2.5-.57.58-1.17.89-1.79.89s-1.23-.31-1.8-.89c-.7-.72-1.33-1.87-1.81-3.31,1.14-.41,2.36-.97,3.61-1.68,1.25.71,2.47,1.28,3.61,1.69-.1.28-.2.55-.3.81ZM37.33,132.41c0-.75.03-1.49.09-2.21.56-.48,1.14-.96,1.76-1.42.95-.71,1.92-1.34,2.87-1.88.95.55,1.92,1.18,2.88,1.88.62.46,1.2.93,1.76,1.41.06.72.09,1.46.09,2.21s-.03,1.49-.09,2.21c-.55.48-1.14.95-1.76,1.4-.96.71-1.93,1.35-2.88,1.9-.95-.55-1.92-1.18-2.87-1.9-.62-.46-1.21-.93-1.76-1.41-.06-.71-.09-1.45-.09-2.2ZM37.11,134.34c-.72-.64-1.37-1.28-1.95-1.92.58-.64,1.24-1.29,1.95-1.93-.04.63-.07,1.27-.07,1.93,0,.66.03,1.3.07,1.93ZM37.46,129.78c.16-1.71.47-3.28.9-4.61,1.07.38,2.22.91,3.4,1.57-.91.53-1.83,1.14-2.75,1.81-.54.4-1.06.81-1.55,1.23ZM42.35,126.74c1.18-.66,2.33-1.19,3.4-1.57.43,1.33.74,2.9.9,4.61-.49-.42-1.01-.83-1.55-1.23-.92-.68-1.84-1.28-2.75-1.82ZM47,130.47c.72.64,1.38,1.3,1.97,1.95-.59.64-1.24,1.29-1.97,1.93.04-.63.07-1.28.07-1.94s-.03-1.31-.07-1.94ZM46.65,135.04c-.16,1.72-.47,3.29-.9,4.62-1.07-.38-2.22-.91-3.4-1.58.91-.54,1.84-1.14,2.76-1.83.54-.4,1.05-.81,1.55-1.22ZM39.01,136.26c.91.68,1.84,1.29,2.75,1.82-1.18.66-2.33,1.19-3.4,1.58-.43-1.34-.74-2.91-.9-4.63.49.42,1.01.83,1.55,1.23ZM50.16,133.85c1.25,1.66,1.93,3.22,1.93,4.38,0,.06,0,.11-.01.17-.16-.06-.32-.1-.5-.1-.75,0-1.36.59-1.36,1.33,0,.24.07.45.18.64-.32.08-.66.13-1.05.13-.94,0-2.07-.22-3.32-.64.46-1.44.79-3.14.94-5,.81-.7,1.55-1.42,2.2-2.13.36.41.69.82.99,1.22ZM49.35,124.43c1.08,0,1.88.29,2.34.86.28.35.41.79.41,1.31,0,1.16-.69,2.72-1.93,4.38-.3.4-.63.81-.99,1.21-.65-.72-1.38-1.43-2.2-2.14-.15-1.85-.48-3.54-.94-4.98,1.25-.42,2.38-.64,3.32-.64ZM38.75,124.07c.43-1.06.96-1.92,1.51-2.49.09-.09.18-.16.27-.24.19.49.69.84,1.26.84.7,0,1.27-.5,1.34-1.16.24.14.48.32.71.56.7.72,1.33,1.87,1.81,3.31-1.14.41-2.36.97-3.61,1.68-1.25-.71-2.47-1.27-3.61-1.68.1-.28.2-.56.3-.82ZM33.96,130.98c-1.25-1.66-1.94-3.21-1.93-4.38,0-.52.13-.96.41-1.31.45-.57,1.25-.86,2.33-.86.94,0,2.07.22,3.31.64-.46,1.44-.79,3.14-.94,5-.81.7-1.54,1.42-2.18,2.13-.36-.41-.69-.82-.99-1.22ZM34.95,132.63c.64.71,1.38,1.42,2.18,2.12.15,1.87.48,3.57.95,5.01-1.25.42-2.38.64-3.31.64-.77,0-1.39-.16-1.85-.45.17-.22.28-.49.28-.8,0-.67-.51-1.2-1.15-1.3.12-1.11.78-2.52,1.91-4.02.3-.4.63-.81.99-1.22Z"/>
      <path class="cls-1" d="M42.06,134.19c.99,0,1.82-.79,1.82-1.79s-.83-1.77-1.82-1.77-1.84.78-1.84,1.77.83,1.79,1.84,1.79Z"/>
      <path class="cls-1" d="M147.22,133.31v-2.63h-1.9c-.06-.45-.15-.9-.27-1.33l1.82-.71-.99-2.43-1.83.7c-.28-.49-.59-.94-.93-1.38l1.38-1.33-1.92-1.86-1.38,1.35c-.39-.31-.82-.59-1.26-.83l.74-1.76-2.48-1-.75,1.75c-.53-.15-1.07-.25-1.63-.32v-1.91h-2.71v1.93c-.52.07-1.02.17-1.52.3l-.76-1.75-2.5,1,.76,1.76c-.44.24-.87.52-1.27.83l-1.39-1.35-1.9,1.86,1.39,1.33c-.35.44-.66.89-.94,1.38l-1.82-.7-1,2.43,1.81.71c-.12.43-.2.87-.26,1.32h-2.02v2.63h2.01c.06.47.16.93.27,1.38l-1.81.71,1,2.43,1.82-.7c.28.48.59.94.94,1.37l-1.39,1.34,1.9,1.84,1.39-1.33c.41.31.83.58,1.27.82l-.76,1.76,2.5,1.01.76-1.75c.5.13,1,.24,1.52.3v1.88h2.71v-1.86c.56-.06,1.1-.17,1.63-.32l.75,1.75,2.48-1.01-.74-1.76c.44-.24.86-.51,1.27-.82l1.38,1.33,1.92-1.84-1.38-1.34c.34-.44.66-.9.93-1.38l1.83.7.99-2.43-1.82-.71c.12-.45.22-.91.28-1.38h1.9ZM132.43,124.29c.11-.03.21-.06.3-.07.25,0,.46.2.48.44v4.85c-.56.27-1.02.71-1.3,1.26h-5.02c-.27-.02-.45-.22-.46-.48.02-.1.04-.19.07-.3.77-2.79,3.03-4.98,5.92-5.7h0ZM126.9,133.28h5.01c.28.56.74.99,1.3,1.27v4.85c-.02.25-.23.44-.5.45-.09-.02-.2-.06-.3-.09h0c-2.88-.73-5.15-2.93-5.91-5.72-.02-.09-.05-.19-.07-.29,0-.25.19-.44.46-.48ZM134.51,133.09c-.61,0-1.11-.48-1.11-1.07s.5-1.07,1.11-1.07,1.11.48,1.11,1.07-.49,1.06-1.11,1.07ZM142.51,129.99c.03.11.05.2.08.3,0,.26-.21.45-.47.48h-5.01c-.28-.55-.74-.99-1.3-1.26v-4.84c.02-.25.23-.44.49-.44.09,0,.18.04.29.07h0c2.89.72,5.15,2.91,5.92,5.7ZM136.31,139.84c-.27-.01-.46-.2-.5-.46v-4.85c.56-.27,1.02-.71,1.31-1.27h5c.27.04.47.24.47.47-.03.1-.05.2-.07.27h0v.02c-.75,2.78-3,4.98-5.89,5.72-.12.03-.22.06-.31.09Z"/>
    </g>
  </g>
</svg>