<?xml version="1.0" encoding="UTF-8"?>
<svg id="Layer_2" data-name="Layer 2" xmlns="http://www.w3.org/2000/svg" viewBox="0 0 257.23 253.37">
  <defs>
    <style>
      .cls-1 {
        fill-rule: evenodd;
      }

      .cls-1, .cls-2 {
        fill: #fff;
      }
    </style>
  </defs>
  <g id="Capa_1" data-name="Capa 1">
    <g>
      <path class="cls-1" d="M15.16,171.34c-1.41.62-2.88,1.23-4.29,1.91-.26.12-.36.32-.26.53.11.24.37.28.64.15,0,0,.05-.02.05-.05.98-.5,1.99-1.01,3.01-1.5,1.95-.92,2.81-1.32,3.99-1.78,3.51-1.43,5.2-.75,6.93,2.65.15.28.21.4.33.77l-.53.26-3.81,1.82-2.86,1.36-2.16,1.01c-1.01.47-1.69.77-1.99.92-.09.03-.25.1-.43.18l2.64,5.21c.7-.34,1.37-.68,2.08-1.02l2.53-1.21,2.74-1.31c4.15-1.97,4.06-4.27,2.2-7.94-3.01-5.91-6.02-4.18-10.81-1.97Z"/>
      <path class="cls-1" d="M8.27,169.24c1.38-.49,1.72-.61,4.05-1.35,1.12-.39,1.96-.67,2.54-.84,2.08-.66,4.2-1.25,6.28-1.92h.03c.35-.12.45-.29.37-.52-.1-.3-.33-.32-.6-.24-.09.07-.28.13-.54.2-.88.28-1.72.6-2.57.87l-2.21.74-.46.15c.8-4.44,1.71-8.92,2.83-13.34-2,.62-3.98,1.33-6,1.98-.73.24-1.69.53-2.91.9l-2.19.63-1.75.56c-.45.15-.53.26-.43.53.1.33.46.22.74.13.1-.05.32-.13.62-.21,1.2-.38,2.37-.79,3.55-1.16.42-.13.93-.27,1.56-.48l-.62,3.04c-.7,3.46-1.48,6.91-2.28,10.33Z"/>
      <path class="cls-1" d="M16.05,150.14l.75-.12-1.22-5.68-.48.1-3.03.63-2.95.6-3.26.65-2.76.52-.65.13,1.22,5.68.5-.11,2.75-.58c3.06-.63,6.09-1.22,9.12-1.82Z"/>
      <path class="cls-1" d="M15.22,134.36l-2.92-1.28-10.76-4.56c-.25-.12-.38-.19-.47-.23-.43-.2-.6-.24-.71-.24-.24.02-.38.23-.37.44.03.25.16.33.77.54,1.36.58,2.82,1.05,4.21,1.64l3.42,1.41-7.4,4.96.62,6.62,3.93-2.7,9.67-6.6Z"/>
      <path class="cls-1" d="M13.59,124.84l.5-10.78v-.29c.03-.68-.02-.77-.31-.77-.27-.02-.36.12-.38.57l-.2,5.47-6.74-.24c-.56-.03-1.11-.05-1.69-.09v-.22l.1-2.14c.05-.91.14-1.85.17-2.76.03-.45-.06-.6-.32-.6-.27-.02-.37.09-.38.6l-.15,4.86v.23s-3.07-.16-3.07-.16l.29-4.74v-.02c.02-.35-.08-.47-.33-.47-.25-.01-.35.12-.38.45l-.03.51-.47,10.04c2.09.09,4.16.1,6.26.19l7.13.37Z"/>
      <path class="cls-1" d="M4.02,108.92l3.01.52,3.77.71,3.15.56.42.08,1.07-5.68-2.96-.52c1.43-1.28,3.98-3.69,4.33-5.59.06-.24-.05-.44-.25-.47-.16-.03-.28.05-.35.24-.61,1.43-1.43,2.73-2.55,3.86.11-.98.09-1.35-.1-2.1-.48-1.98-2.23-3.63-4.22-3.98-2.2-.38-4.41.49-5.64,2.25-.72,1.07-1.17,2.51-1.79,5.88l-.72,3.76.32.04,2.52.43ZM4.02,99.48c.97-1.73,3.1-2.67,5.16-2.31,2.69.49,4.33,3,3.79,5.81-.02.12-.04.24-.1.44-.52.52-.66.63-1.28,1.03-.25-.04-.35-.06-.44-.07l-1.74-.3-2.72-.49-3.22-.63-.55-.12c.33-1.55.64-2.48,1.1-3.35Z"/>
      <path class="cls-1" d="M8.3,92.57c3.46,1.1,8.22-3.24,10.05-2.67.43.14.53.57.3,1.26-.8,2.4-3.14,3.07-3.25,3.4-.05.15.07.33.24.39.23.06.53-.05,1.05-.39,1.29-.81,2.18-1.99,2.66-3.4,1.06-3.23.23-5.88-2.04-6.59-3.15-.98-8.36,3.39-10.15,2.83-.45-.15-.59-.65-.42-1.26.59-1.75,2.43-2.64,2.49-2.81.06-.19-.03-.33-.18-.4-.21-.05-.65.13-1.11.49-.85.67-1.5,1.68-1.93,2.94-.96,2.9,0,5.51,2.28,6.21Z"/>
      <path class="cls-1" d="M12.68,79.09c2.84,1.2,5.69,2.43,8.51,3.62l.68.3,2.38-5.32-.45-.18-2.84-1.17-2.76-1.15-3.08-1.29-2.55-1.11-.62-.26-2.39,5.33.48.19,2.61,1.04Z"/>
      <path class="cls-1" d="M26.43,60.21c-2.3-1.28-5.48-1.1-7.49.58-.85.72-1.35,1.36-2.43,3.18l-2.56,4.33c3.03,1.65,4.42,2.4,6.03,3.28,1.34.75,3.18,1.79,5.59,3.15l2.47-4.16.81-1.38c1.86-3.28.97-7.09-2.42-8.97ZM27.98,69.41c-1.63-.87-2.72-1.46-3.31-1.78-.66-.37-1.71-.95-3.12-1.75l-4.1-2.3c.4-.73.87-1.39,1.48-1.97,1.91-1.78,4.92-2.13,7.19-.87,1.36.77,2.37,2.02,2.84,3.47.55,1.85,0,3.59-.98,5.2Z"/>
      <path class="cls-1" d="M32.94,62.09c.14.09.32.06.43-.12.22-.24-.09-.69-.23-.95l-.51-1.23,4.12-5.08,2,.38,4.19-5.19-16.02-2.49c.45,1.01.87,2.07,1.28,3.1l1.82,4.53,1.68,4.24c.24.54.91,2.55,1.25,2.81ZM30.3,54.07l-.18-.5,5.88,1.04s-2.41,2.96-3.63,4.47l-.18-.35-.87-2.11-1.03-2.54Z"/>
      <path class="cls-1" d="M39.98,43.93c1.07,1.1,2.53,2.6,4.42,4.56l3.6-3.32,1.2-1.11c2.74-2.63,2.99-6.53.31-9.28-1.83-1.83-4.94-2.55-7.38-1.48-1.01.45-1.67.91-3.24,2.36l-3.74,3.45c2.42,2.41,3.56,3.52,4.83,4.81ZM41.9,34.09c2.36-1.19,5.34-.71,7.14,1.13,1.11,1.12,1.71,2.59,1.71,4.11-.05,1.92-1.06,3.43-2.44,4.71-1.31-1.26-2.2-2.15-2.66-2.61-.52-.53-1.36-1.38-2.49-2.53l-3.25-3.34c.62-.58,1.23-1.1,2-1.46Z"/>
      <path class="cls-1" d="M56.38,22.46c.96-.56,1.89-1.2,2.86-1.76l1.21,1.86,1.43,2.2,2.23,3.56c.59.97,1.18,1.94,1.78,2.89l5.09-3.02c-.08-.11-.15-.21-.19-.28-.15-.23-.61-1.01-1.45-2.26l-1.9-3.02-1.48-2.43-1.33-2.1-.25-.45c.96-.58,1.88-1.06,2.86-1.63.3-.19.37-.35.25-.52-.15-.23-.3-.23-.65-.04l-.35.18-1.5.9-8.78,5.19-.2.15c-.32.18-.39.34-.25.55.13.19.3.22.6.03Z"/>
      <path class="cls-1" d="M76.44,25.19l10.21-4.4.26-.1c.63-.3.7-.37.57-.63-.09-.24-.27-.25-.69-.07l-5.14,2.28-2.8-5.93c-.25-.51-.47-1.01-.67-1.52l.21-.09,2.01-.86c.86-.38,1.77-.72,2.63-1.09.45-.18.53-.33.43-.59-.12-.22-.26-.24-.74-.02l-4.57,2.03-.23.1-1.21-2.73,4.52-1.86.04-.02c.32-.13.38-.25.28-.48-.1-.23-.26-.25-.58-.15l-.49.22-9.49,4.1c.84,1.84,1.77,3.65,2.64,5.48l2.83,6.34Z"/>
      <path class="cls-1" d="M96.19,18.19c1.62-.48,3.22-1.7,4.09-3.17.53-.91.96-2.16.84-2.53-.05-.12-.22-.19-.42-.14-.11.04-.19.14-.27.45-.5,2.33-2.17,4.19-4.45,4.83-.21.08-.38.08-.8.15l-.13-.43-.83-2.63c-.38-1.15-.67-2.09-.88-2.76l-.93-3.11-.77-2.6-.11-.38c.26-.14.35-.19.65-.26,1.9-.55,4.09-.27,5.67.94.28.2.4.24.58.19.13-.03.24-.19.19-.32-.03-.15-.22-.28-.52-.49-1.67-1.15-3.98-1.47-6.07-.88-3.69,1.07-5.86,4.91-4.74,8.51,1.12,3.66,5.08,5.72,8.89,4.64Z"/>
      <path class="cls-1" d="M103.38,8.92c.33,2.1.6,4.22.92,6.3v.04c.06.34.21.48.46.44.33-.05.37-.27.33-.54-.03-.09-.06-.29-.11-.56-.12-.88-.34-1.73-.45-2.6l-.39-2.23-.09-.47c4.43,1.5,8.83,3.12,13.15,4.91-.32-2.01-.71-4.03-1.03-6.05-.11-.72-.27-1.73-.45-2.94l-.28-2.2-.27-1.75c-.08-.46-.2-.55-.47-.51-.36.04-.31.42-.26.68.04.12.07.33.12.63.19,1.22.4,2.4.59,3.58.07.42.15.93.23,1.58l-3-1.08c-3.41-1.25-6.79-2.55-10.16-3.89.29,1.4.34,1.76.7,4.1.24,1.13.37,1.99.45,2.56Z"/>
      <path class="cls-1" d="M126.77,13.73c4.03-.03,7.18-3.13,7.13-6.93-.04-3.76-3.26-6.83-7.17-6.79-3.95.03-7.12,3.11-7.06,6.94.03,3.72,3.28,6.83,7.1,6.79ZM126.62.57c3.67-.02,6.61,2.7,6.64,6.17.06,3.57-2.81,6.37-6.56,6.42-.24,0-.35,0-.62-.04l-.02-1.16-.05-1.96c-.04-.69-.05-1.59-.05-2.64-.03-2.25-.03-4.49-.03-6.72.3-.03.38-.06.69-.07Z"/>
      <path class="cls-1" d="M148.18,14.84l.26.02c.4.04.52-.02.53-.28.05-.33-.32-.39-.55-.4-1.06-.13-2.11-.22-3.18-.33l-2.2-.27-.23-.02.25-2.21.34-2.62.25-2.23c.26-1.71.53-3.46.75-5.16l-5.94-.71-.12.88-.32,2.76-.45,3.45-.3,2.2c-.17,1.2-.33,2.37-.51,3.55l1.23.15,10.18,1.22Z"/>
      <path class="cls-1" d="M157.36,17.3c3.89.99,7.78-1.17,8.77-4.86,1.01-3.64-1.25-7.42-5.02-8.39-3.84-.98-7.72,1.16-8.72,4.87-1,3.61,1.27,7.44,4.97,8.39ZM157.17,15.38l.48-1.89c.17-.67.41-1.53.7-2.55.58-2.16,1.2-4.33,1.82-6.47.29.02.38.03.68.12,3.55.91,5.62,4.28,4.71,7.65-.94,3.45-4.47,5.43-8.09,4.5-.26-.07-.35-.09-.6-.21l.31-1.14Z"/>
      <path class="cls-1" d="M172.86,22.39c3.69,1.53,7.72-.05,9.37-3.67l-4.86-2.01-.91-.36c-.3-.13-.46-.09-.53.11-.1.2-.03.33.32.47.29.13.59.26.89.38l4.23,1.74c-1.5,2.85-5.17,4.09-8.29,2.81-.3-.12-.41-.17-.63-.35l.2-.44,1.05-2.51,1.19-2.68,1.33-3,1.11-2.46.17-.39c.32.1.45.13.71.24,1.86.77,3.14,2.24,3.67,4.29.05.28.15.38.3.43.17.08.38.04.44-.11.09-.19,0-.49-.18-1.04-.7-1.85-2.13-3.33-3.97-4.08-3.56-1.47-7.79.13-9.29,3.52-1.56,3.56.11,7.61,3.71,9.1Z"/>
      <path class="cls-1" d="M182.06,26.15l5.22,2.86.23-.43,1.5-2.6,1.48-2.54,1.64-2.81,1.41-2.35.33-.56-5.21-2.86-.24.43-1.36,2.41c-1.53,2.64-3.09,5.22-4.61,7.83l-.4.61Z"/>
      <path class="cls-1" d="M195.26,34.6c1.38.96,3.37,1.42,5.1,1.18,1.09-.16,2.34-.59,2.58-.91.09-.1.03-.27-.13-.38-.11-.09-.23-.07-.52.07-2.24,1.05-4.76.9-6.69-.45-.17-.13-.3-.24-.62-.52l.28-.38,1.64-2.23c.72-1.01,1.32-1.8,1.73-2.36l1.96-2.63,1.66-2.19.24-.32c.28.12.35.16.6.33,1.62,1.12,2.74,2.97,2.74,4.93,0,.34.02.45.18.55.11.09.33.06.38-.04.09-.13.12-.34.09-.69-.09-2.01-1.23-3.96-3.01-5.2-3.13-2.17-7.6-1.47-9.86,1.58-2.31,3.1-1.57,7.39,1.65,9.63Z"/>
      <path class="cls-1" d="M201.7,38.44c-.1.11-.08.3.08.42.23.24.73-.02,1.01-.12l1.29-.38,4.82,4.46-.53,1.87,4.89,4.56,4.13-15.18c-1.07.31-2.23.62-3.31.91l-4.83,1.32-4.53,1.21c-.58.15-2.72.63-3.01.93ZM205.24,38.02l2.26-.61,2.7-.75.53-.13-1.62,5.56s-2.83-2.6-4.29-3.94l.41-.13Z"/>
      <path class="cls-1" d="M223.91,62.8c2.2,3.08,6.13,4.01,9.39,1.91,2.2-1.43,3.45-4.26,2.78-6.77-.25-1.03-.63-1.76-1.83-3.51l-2.87-4.14c-2.88,1.89-4.19,2.75-5.74,3.76-1.3.82-3.08,1.96-5.4,3.43l2.75,3.99.92,1.33ZM227.21,59.88c.64-.42,1.63-1.06,3.01-1.93l3.98-2.52c.47.68.89,1.38,1.15,2.17.78,2.44-.23,5.2-2.4,6.59-1.31.87-2.93,1.16-4.48.92-1.95-.37-3.3-1.6-4.37-3.16,1.52-1.01,2.56-1.71,3.12-2.07Z"/>
      <path class="cls-1" d="M229.05,70.72l4.89,9.7.12.28c.33.58.41.65.67.52.25-.11.25-.29.05-.67l-2.54-4.9,6.06-2.91c.5-.25,1.01-.48,1.53-.71l.08.2.99,1.91c.42.84.8,1.69,1.21,2.5.22.42.36.52.61.4.24-.1.27-.24.02-.71l-2.25-4.33-.11-.23,2.77-1.26,2.08,4.31.03.02c.14.31.27.36.51.26.22-.1.23-.26.12-.57l-.25-.47-4.54-9.04c-1.86.89-3.72,1.84-5.59,2.71l-6.46,2.98Z"/>
      <path class="cls-1" d="M238.83,91.43l-.57.14,1.42,5.63c.77-.18,1.55-.39,2.32-.57.08.58.14,1.21.28,1.77.78,3.13,3.63,4.88,6.71,4.15,2.5-.62,4.26-2.96,4.14-5.42-.07-1.09-.35-2.54-.81-4.42l-1.05-4.2-.39.09-2.15.53-2.72.67-3.4.78-3.79.85ZM245.2,95.84l2.88-.65,3.33-.77.63-.13c.36,1.37.68,2.99.28,4.38-.41,1.48-1.89,2.9-3.43,3.26-2.72.63-5.3-.86-5.97-3.53-.19-.74-.28-1.43-.26-1.93.86-.23,1.67-.43,2.54-.63Z"/>
      <path class="cls-1" d="M244.83,107.06c-.53-.24-2.48-1.24-2.91-1.2-.15,0-.25.17-.23.34.03.34.57.47.87.55l1.2.55.64,6.44-1.7,1.05.63,6.56,13.41-8.85c-1.03-.45-2.1-.93-3.12-1.41l-4.55-2.06-4.24-1.96ZM250.06,110.16l-5,3.16s-.38-3.76-.55-5.67l.38.16,2.13.97,2.55,1.15.49.25Z"/>
      <path class="cls-1" d="M255.62,135.54c-.11.01-.35,0-.66-.01-1.25-.06-2.49-.08-3.74-.13-.42-.02-.96-.06-1.64-.11l1.71-2.62c1.93-2.99,3.91-5.94,5.94-8.86-1.48,0-1.85-.03-4.28-.13-1.2-.02-2.09-.08-2.71-.1-2.18-.11-4.38-.28-6.56-.37h-.04c-.37-.03-.53.09-.53.33-.03.32.18.42.48.43.09-.02.3,0,.58.02.91.04,1.82.02,2.71.07l2.35.06.47.03c-2.39,3.88-4.91,7.74-7.57,11.48,2.1.1,4.22.13,6.32.23.78.03,1.82.09,3.08.16l2.28.17,1.85.09c.46.02.59-.06.61-.36,0-.34-.37-.36-.67-.37Z"/>
      <path class="cls-1" d="M248.62,142.58l-3.5-3.05c-.44-.38-2.01-1.85-2.43-1.94-.15-.02-.3.1-.33.28-.07.34.4.59.66.78l1.02.85-1.28,6.32-1.93.57-1.3,6.45,15.43-4.85c-.89-.7-1.76-1.46-2.6-2.21l-3.76-3.2ZM243.53,145.61s.73-3.7,1.12-5.59l.32.25,1.76,1.49,2.11,1.81.39.36-5.69,1.68Z"/>
      <path class="cls-1" d="M250.44,161.75l-2.55-1.81-2.77-2-3.03-2.16-1.73-1.25c-.25-.2-.55-.5-.84-.59-.17-.07-.33.03-.42.3-.23.62.8,1.01,1.23,1.31,1.51.87,2.99,1.89,4.43,2.91l-6.88,1.83,4.3,5.7-7.15-.6-2.08,5.39.4.03,3.04.19,3.36.2,4.24.28,2.81.21.56.04-5.52-7.29,9.17-2.28-.59-.41Z"/>
      <path class="cls-1" d="M236.4,178.54l-2.31-3.94c-.3-.51-1.31-2.4-1.67-2.6-.14-.08-.31,0-.4.15-.17.3.18.69.38.94l.68,1.13-3.29,5.61-2.03-.08-3.36,5.73,16.22.17c-.58-.94-1.16-1.94-1.73-2.89l-2.49-4.21ZM230.55,179.85s1.93-3.28,2.92-4.96l.22.33,1.17,1.96,1.41,2.38.26.47-5.97-.18Z"/>
      <path class="cls-1" d="M107.8,240.08c-1,.09-1.06.09-1.11.4-.04.19.07.35.23.37.68.1,1.38-.17,2.08-.25l-.08.4-.43,2.75-.42,2.58-.48,2.99c-.13.71-.26,1.47-.37,2.19l5.6.8.03-.32.3-2.22c.29-1.94.56-3.89.86-5.84l.38-2.42c.14-.76.25-1.47.4-2.23l-3.51.44c-1.15.08-2.34.19-3.48.38Z"/>
      <path class="cls-1" d="M122.44,239.76c-3.31-.15-5.96,2.06-6.09,5.09-.1,2,1.41,3.69,3.36,3.79.5.03,1.98-.19,2.01-.76,0-.17-.09-.28-.25-.28-.08,0-.15.02-.47.17-.36.16-.86.27-1.26.25-1.56-.07-2.81-1.47-2.72-3.09.13-2.75,2.48-4.69,5.21-4.57.05,0,.19.03.35.04v.47s-.12,2.75-.12,2.75l-.15,2.89-.19,3.26-.15,2.65v.31c-.39.05-.53.07-.83.05-2.74-.12-2.75-2.01-3.29-2.03-.27,0-.49.15-.49.39,0,.12.09.33.18.48.66.99,2,1.68,3.48,1.75,3.83.19,7.04-2.73,7.23-6.61.21-4.01-2.15-6.84-5.82-6.99Z"/>
      <path class="cls-1" d="M137.41,244.81c1.04-.72,1.45-1.39,1.41-2.36-.09-1.85-1.92-2.9-4.7-2.78-3.36.15-5.77,2.11-5.63,4.58.07,1.32.57,2.25,1.75,3.26-1.31.76-1.84,1.54-1.8,2.62.12,2.02,2.45,3.38,5.67,3.23,3.37-.16,6.06-2.39,5.93-4.94-.09-1.78-1.14-2.73-2.63-3.61ZM133.88,240.31c2.53-.12,4.11.71,4.18,2.11.05.96-.31,1.46-1.36,2.13-1.08-.47-5.32-1.81-5.37-3.03-.04-.61,1.03-1.14,2.55-1.21ZM134.08,252.73c-2.82.13-4.86-.96-4.93-2.65-.05-.87.4-1.46,1.6-2.12,1.3.79,2.66,1.43,4.08,2.03,1.38.62,1.93,1.05,1.93,1.53.05.56-1.23,1.15-2.69,1.21Z"/>
      <path class="cls-1" d="M149.71,248.91c-.3-1.95-.62-3.89-.91-5.83l-.37-2.45c-.1-.75-.2-1.48-.28-2.23l-3.23,1.39c-1.07.41-2.18.86-3.21,1.33-.93.36-1,.4-.95.7.02.2.17.31.35.29.67-.09,1.25-.55,1.88-.83l.06.4.4,2.76.37,2.62.43,2.96c.09.72.18,1.48.3,2.2l5.6-.78-.07-.32-.38-2.2Z"/>
      <path class="cls-1" d="M225.13,201.2c-9.1,1.87-9.23,7.11-8.94,9.09-1.97,1.71-3.86,3.33-5.72,4.83l.17-.82s1.74-1.85,1.59-3.39c-.17-1.54-1.76-3.07-1.59-4.31.15-1.23.95-2.46.95-2.46,0,0-5.89,2.62-5.89,6.01s3.81,4.62,3.81,4.62v1.15c-2.36,1.92-4.64,3.7-6.85,5.32h0s1.76-1.86,1.61-3.4c-.17-1.53-1.76-3.07-1.61-4.31.17-1.23.96-2.46.96-2.46,0,0-5.89,2.61-5.89,6.01s3.83,4.61,3.83,4.61v.38c-3.05,2.24-5.94,4.21-8.66,5.96l.07-.32s1.75-1.86,1.58-3.4c-.15-1.53-1.74-3.08-1.58-4.29.15-1.24.95-2.48.95-2.48,0,0-5.88,2.63-5.88,6.01s3.81,4.63,3.81,4.63v.54c-3,1.88-5.79,3.46-8.41,4.81l.15-.74s1.74-1.85,1.58-3.38c-.16-1.54-1.74-3.07-1.58-4.31.16-1.23.95-2.46.95-2.46,0,0-5.89,2.62-5.89,6.01s3.83,4.64,3.83,4.64v.75c-3.6,1.8-6.82,3.15-9.74,4.2l.18-.97s1.75-1.83,1.59-3.38c-.16-1.54-1.75-3.07-1.59-4.29.16-1.25.96-2.49.96-2.49,0,0-5.89,2.63-5.89,6s3.81,4.64,3.81,4.64v.82c-8.56,2.96-14.33,3.24-18.46,4.73-2.71,1.38.79,3.84.79,3.84,1.23.07,8.67-1.28,18.61-5.09l.67.65s-1.81,3.48.65,5.89c2.46,2.41,8.55.25,8.55.25,0,0-1.45-.32-2.48-1.09-1-.77-.99-2.96-1.98-4.14-1.02-1.2-3.61-1.33-3.61-1.33l-.87-.58c3.03-1.19,6.29-2.61,9.65-4.28l.96.55s-.88,3.82,2.13,5.55c3,1.75,8.35-1.8,8.35-1.8,0,0-1.5.03-2.69-.48-1.17-.5-1.72-2.6-3.01-3.53-1.28-.92-3.83-.42-3.83-.42l-.94-.35c2.86-1.46,5.83-3.12,8.81-4.95l1.15.52s-.43,3.88,2.75,5.31c3.17,1.41,8.1-2.66,8.1-2.66,0,0-1.48.19-2.71-.2-1.22-.37-1.99-2.42-3.38-3.2-1.36-.8-3.84-.03-3.84-.03l-1.18-.29c3.2-2.05,6.41-4.3,9.53-6.82l1.26.38s.09,3.88,3.44,4.9c3.34.98,7.67-3.69,7.67-3.69,0,0-1.45.37-2.73.15-1.25-.21-2.29-2.15-3.78-2.75-1.47-.58-3.83.48-3.83.48l-1.24-.14c2.57-2.1,5.08-4.37,7.5-6.83l1.13.17s.67,3.84,4.12,4.37c3.45.52,7.05-4.7,7.05-4.7,0,0-1.38.57-2.67.52-1.28-.03-2.61-1.8-4.16-2.18-1.55-.4-3.7.99-3.7.99l-.98.02c1.54-1.62,3.05-3.33,4.51-5.11,4.5.41,8.61-3.39,8.02-9.97Z"/>
      <path class="cls-1" d="M103.32,243.27c-4.15-1.48-9.92-1.77-18.48-4.73v-.82s3.82-1.23,3.82-4.64-5.89-6-5.89-6c0,0,.81,1.23.97,2.49.15,1.22-1.45,2.75-1.6,4.29-.16,1.55,1.6,3.38,1.6,3.38l.17.97c-2.92-1.05-6.15-2.4-9.74-4.2v-.75s3.83-1.25,3.83-4.64-5.88-6.01-5.88-6.01c0,0,.78,1.23.95,2.46.16,1.24-1.43,2.78-1.59,4.31-.15,1.53,1.59,3.38,1.59,3.38l.13.74c-2.6-1.36-5.41-2.94-8.4-4.81v-.54s3.81-1.23,3.81-4.63-5.89-6.01-5.89-6.01c0,0,.79,1.24.96,2.48.16,1.22-1.44,2.76-1.59,4.29-.16,1.54,1.59,3.4,1.59,3.4l.05.32c-2.72-1.75-5.58-3.72-8.64-5.96v-.38s3.79-1.22,3.79-4.61-5.88-6.01-5.88-6.01c0,0,.8,1.23.96,2.46.16,1.24-1.45,2.78-1.59,4.31-.17,1.54,1.59,3.39,1.59,3.39h0c-2.18-1.61-4.47-3.39-6.83-5.31v-1.15s3.82-1.24,3.82-4.62-5.89-6.01-5.89-6.01c0,0,.78,1.24.94,2.46.17,1.23-1.42,2.77-1.58,4.31-.17,1.54,1.58,3.39,1.58,3.39l.17.82c-1.86-1.51-3.76-3.13-5.72-4.83.3-1.98.16-7.22-8.92-9.09-.62,6.57,3.51,10.38,8.01,9.97,1.45,1.78,2.96,3.49,4.53,5.11l-1-.02s-2.15-1.39-3.71-.99c-1.55.38-2.87,2.15-4.15,2.18-1.29.05-2.68-.52-2.68-.52,0,0,3.6,5.22,7.07,4.7,3.45-.53,4.11-4.37,4.11-4.37l1.13-.17c2.42,2.46,4.93,4.74,7.49,6.83l-1.23.14s-2.34-1.06-3.81-.48c-1.48.61-2.55,2.54-3.8,2.75-1.28.22-2.73-.15-2.73-.15,0,0,4.32,4.68,7.67,3.69,3.35-1.02,3.45-4.9,3.45-4.9l1.25-.38c3.13,2.52,6.34,4.78,9.54,6.82l-1.18.29s-2.48-.77-3.85.03c-1.38.78-2.15,2.83-3.38,3.2-1.22.39-2.72.2-2.72.2,0,0,4.94,4.07,8.12,2.66,3.18-1.43,2.73-5.31,2.73-5.31l1.18-.52c2.97,1.83,5.93,3.49,8.81,4.95l-.95.35s-2.54-.5-3.85.42c-1.26.93-1.82,3.03-2.98,3.53-1.18.52-2.69.48-2.69.48,0,0,5.35,3.55,8.35,1.8,3.02-1.73,2.14-5.55,2.14-5.55l.97-.55c3.35,1.67,6.62,3.09,9.64,4.28l-.87.58s-2.59.14-3.6,1.33c-1.01,1.19-1,3.37-2.01,4.14-1.02.77-2.47,1.09-2.47,1.09,0,0,6.08,2.16,8.55-.25,2.47-2.4.65-5.89.65-5.89l.68-.65c9.93,3.8,17.38,5.16,18.58,5.09,0,0,3.51-2.46.81-3.84Z"/>
      <rect class="cls-2" x="44.24" y="71.93" width="25.48" height="18.48"/>
      <rect class="cls-2" x="99.65" y="71.93" width="28.76" height="18.48"/>
      <path class="cls-1" d="M221.94,105.81c0-33.58-31.85-33.88-31.85-33.88h-23.88v18.48h24.21c2.22,0,14.33,0,14.33,15.71,0,10.59-5.65,15.11-10.11,16.94l-15.7-18.79h-7.3l-6.38-3.99-5.42.97v-10.83h3.51v-18.48h-24.83v18.48h3.83v8.09l-7.02-1.62-1.27,2.78-6.68,3.08,1.05,2.46,3.4-.31-2.55,2.46,1.59,1.24,3.81-.3,2.88,5.52,4.79-1.76v38.44s0,19.71-24.53,19.71-24.21-19.71-24.21-19.71v-7.94l3.19-.09-1.26,4.33,5.4,8.01-.96,5.54,14.34-.93,2.55-4.62,5.72.3,3.18-2.76-9.56-12.95-4.13-.31-1.91-4.01,2.21-2.15h5.75l4.78-3.09,2.23-4.3,4.76-.31,1.6-2.77.32-4.93,4.15-1.23-.33-2.16-4.78-3.7-2.44.62-.73-1.85-4.46,2.77-.64-2.46,3.5-4.01-.95-1.54-8.93,5.55-9.55,2.78-9.22,5.84-3.84-.11v-27.61h3.51v-18.48h-24.84v18.48h4.47v21.33l-2.25-1.93-1.59,1.54,2.55,4.62-4.13-.61-3.52,1.23-4.46-4.31.97-2.78-4.79.31v-5.54l-4.14-2.46-4.76.31-5.73-2.46v3.39l-1.92.62-.32,8.62,7.32,4.01-5.08,3.99,1.59,6.78-2.56,3.08-4.14,2.47,4.14,6.78,1.91-.93-.94-4.31,3.17-1.54h14.34l2.86,3.08.65-2.16,9.54,4.64,1.28.27v12.06c0,2.76,0,35.72,41.39,35.72s41.7-33.27,41.7-35.72v-30.87l3.83-.87.45,5.45h-1.08v16.73h6.31l2.29,5.24,12.73,12.31,3.82-6.14v-4.95l2.88,3.09,8.25-6.17-.61-3.38,1.59-1.71c9.5-2.99,21.64-11.18,21.64-33.42Z"/>
      <path class="cls-1" d="M76.74,164.66v24.34h16.85v-4.93c-15.27-8.32-16.85-19.41-16.85-19.41Z"/>
      <path class="cls-1" d="M142.96,189h16.88v-24.95s-1.58,11.7-16.88,20.02v4.93Z"/>
      <path class="cls-1" d="M157.56,32.05s-5.21-5.19-12.78-5.2c-3.18,0-6.8.93-10.58,3.56-4.55-3.83-9.1-4.92-12.8-4.92-4.88,0-8.29,1.89-8.29,1.9l-.03.02-19.12,24.44-.02.36s.4-.2.57-.26c1.41-.45,4.76-1.21,8.59-1.21.35,0,.71.01,1.07.03l-7.35,2.38s0,0,0,0h0s-2.79.9-2.79.9v.32s2.85-.82,2.85-.82c1.6-.33,3.62-.71,5.79-.71.28,0,.57,0,.86.02l-9.53,3.16.02.34c1.5-.46,4.64-1.27,8.34-1.27.3,0,.6,0,.9.02l-9.25,3.27v.32c.96-.33,4.59-1.44,8.97-1.44s9.47,1.18,13.11,5.55l.1.12.12-.08c5.51-3.83,10.29-5.07,14.22-5.07,3.7,0,6.62,1.1,8.63,2.21,1,.55,1.77,1.1,2.29,1.51.26.22.46.38.58.5.13.12.19.18.19.18l.15.15,17.87-27.37-2.73.97.82-1.26-1.43.48,1.22-1.87-1.5.49,1.03-1.61-.08-.09ZM142.3,61.81c-.79-.74-5.02-4.38-11.79-4.38-3.96,0-8.79,1.25-14.28,5.04-3.72-4.37-8.85-5.56-13.27-5.56-2.08,0-3.96.25-5.48.54l6.56-2.31c2.42.18,4.95.76,7.28,2.05.07.04.14.08.21.12.15.09.3.18.45.27.11.07.22.14.33.21.13.08.25.17.38.26.13.09.26.19.39.29.11.08.22.17.33.26.14.12.28.24.42.36.09.08.19.16.28.25.16.15.31.3.47.46.07.07.15.14.22.22.22.24.44.48.66.74l.1.12.13-.08c5.49-3.83,10.27-5.06,14.19-5.06,3.71,0,6.62,1.11,8.63,2.22,1.01.55,1.78,1.11,2.29,1.52.26.21.46.38.6.5.13.12.19.19.19.19l.15.15,15.5-23.81,2.23-.79-17.13,26.24ZM157,36.1h0s0,0,0,0l-15.34,23.56c-.8-.75-5.02-4.39-11.8-4.39-3.95,0-8.78,1.25-14.26,5.04-.19-.22-.38-.43-.57-.64-.09-.09-.18-.18-.27-.27-.14-.14-.28-.28-.42-.41-.11-.1-.22-.2-.33-.29-.13-.11-.26-.22-.39-.33-.12-.1-.24-.19-.37-.29-.12-.09-.24-.18-.37-.27-.13-.1-.27-.19-.4-.28-.11-.07-.22-.15-.34-.22-.15-.09-.3-.19-.45-.27-.09-.05-.18-.1-.27-.15-2.93-1.62-6.16-2.14-9.08-2.14-1.79,0-3.42.18-4.81.42l6.86-2.28c.45.03.91.08,1.36.15.05,0,.1.01.15.02.45.07.9.15,1.34.25.07.02.15.03.22.05.44.1.89.22,1.33.36.07.02.13.04.2.07.46.15.91.32,1.36.51,0,0,.02,0,.03.01.44.19.86.41,1.29.65.07.04.14.07.21.11.41.24.81.5,1.2.78.08.06.16.12.24.18.39.29.77.61,1.15.95.06.06.12.12.18.18.39.37.77.76,1.13,1.2l.09.11.13-.09c5.47-3.79,10.25-5.03,14.18-5.03,6.9,0,11.13,3.83,11.71,4.38l.14.14.11-.16,12.8-19.58,1.67-2.56.94-.31-.55.85ZM157.34,33.85l-15.37,23.52c-.97-.88-5.15-4.33-11.77-4.34h0s-.01,0-.01,0h0c-3.97,0-8.78,1.25-14.25,5.01-.19-.22-.38-.43-.57-.63-.09-.09-.18-.18-.27-.26-.14-.14-.29-.28-.43-.42-.11-.1-.22-.19-.32-.28-.13-.11-.26-.23-.4-.34-.12-.09-.23-.18-.35-.27-.13-.1-.26-.2-.4-.29-.12-.09-.24-.17-.37-.25-.13-.09-.27-.17-.4-.26-.12-.08-.25-.15-.37-.23-.14-.08-.28-.16-.43-.23-.12-.06-.24-.13-.36-.19-.19-.1-.39-.19-.58-.27-.15-.07-.31-.13-.46-.2-.18-.07-.36-.15-.54-.22-.11-.04-.23-.08-.34-.12-.16-.06-.32-.11-.49-.16-.12-.04-.23-.07-.35-.1-.16-.05-.33-.09-.49-.14-.11-.03-.23-.06-.34-.08-.17-.04-.34-.08-.51-.12-.1-.02-.21-.04-.31-.06-.19-.04-.38-.07-.56-.1-.09-.01-.17-.03-.26-.04-.23-.03-.46-.06-.68-.09-.05,0-.09-.01-.14-.02-.27-.03-.55-.06-.82-.08h-.04s0,0,0,0c-.57-.04-1.13-.06-1.69-.06h-.01c-1.31,0-2.55.11-3.7.27l5.96-1.94c3.9.33,8.25,1.66,11.15,5.48l.1.12.11-.08.04.05.12-.09c4.1-2.86,7.81-4.27,11.06-4.81,1.05-.17,2.06-.24,3.01-.24,3.7,0,6.62,1.11,8.63,2.22,1,.56,1.77,1.11,2.29,1.52.26.21.46.38.58.5.13.12.19.19.19.19l.15.15.07-.11.08.08,13.84-21.65,1-.32ZM155.97,33.96l-13.61,21.28c-.99-.91-5.16-4.31-11.7-4.31-1.04,0-2.13.09-3.29.28-3.26.53-6.96,1.92-11.04,4.72-3.72-4.35-8.82-5.52-13.23-5.52-3.92,0-7.1.76-8.45,1.17-.04.01-.07.04-.11.06l.08-.17,18.68-23.82c.07-.04.25-.13.56-.27,1.16-.53,3.94-1.57,7.54-1.57s8.16,1.08,12.69,4.92l.09.08.11-.07c3.78-2.65,7.34-3.57,10.5-3.57,3.71,0,6.85,1.28,9.06,2.56,1.11.64,1.98,1.28,2.58,1.76.29.23.52.43.67.58.06.05.1.09.14.12l-1.1,1.72-.17.05Z"/>
      <polygon class="cls-1" points="132.38 31.21 116.78 54.32 116.92 54.42 132.53 31.31 132.38 31.21"/>
      <path class="cls-1" d="M110.18,35.5c1.16-.2,2.77-.39,4.59-.39,3.3,0,7.28.65,10.43,3.14l.13-.16c-3.2-2.53-7.23-3.19-10.56-3.19-3.66,0-6.5.8-6.5.8l.05.19s.7-.2,1.86-.4Z"/>
      <path class="cls-1" d="M108.56,37.86c1.15-.19,2.77-.4,4.59-.4,3.3,0,7.27.66,10.43,3.15l.13-.16c-3.21-2.53-7.23-3.18-10.56-3.18-3.66,0-6.5.8-6.5.8l.06.19s.69-.2,1.85-.4Z"/>
      <path class="cls-1" d="M107.22,40.23c1.16-.2,2.77-.39,4.59-.39,3.3,0,7.27.65,10.43,3.14l.13-.15c-3.21-2.53-7.24-3.19-10.56-3.19-3.67,0-6.5.8-6.5.8l.05.19s.7-.2,1.86-.39Z"/>
      <path class="cls-1" d="M115.19,28.52c1.16-.2,2.77-.4,4.58-.4,3.31,0,7.29.66,10.44,3.14l.13-.15c-3.21-2.53-7.24-3.19-10.57-3.19-3.66,0-6.49.8-6.5.8l.06.2s.7-.2,1.86-.4Z"/>
      <path class="cls-1" d="M113.56,30.87c1.16-.2,2.78-.4,4.6-.4,3.3,0,7.27.66,10.43,3.15l.12-.16c-3.2-2.53-7.22-3.18-10.55-3.18-3.67,0-6.5.8-6.51.8l.06.19s.69-.2,1.85-.39Z"/>
      <path class="cls-1" d="M112.23,33.24c1.16-.2,2.78-.4,4.59-.4,3.31,0,7.28.66,10.42,3.14l.13-.15c-3.21-2.53-7.23-3.18-10.55-3.18-3.66,0-6.49.8-6.5.8l.06.19s.69-.2,1.85-.4Z"/>
      <path class="cls-1" d="M105.59,42.29c1.16-.2,2.77-.4,4.59-.4,3.3,0,7.29.65,10.43,3.14l.13-.16c-3.2-2.52-7.23-3.18-10.56-3.18-3.66,0-6.49.8-6.49.8l.05.19s.7-.2,1.86-.39Z"/>
      <path class="cls-1" d="M103.97,44.65c1.16-.2,2.78-.4,4.6-.4,3.3,0,7.28.65,10.42,3.14l.13-.16c-3.2-2.53-7.23-3.18-10.55-3.18-3.67,0-6.51.8-6.51.8l.05.2s.7-.2,1.86-.4Z"/>
      <path class="cls-1" d="M117.78,49.61c-3.2-2.52-7.22-3.18-10.55-3.18-3.67,0-6.51.8-6.51.8l.05.19s.7-.2,1.86-.4c1.17-.2,2.78-.4,4.6-.4,3.3,0,7.28.65,10.43,3.14l.12-.16Z"/>
      <path class="cls-1" d="M131.64,37.14l.06.19s.7-.2,1.86-.39c1.15-.2,2.76-.4,4.58-.4,3.3,0,7.28.65,10.43,3.13l.12-.15c-3.19-2.53-7.21-3.18-10.55-3.18-3.66,0-6.49.8-6.5.8Z"/>
      <path class="cls-1" d="M130.03,39.5l.06.2s.7-.2,1.86-.4c1.16-.2,2.77-.4,4.59-.4,3.3,0,7.28.66,10.42,3.15l.13-.16c-3.21-2.53-7.22-3.19-10.55-3.19-3.67,0-6.5.8-6.51.8Z"/>
      <path class="cls-1" d="M128.68,41.88l.06.19s.7-.2,1.86-.4c1.16-.2,2.78-.4,4.6-.4,3.3,0,7.27.66,10.42,3.14l.13-.15c-3.2-2.53-7.23-3.19-10.55-3.19-3.67,0-6.51.81-6.52.81Z"/>
      <path class="cls-1" d="M136.64,30.16l.06.2s.7-.2,1.86-.4c1.16-.2,2.77-.4,4.59-.4,3.31,0,7.29.65,10.43,3.14l.13-.15c-3.2-2.53-7.22-3.18-10.56-3.18-3.66,0-6.49.8-6.51.8Z"/>
      <path class="cls-1" d="M135.03,32.52l.06.19s.69-.2,1.86-.4c1.16-.2,2.77-.4,4.58-.4,3.31,0,7.29.65,10.44,3.14l.13-.16c-3.21-2.53-7.24-3.19-10.57-3.19-3.66,0-6.48.8-6.49.8Z"/>
      <path class="cls-1" d="M133.69,34.89l.06.19s.69-.2,1.86-.4c1.15-.2,2.77-.4,4.59-.4,3.3,0,7.28.66,10.42,3.14l.13-.15c-3.21-2.52-7.23-3.18-10.55-3.18-3.67,0-6.5.8-6.51.8Z"/>
      <path class="cls-1" d="M127.06,43.93l.05.2s.7-.2,1.86-.4c1.15-.2,2.77-.39,4.59-.39,3.3,0,7.27.65,10.43,3.14l.13-.16c-3.2-2.52-7.23-3.19-10.56-3.19-3.66,0-6.5.8-6.5.8Z"/>
      <path class="cls-1" d="M125.43,46.29l.06.19s.7-.2,1.86-.39c1.16-.2,2.77-.4,4.59-.4,3.3,0,7.28.66,10.43,3.15l.13-.16c-3.21-2.53-7.24-3.18-10.56-3.18-3.67,0-6.5.8-6.51.8Z"/>
      <path class="cls-1" d="M124.09,48.66l.06.19s.7-.2,1.86-.4c1.16-.2,2.78-.4,4.6-.4,3.3,0,7.26.66,10.42,3.14l.12-.16c-3.19-2.53-7.22-3.18-10.54-3.18-3.67,0-6.51.8-6.52.8Z"/>
      <path class="cls-1" d="M44.18,191.8c-.99.06-1.77.84-1.77,1.82s.85,1.84,1.9,1.84c.45,0,.87-.17,1.2-.43.74.49,1.71.72,2.87.72,1.36,0,2.97-.32,4.73-.91.13.39.28.78.43,1.14.63,1.51,1.36,2.74,2.2,3.6.84.86,1.77,1.36,2.79,1.36s1.95-.5,2.78-1.36c1.03-1.07,1.92-2.71,2.61-4.75,1.77.6,3.38.91,4.75.92.64,0,1.21-.09,1.73-.24.35.35.83.57,1.37.58,1.04,0,1.89-.81,1.9-1.82,0-.62-.32-1.17-.81-1.5.02-.15.03-.29.03-.45,0-1.77-1.01-3.98-2.76-6.34-.43-.58-.91-1.17-1.44-1.76.52-.59,1-1.17,1.44-1.75,1.75-2.35,2.76-4.56,2.76-6.34,0-.79-.2-1.5-.66-2.07-.73-.94-2.01-1.36-3.57-1.36-1.36,0-2.98.32-4.74.91-.14-.4-.28-.78-.43-1.14-.62-1.51-1.35-2.74-2.19-3.6-.41-.42-.84-.75-1.29-.98-.15-.88-.92-1.55-1.86-1.55-1.04,0-1.88.83-1.88,1.84,0,.06.01.13.02.19-.19.15-.38.31-.56.5-1.03,1.07-1.92,2.71-2.62,4.74-1.76-.59-3.38-.91-4.74-.91-1.57,0-2.83.42-3.57,1.36-.44.57-.66,1.28-.66,2.07,0,1.77,1.01,3.99,2.77,6.34.43.58.91,1.16,1.44,1.75-.52.59-1,1.18-1.44,1.76-1.59,2.13-2.56,4.14-2.73,5.82ZM63.11,195.82c-.6,1.48-1.33,2.66-2.11,3.47-.79.81-1.62,1.23-2.48,1.23s-1.71-.43-2.5-1.23c-.98-1-1.84-2.6-2.52-4.61,1.59-.57,3.28-1.35,5.02-2.34,1.74.99,3.43,1.78,5.02,2.34-.13.39-.27.77-.42,1.13ZM51.94,184.22c0-1.05.04-2.07.12-3.07.77-.67,1.59-1.33,2.45-1.97,1.33-.99,2.67-1.86,4-2.62,1.33.76,2.67,1.64,4.01,2.62.86.64,1.67,1.3,2.44,1.96.08,1,.12,2.03.12,3.08s-.04,2.08-.12,3.07c-.77.66-1.58,1.32-2.44,1.95-1.33.99-2.68,1.87-4.01,2.64-1.32-.77-2.67-1.65-3.99-2.64-.86-.64-1.68-1.3-2.45-1.96-.08-.99-.12-2.02-.12-3.06ZM51.62,186.9c-1-.89-1.91-1.78-2.72-2.68.81-.9,1.72-1.8,2.72-2.69-.06.87-.09,1.77-.09,2.68,0,.92.04,1.81.1,2.68ZM52.11,180.57c.22-2.38.66-4.56,1.25-6.42,1.49.53,3.09,1.27,4.73,2.18-1.27.74-2.55,1.58-3.82,2.52-.75.56-1.47,1.13-2.16,1.71ZM58.93,176.33c1.64-.92,3.24-1.65,4.73-2.18.59,1.85,1.03,4.03,1.25,6.41-.68-.58-1.4-1.15-2.15-1.71-1.28-.94-2.56-1.78-3.83-2.53ZM65.39,181.52c1.01.9,1.93,1.81,2.74,2.71-.81.9-1.73,1.8-2.73,2.69.06-.88.09-1.78.09-2.69s-.04-1.82-.1-2.7ZM64.91,187.87c-.22,2.39-.66,4.57-1.25,6.43-1.49-.53-3.09-1.27-4.73-2.19,1.27-.75,2.56-1.59,3.83-2.54.75-.55,1.47-1.12,2.15-1.7ZM54.27,189.57c1.27.95,2.55,1.79,3.82,2.54-1.64.92-3.24,1.66-4.73,2.19-.59-1.86-1.03-4.05-1.25-6.44.69.58,1.41,1.15,2.16,1.71ZM69.78,186.22c1.73,2.32,2.69,4.49,2.69,6.09,0,.08-.01.16-.02.24-.22-.08-.45-.13-.7-.14-1.04,0-1.89.82-1.89,1.84,0,.33.1.63.25.9-.44.11-.92.18-1.47.18-1.31,0-2.88-.31-4.62-.89.64-2,1.09-4.37,1.3-6.96,1.13-.98,2.15-1.97,3.05-2.97.5.57.97,1.14,1.38,1.7ZM68.65,173.12c1.5,0,2.62.4,3.25,1.2.38.49.57,1.1.57,1.82,0,1.62-.96,3.79-2.69,6.09-.42.56-.88,1.12-1.38,1.69-.9-.99-1.93-1.99-3.05-2.98-.21-2.58-.67-4.93-1.31-6.93,1.73-.58,3.31-.89,4.62-.89ZM53.91,172.62c.6-1.47,1.33-2.66,2.11-3.47.12-.13.25-.23.38-.33.27.69.96,1.17,1.75,1.17.97,0,1.77-.7,1.87-1.62.34.2.67.45.99.78.98,1.01,1.84,2.6,2.52,4.61-1.59.56-3.28,1.35-5.02,2.33-1.74-.99-3.44-1.77-5.02-2.33.13-.4.28-.78.42-1.14ZM47.25,182.23c-1.74-2.31-2.7-4.47-2.69-6.09,0-.72.18-1.33.58-1.82.62-.8,1.73-1.2,3.24-1.2,1.3,0,2.88.3,4.61.89-.64,2-1.1,4.37-1.31,6.95-1.12.98-2.14,1.97-3.04,2.96-.5-.57-.97-1.14-1.38-1.69ZM48.63,184.53c.9.98,1.91,1.97,3.03,2.94.21,2.6.67,4.96,1.32,6.98-1.73.59-3.31.9-4.61.9-1.07,0-1.93-.22-2.57-.62.24-.31.39-.69.39-1.11,0-.93-.71-1.67-1.6-1.8.17-1.54,1.09-3.51,2.66-5.59.42-.56.88-1.13,1.38-1.7Z"/>
      <path class="cls-1" d="M58.52,186.7c1.38,0,2.53-1.1,2.53-2.48s-1.15-2.46-2.53-2.46-2.56,1.09-2.56,2.46,1.15,2.48,2.56,2.48Z"/>
      <path class="cls-1" d="M204.83,185.47v-3.66h-2.65c-.08-.63-.21-1.25-.37-1.84l2.53-.98-1.38-3.38-2.54.98c-.39-.68-.82-1.31-1.3-1.91l1.91-1.85-2.67-2.59-1.92,1.88c-.55-.43-1.15-.81-1.75-1.15l1.03-2.45-3.46-1.39-1.05,2.43c-.73-.2-1.49-.34-2.26-.44v-2.66h-3.77v2.68c-.72.09-1.42.23-2.11.42l-1.05-2.43-3.48,1.39,1.06,2.44c-.62.34-1.21.72-1.77,1.15l-1.94-1.88-2.65,2.59,1.93,1.85c-.49.61-.92,1.24-1.31,1.91l-2.53-.98-1.4,3.38,2.52.98c-.16.6-.28,1.21-.36,1.84h-2.81v3.66h2.79c.08.65.22,1.3.38,1.91l-2.52.98,1.4,3.38,2.53-.98c.39.66.82,1.3,1.31,1.91l-1.93,1.87,2.65,2.56,1.94-1.85c.56.42,1.16.8,1.77,1.14l-1.06,2.44,3.48,1.4,1.05-2.44c.69.19,1.4.33,2.11.42v2.61h3.77v-2.59c.78-.08,1.53-.24,2.26-.44l1.05,2.44,3.46-1.4-1.03-2.44c.61-.34,1.2-.71,1.76-1.14l1.92,1.84,2.67-2.56-1.91-1.86c.47-.61.91-1.25,1.3-1.91l2.54.98,1.38-3.38-2.53-.98c.17-.62.3-1.26.38-1.91h2.64ZM184.25,172.92c.15-.04.29-.09.41-.1.35,0,.64.27.67.61v6.74c-.78.38-1.41.99-1.81,1.75h-6.98c-.37-.03-.63-.3-.64-.66.03-.14.06-.27.1-.41,1.06-3.88,4.22-6.93,8.23-7.93h.01ZM176.55,185.43h6.97c.39.78,1.03,1.38,1.81,1.76v6.74c-.03.34-.32.62-.69.63-.13-.03-.28-.08-.42-.12h-.01c-4.01-1.02-7.17-4.08-8.22-7.95-.03-.13-.06-.26-.09-.4.01-.34.27-.61.64-.66ZM187.14,185.16c-.85,0-1.54-.67-1.54-1.48s.69-1.49,1.54-1.49,1.54.67,1.54,1.49-.68,1.48-1.54,1.48ZM198.28,180.85c.03.15.07.28.11.41,0,.35-.29.63-.65.66h-6.97c-.38-.76-1.03-1.37-1.81-1.75v-6.74c.03-.34.31-.61.68-.61.12.01.25.06.4.1h0c4.02,1.01,7.17,4.05,8.23,7.93ZM189.64,194.56c-.38-.01-.64-.28-.69-.63v-6.74c.78-.38,1.42-.98,1.82-1.76h6.96c.37.05.65.33.65.66-.04.14-.06.27-.1.38v.02s0,0,0,0c-1.04,3.87-4.18,6.93-8.2,7.95-.16.04-.3.09-.44.12Z"/>
    </g>
  </g>
</svg>